solid OpenSCAD_Model
  facet normal -0.994512 -0.104621 0
    outer loop
      vertex -23.5 50 0
      vertex -23.243 47.557 0
      vertex -23.5 50 16.5
    endloop
  endfacet
  facet normal -0.994512 -0.104621 0
    outer loop
      vertex -23.5 50 16.5
      vertex -23.243 47.557 0
      vertex -23.243 47.557 16.5
    endloop
  endfacet
  facet normal 0 0 -1
    outer loop
      vertex -23.5 50 0
      vertex -23.243 52.443 0
      vertex -23.243 47.557 0
    endloop
  endfacet
  facet normal 0 0 -1
    outer loop
      vertex -23.243 47.557 0
      vertex -23.243 52.443 0
      vertex -22.484 54.779 0
    endloop
  endfacet
  facet normal 0 0 -1
    outer loop
      vertex -23.243 47.557 0
      vertex -22.484 54.779 0
      vertex -21.256 56.906 0
    endloop
  endfacet
  facet normal 0 0 -1
    outer loop
      vertex -23.243 47.557 0
      vertex -21.256 56.906 0
      vertex -19.612 58.732 0
    endloop
  endfacet
  facet normal 0 0 -1
    outer loop
      vertex -23.243 47.557 0
      vertex -19.612 58.732 0
      vertex -17.625 60.176 0
    endloop
  endfacet
  facet normal 0 0 -1
    outer loop
      vertex -23.243 47.557 0
      vertex -17.625 60.176 0
      vertex -15.381 61.175 0
    endloop
  endfacet
  facet normal 0 0 -1
    outer loop
      vertex -23.243 47.557 0
      vertex -15.381 61.175 0
      vertex -12.978 61.686 0
    endloop
  endfacet
  facet normal 0 0 -1
    outer loop
      vertex -23.243 47.557 0
      vertex -12.978 61.686 0
      vertex -10.522 61.686 0
    endloop
  endfacet
  facet normal 0 0 -1
    outer loop
      vertex -14.554 56.14 0
      vertex -10.522 61.686 0
      vertex -8.119 61.175 0
    endloop
  endfacet
  facet normal 0 0 -1
    outer loop
      vertex -10.789 56.681 0
      vertex -8.119 61.175 0
      vertex -5.875 60.176 0
    endloop
  endfacet
  facet normal 0 0 -1
    outer loop
      vertex -8.946 56.14 0
      vertex -5.875 60.176 0
      vertex -3.888 58.732 0
    endloop
  endfacet
  facet normal 0 0 -1
    outer loop
      vertex -7.33 55.101 0
      vertex -3.888 58.732 0
      vertex -2.244 56.906 0
    endloop
  endfacet
  facet normal 0 0 -1
    outer loop
      vertex -6.072 53.649 0
      vertex -2.244 56.906 0
      vertex -1.016 54.779 0
    endloop
  endfacet
  facet normal 0 0 -1
    outer loop
      vertex -5.273 51.902 0
      vertex -1.016 54.779 0
      vertex -0.257 52.443 0
    endloop
  endfacet
  facet normal 0 0 -1
    outer loop
      vertex -5 49.96 0
      vertex -0.257 52.443 0
      vertex 0 50 0
    endloop
  endfacet
  facet normal 0 0 -1
    outer loop
      vertex -5.006 49.96 0
      vertex -0.257 52.443 0
      vertex -5 49.96 0
    endloop
  endfacet
  facet normal 0 0 -1
    outer loop
      vertex -5.273 51.902 0
      vertex -0.257 52.443 0
      vertex -5 50 0
    endloop
  endfacet
  facet normal 0 0 -1
    outer loop
      vertex -5 50 0
      vertex -0.257 52.443 0
      vertex -5.006 49.96 0
    endloop
  endfacet
  facet normal 0 0 -1
    outer loop
      vertex -6.072 53.649 0
      vertex -1.016 54.779 0
      vertex -5.273 51.902 0
    endloop
  endfacet
  facet normal 0 0 -1
    outer loop
      vertex -18.227 48.098 0
      vertex -23.243 47.557 0
      vertex -18.5 50 0
    endloop
  endfacet
  facet normal 0 0 -1
    outer loop
      vertex -7.33 55.101 0
      vertex -2.244 56.906 0
      vertex -6.072 53.649 0
    endloop
  endfacet
  facet normal 0 0 -1
    outer loop
      vertex -8.946 56.14 0
      vertex -3.888 58.732 0
      vertex -7.33 55.101 0
    endloop
  endfacet
  facet normal 0 0 -1
    outer loop
      vertex -10.789 56.681 0
      vertex -5.875 60.176 0
      vertex -8.946 56.14 0
    endloop
  endfacet
  facet normal 0 0 -1
    outer loop
      vertex -12.711 56.681 0
      vertex -8.119 61.175 0
      vertex -10.789 56.681 0
    endloop
  endfacet
  facet normal 0 0 -1
    outer loop
      vertex -14.554 56.14 0
      vertex -8.119 61.175 0
      vertex -12.711 56.681 0
    endloop
  endfacet
  facet normal 0 0 -1
    outer loop
      vertex -16.17 55.101 0
      vertex -10.522 61.686 0
      vertex -14.554 56.14 0
    endloop
  endfacet
  facet normal 0 0 -1
    outer loop
      vertex -18.227 51.902 0
      vertex -23.243 47.557 0
      vertex -17.428 53.649 0
    endloop
  endfacet
  facet normal 0 0 -1
    outer loop
      vertex -23.243 47.557 0
      vertex -10.522 61.686 0
      vertex -16.17 55.101 0
    endloop
  endfacet
  facet normal 0 0 -1
    outer loop
      vertex -23.243 47.557 0
      vertex -16.17 55.101 0
      vertex -17.428 53.649 0
    endloop
  endfacet
  facet normal 0 0 -1
    outer loop
      vertex -18.5 50 0
      vertex -23.243 47.557 0
      vertex -18.227 51.902 0
    endloop
  endfacet
  facet normal 0 0 -1
    outer loop
      vertex -6.783 3.698 0
      vertex -23.243 47.557 0
      vertex -5.767 7.239 0
    endloop
  endfacet
  facet normal 0 0 -1
    outer loop
      vertex -23.243 47.557 0
      vertex -18.032 47.671 0
      vertex -18.079 47.654 0
    endloop
  endfacet
  facet normal 0 0 -1
    outer loop
      vertex -23.243 47.557 0
      vertex -18.079 47.654 0
      vertex -6.65 16.253 0
    endloop
  endfacet
  facet normal 0 0 -1
    outer loop
      vertex -23.243 47.557 0
      vertex -6.65 16.253 0
      vertex -6.024 14.564 0
    endloop
  endfacet
  facet normal 0 0 -1
    outer loop
      vertex -23.243 47.557 0
      vertex -5.511 10.915 0
      vertex -5.767 7.239 0
    endloop
  endfacet
  facet normal 0 0 -1
    outer loop
      vertex -16.435 -0.406 0
      vertex -17.061 -6.245 0
      vertex -18.771 -1.546 0
    endloop
  endfacet
  facet normal 0 0 -1
    outer loop
      vertex -10.691 8.107 0
      vertex -6.783 3.698 0
      vertex -8.513 0.444 0
    endloop
  endfacet
  facet normal 0 0 -1
    outer loop
      vertex -10.691 8.107 0
      vertex -8.513 0.444 0
      vertex -11.419 5.57 0
    endloop
  endfacet
  facet normal 0 0 -1
    outer loop
      vertex -14.355 1.218 0
      vertex -10.881 -2.378 0
      vertex -13.786 -4.647 0
    endloop
  endfacet
  facet normal 0 0 -1
    outer loop
      vertex -16.435 -0.406 0
      vertex -13.786 -4.647 0
      vertex -17.061 -6.245 0
    endloop
  endfacet
  facet normal 0 0 -1
    outer loop
      vertex -14.355 1.218 0
      vertex -13.786 -4.647 0
      vertex -16.435 -0.406 0
    endloop
  endfacet
  facet normal 0 0 -1
    outer loop
      vertex -12.658 3.24 0
      vertex -10.881 -2.378 0
      vertex -14.355 1.218 0
    endloop
  endfacet
  facet normal 0 0 -1
    outer loop
      vertex -11.419 5.57 0
      vertex -10.881 -2.378 0
      vertex -12.658 3.24 0
    endloop
  endfacet
  facet normal 0 0 -1
    outer loop
      vertex -8.513 0.444 0
      vertex -10.881 -2.378 0
      vertex -11.419 5.57 0
    endloop
  endfacet
  facet normal 0 0 -1
    outer loop
      vertex -10.508 10.741 0
      vertex -6.783 3.698 0
      vertex -10.691 8.107 0
    endloop
  endfacet
  facet normal 0 0 -1
    outer loop
      vertex -10.849 13.169 0
      vertex -6.783 3.698 0
      vertex -10.508 10.741 0
    endloop
  endfacet
  facet normal 0 0 -1
    outer loop
      vertex -23.243 47.557 0
      vertex -6.783 3.698 0
      vertex -10.849 13.169 0
    endloop
  endfacet
  facet normal 0 0 -1
    outer loop
      vertex -22.791 45.981 0
      vertex -22.737 46.001 0
      vertex -10.849 13.169 0
    endloop
  endfacet
  facet normal 0 0 -1
    outer loop
      vertex -22.737 46.001 0
      vertex -23.243 47.557 0
      vertex -10.849 13.169 0
    endloop
  endfacet
  facet normal 0 0 -1
    outer loop
      vertex -5 49.96 0
      vertex 0 50 0
      vertex 0 0 0
    endloop
  endfacet
  facet normal 0 0 -1
    outer loop
      vertex -5 49.96 0
      vertex 0 0 0
      vertex -2.5 -2.5 0
    endloop
  endfacet
  facet normal 0 0 -1
    outer loop
      vertex -5 49.96 0
      vertex -2.5 -2.5 0
      vertex -5 0 0
    endloop
  endfacet
  facet normal 0 0 -1
    outer loop
      vertex -5.511 10.915 0
      vertex -23.243 47.557 0
      vertex -6.024 14.564 0
    endloop
  endfacet
  facet normal 0 0 -1
    outer loop
      vertex -6.024 14.564 0
      vertex -6.65 16.253 0
      vertex -6.64 16.257 0
    endloop
  endfacet
  facet normal 0 0 -1
    outer loop
      vertex -18.032 47.671 0
      vertex -23.243 47.557 0
      vertex -18.227 48.098 0
    endloop
  endfacet
  facet normal -0.994512 0.104621 0
    outer loop
      vertex -23.5 50 0
      vertex -23.5 50 16.5
      vertex -23.243 52.443 0
    endloop
  endfacet
  facet normal -0.994512 0.104621 0
    outer loop
      vertex -23.243 52.443 0
      vertex -23.5 50 16.5
      vertex -23.243 52.443 16.5
    endloop
  endfacet
  facet normal 0 0 1
    outer loop
      vertex -23.243 52.443 16.5
      vertex -23.5 50 16.5
      vertex -23.243 47.557 16.5
    endloop
  endfacet
  facet normal 0 0 1
    outer loop
      vertex -10.849 13.169 16.5
      vertex -23.243 52.443 16.5
      vertex -22.737 46.001 16.5
    endloop
  endfacet
  facet normal 0 0 1
    outer loop
      vertex -22.737 46.001 16.5
      vertex -23.243 52.443 16.5
      vertex -23.243 47.557 16.5
    endloop
  endfacet
  facet normal 0 0 1
    outer loop
      vertex -10.849 13.169 16.5
      vertex -22.737 46.001 16.5
      vertex -22.791 45.981 16.5
    endloop
  endfacet
  facet normal 0 0 1
    outer loop
      vertex -6.783 3.698 16.5
      vertex -23.243 52.443 16.5
      vertex -10.849 13.169 16.5
    endloop
  endfacet
  facet normal 0 0 1
    outer loop
      vertex -8.513 0.444 16.5
      vertex -10.849 13.169 16.5
      vertex -10.508 10.741 16.5
    endloop
  endfacet
  facet normal 0 0 1
    outer loop
      vertex -10.881 -2.378 16.5
      vertex -10.508 10.741 16.5
      vertex -10.691 8.107 16.5
    endloop
  endfacet
  facet normal 0 0 1
    outer loop
      vertex -13.786 -4.647 16.5
      vertex -10.691 8.107 16.5
      vertex -11.419 5.57 16.5
    endloop
  endfacet
  facet normal 0 0 1
    outer loop
      vertex -17.061 -6.245 16.5
      vertex -11.419 5.57 16.5
      vertex -12.658 3.24 16.5
    endloop
  endfacet
  facet normal 0 0 1
    outer loop
      vertex -17.061 -6.245 16.5
      vertex -12.658 3.24 16.5
      vertex -14.355 1.218 16.5
    endloop
  endfacet
  facet normal 0 0 1
    outer loop
      vertex -17.061 -6.245 16.5
      vertex -14.355 1.218 16.5
      vertex -16.435 -0.406 16.5
    endloop
  endfacet
  facet normal 0 0 1
    outer loop
      vertex -17.061 -6.245 16.5
      vertex -16.435 -0.406 16.5
      vertex -18.771 -1.546 16.5
    endloop
  endfacet
  facet normal 0 0 1
    outer loop
      vertex -13.786 -4.647 16.5
      vertex -11.419 5.57 16.5
      vertex -17.061 -6.245 16.5
    endloop
  endfacet
  facet normal 0 0 1
    outer loop
      vertex -10.881 -2.378 16.5
      vertex -10.691 8.107 16.5
      vertex -13.786 -4.647 16.5
    endloop
  endfacet
  facet normal 0 0 1
    outer loop
      vertex -8.513 0.444 16.5
      vertex -10.508 10.741 16.5
      vertex -10.881 -2.378 16.5
    endloop
  endfacet
  facet normal 0 0 1
    outer loop
      vertex -6.783 3.698 16.5
      vertex -10.849 13.169 16.5
      vertex -8.513 0.444 16.5
    endloop
  endfacet
  facet normal 0 0 1
    outer loop
      vertex -5.767 7.239 16.5
      vertex -23.243 52.443 16.5
      vertex -6.783 3.698 16.5
    endloop
  endfacet
  facet normal 0 0 1
    outer loop
      vertex -5.511 10.915 16.5
      vertex -23.243 52.443 16.5
      vertex -5.767 7.239 16.5
    endloop
  endfacet
  facet normal 0 0 1
    outer loop
      vertex -6.024 14.564 16.5
      vertex -23.243 52.443 16.5
      vertex -5.511 10.915 16.5
    endloop
  endfacet
  facet normal 0 0 1
    outer loop
      vertex -6.65 16.253 16.5
      vertex -23.243 52.443 16.5
      vertex -6.024 14.564 16.5
    endloop
  endfacet
  facet normal 0 0 1
    outer loop
      vertex -6.64 16.257 16.5
      vertex -6.65 16.253 16.5
      vertex -6.024 14.564 16.5
    endloop
  endfacet
  facet normal 0 0 1
    outer loop
      vertex -5.006 49.96 16.5
      vertex -5 49.96 16.5
      vertex -5 50 16.5
    endloop
  endfacet
  facet normal 0 0 1
    outer loop
      vertex -18.032 47.671 16.5
      vertex -23.243 52.443 16.5
      vertex -18.079 47.654 16.5
    endloop
  endfacet
  facet normal 0 0 1
    outer loop
      vertex -18.227 48.098 16.5
      vertex -23.243 52.443 16.5
      vertex -18.032 47.671 16.5
    endloop
  endfacet
  facet normal 0 0 1
    outer loop
      vertex -18.5 50 16.5
      vertex -23.243 52.443 16.5
      vertex -18.227 48.098 16.5
    endloop
  endfacet
  facet normal 0 0 1
    outer loop
      vertex -18.227 51.902 16.5
      vertex -23.243 52.443 16.5
      vertex -18.5 50 16.5
    endloop
  endfacet
  facet normal 0 0 1
    outer loop
      vertex -17.428 53.649 16.5
      vertex -23.243 52.443 16.5
      vertex -18.227 51.902 16.5
    endloop
  endfacet
  facet normal 0 0 1
    outer loop
      vertex -16.17 55.101 16.5
      vertex -23.243 52.443 16.5
      vertex -17.428 53.649 16.5
    endloop
  endfacet
  facet normal 0 0 1
    outer loop
      vertex -14.554 56.14 16.5
      vertex -23.243 52.443 16.5
      vertex -16.17 55.101 16.5
    endloop
  endfacet
  facet normal 0 0 1
    outer loop
      vertex -5.875 60.176 16.5
      vertex -23.243 52.443 16.5
      vertex -14.554 56.14 16.5
    endloop
  endfacet
  facet normal 0 0 1
    outer loop
      vertex -5.875 60.176 16.5
      vertex -14.554 56.14 16.5
      vertex -12.711 56.681 16.5
    endloop
  endfacet
  facet normal 0 0 1
    outer loop
      vertex -2.244 56.906 16.5
      vertex -12.711 56.681 16.5
      vertex -10.789 56.681 16.5
    endloop
  endfacet
  facet normal 0 0 1
    outer loop
      vertex -1.016 54.779 16.5
      vertex -10.789 56.681 16.5
      vertex -8.946 56.14 16.5
    endloop
  endfacet
  facet normal 0 0 1
    outer loop
      vertex -0.257 52.443 16.5
      vertex -8.946 56.14 16.5
      vertex -7.33 55.101 16.5
    endloop
  endfacet
  facet normal 0 0 1
    outer loop
      vertex 0 50 16.5
      vertex -7.33 55.101 16.5
      vertex -6.072 53.649 16.5
    endloop
  endfacet
  facet normal 0 0 1
    outer loop
      vertex 0 50 16.5
      vertex -6.072 53.649 16.5
      vertex -5.273 51.902 16.5
    endloop
  endfacet
  facet normal 0 0 1
    outer loop
      vertex 0 50 16.5
      vertex -5.273 51.902 16.5
      vertex -5 50 16.5
    endloop
  endfacet
  facet normal 0 0 1
    outer loop
      vertex -2.5 -2.5 16.5
      vertex -5 50 16.5
      vertex -5 49.96 16.5
    endloop
  endfacet
  facet normal 0 0 1
    outer loop
      vertex -2.5 -2.5 16.5
      vertex -5 49.96 16.5
      vertex -5 0 16.5
    endloop
  endfacet
  facet normal 0 0 1
    outer loop
      vertex 0 0 16.5
      vertex -5 50 16.5
      vertex -2.5 -2.5 16.5
    endloop
  endfacet
  facet normal 0 0 1
    outer loop
      vertex 0 50 16.5
      vertex -5 50 16.5
      vertex 0 0 16.5
    endloop
  endfacet
  facet normal 0 0 1
    outer loop
      vertex -0.257 52.443 16.5
      vertex -7.33 55.101 16.5
      vertex 0 50 16.5
    endloop
  endfacet
  facet normal 0 0 1
    outer loop
      vertex -1.016 54.779 16.5
      vertex -8.946 56.14 16.5
      vertex -0.257 52.443 16.5
    endloop
  endfacet
  facet normal 0 0 1
    outer loop
      vertex -2.244 56.906 16.5
      vertex -10.789 56.681 16.5
      vertex -1.016 54.779 16.5
    endloop
  endfacet
  facet normal 0 0 1
    outer loop
      vertex -3.888 58.732 16.5
      vertex -12.711 56.681 16.5
      vertex -2.244 56.906 16.5
    endloop
  endfacet
  facet normal 0 0 1
    outer loop
      vertex -5.875 60.176 16.5
      vertex -12.711 56.681 16.5
      vertex -3.888 58.732 16.5
    endloop
  endfacet
  facet normal 0 0 1
    outer loop
      vertex -8.119 61.175 16.5
      vertex -23.243 52.443 16.5
      vertex -5.875 60.176 16.5
    endloop
  endfacet
  facet normal 0 0 1
    outer loop
      vertex -10.522 61.686 16.5
      vertex -23.243 52.443 16.5
      vertex -8.119 61.175 16.5
    endloop
  endfacet
  facet normal 0 0 1
    outer loop
      vertex -12.978 61.686 16.5
      vertex -23.243 52.443 16.5
      vertex -10.522 61.686 16.5
    endloop
  endfacet
  facet normal 0 0 1
    outer loop
      vertex -15.381 61.175 16.5
      vertex -23.243 52.443 16.5
      vertex -12.978 61.686 16.5
    endloop
  endfacet
  facet normal 0 0 1
    outer loop
      vertex -17.625 60.176 16.5
      vertex -23.243 52.443 16.5
      vertex -15.381 61.175 16.5
    endloop
  endfacet
  facet normal 0 0 1
    outer loop
      vertex -19.612 58.732 16.5
      vertex -23.243 52.443 16.5
      vertex -17.625 60.176 16.5
    endloop
  endfacet
  facet normal 0 0 1
    outer loop
      vertex -21.256 56.906 16.5
      vertex -23.243 52.443 16.5
      vertex -19.612 58.732 16.5
    endloop
  endfacet
  facet normal 0 0 1
    outer loop
      vertex -22.484 54.779 16.5
      vertex -23.243 52.443 16.5
      vertex -21.256 56.906 16.5
    endloop
  endfacet
  facet normal 0 0 1
    outer loop
      vertex -6.65 16.253 16.5
      vertex -18.079 47.654 16.5
      vertex -23.243 52.443 16.5
    endloop
  endfacet
  facet normal -0.95098 -0.309252 0
    outer loop
      vertex -23.243 47.557 0
      vertex -22.737 46.001 0
      vertex -23.243 47.557 16.5
    endloop
  endfacet
  facet normal -0.95098 -0.309252 0
    outer loop
      vertex -23.243 47.557 16.5
      vertex -22.737 46.001 0
      vertex -22.737 46.001 16.5
    endloop
  endfacet
  facet normal -0.347314 0.937749 0
    outer loop
      vertex -22.791 45.981 0
      vertex -22.791 45.981 16.5
      vertex -22.737 46.001 0
    endloop
  endfacet
  facet normal -0.347314 0.937749 0
    outer loop
      vertex -22.737 46.001 0
      vertex -22.791 45.981 16.5
      vertex -22.737 46.001 16.5
    endloop
  endfacet
  facet normal -0.939698 -0.342005 0
    outer loop
      vertex -22.791 45.981 0
      vertex -10.849 13.169 0
      vertex -22.791 45.981 16.5
    endloop
  endfacet
  facet normal -0.939698 -0.342005 0
    outer loop
      vertex -22.791 45.981 16.5
      vertex -10.849 13.169 0
      vertex -10.849 13.169 16.5
    endloop
  endfacet
  facet normal -0.990281 -0.13908 0
    outer loop
      vertex -10.849 13.169 0
      vertex -10.508 10.741 0
      vertex -10.849 13.169 16.5
    endloop
  endfacet
  facet normal -0.990281 -0.13908 0
    outer loop
      vertex -10.849 13.169 16.5
      vertex -10.508 10.741 0
      vertex -10.508 10.741 16.5
    endloop
  endfacet
  facet normal -0.997595 0.069309 0
    outer loop
      vertex -10.691 8.107 0
      vertex -10.691 8.107 16.5
      vertex -10.508 10.741 0
    endloop
  endfacet
  facet normal -0.997595 0.069309 0
    outer loop
      vertex -10.508 10.741 0
      vertex -10.691 8.107 16.5
      vertex -10.508 10.741 16.5
    endloop
  endfacet
  facet normal -0.961209 0.275822 0
    outer loop
      vertex -11.419 5.57 0
      vertex -11.419 5.57 16.5
      vertex -10.691 8.107 0
    endloop
  endfacet
  facet normal -0.961209 0.275822 0
    outer loop
      vertex -10.691 8.107 0
      vertex -11.419 5.57 16.5
      vertex -10.691 8.107 16.5
    endloop
  endfacet
  facet normal -0.882929 0.469506 0
    outer loop
      vertex -12.658 3.24 0
      vertex -12.658 3.24 16.5
      vertex -11.419 5.57 0
    endloop
  endfacet
  facet normal -0.882929 0.469506 0
    outer loop
      vertex -11.419 5.57 0
      vertex -12.658 3.24 16.5
      vertex -11.419 5.57 16.5
    endloop
  endfacet
  facet normal -0.765981 0.642863 0
    outer loop
      vertex -14.355 1.218 0
      vertex -14.355 1.218 16.5
      vertex -12.658 3.24 0
    endloop
  endfacet
  facet normal -0.765981 0.642863 0
    outer loop
      vertex -12.658 3.24 0
      vertex -14.355 1.218 16.5
      vertex -12.658 3.24 16.5
    endloop
  endfacet
  facet normal -0.615409 0.788208 0
    outer loop
      vertex -16.435 -0.406 0
      vertex -16.435 -0.406 16.5
      vertex -14.355 1.218 0
    endloop
  endfacet
  facet normal -0.615409 0.788208 0
    outer loop
      vertex -14.355 1.218 0
      vertex -16.435 -0.406 16.5
      vertex -14.355 1.218 16.5
    endloop
  endfacet
  facet normal -0.438575 0.898694 0
    outer loop
      vertex -18.771 -1.546 0
      vertex -18.771 -1.546 16.5
      vertex -16.435 -0.406 0
    endloop
  endfacet
  facet normal -0.438575 0.898694 0
    outer loop
      vertex -16.435 -0.406 0
      vertex -18.771 -1.546 16.5
      vertex -16.435 -0.406 16.5
    endloop
  endfacet
  facet normal -0.939712 -0.341968 0
    outer loop
      vertex -18.771 -1.546 0
      vertex -17.061 -6.245 0
      vertex -18.771 -1.546 16.5
    endloop
  endfacet
  facet normal -0.939712 -0.341968 0
    outer loop
      vertex -18.771 -1.546 16.5
      vertex -17.061 -6.245 0
      vertex -17.061 -6.245 16.5
    endloop
  endfacet
  facet normal 0.438521 -0.898721 0
    outer loop
      vertex -17.061 -6.245 16.5
      vertex -17.061 -6.245 0
      vertex -13.786 -4.647 0
    endloop
  endfacet
  facet normal 0.438521 -0.898721 0
    outer loop
      vertex -13.786 -4.647 16.5
      vertex -17.061 -6.245 16.5
      vertex -13.786 -4.647 0
    endloop
  endfacet
  facet normal 0.615555 -0.788094 0
    outer loop
      vertex -13.786 -4.647 16.5
      vertex -13.786 -4.647 0
      vertex -10.881 -2.378 0
    endloop
  endfacet
  facet normal 0.615555 -0.788094 0
    outer loop
      vertex -10.881 -2.378 16.5
      vertex -13.786 -4.647 16.5
      vertex -10.881 -2.378 0
    endloop
  endfacet
  facet normal 0.766036 -0.642797 0
    outer loop
      vertex -10.881 -2.378 16.5
      vertex -10.881 -2.378 0
      vertex -8.513 0.444 0
    endloop
  endfacet
  facet normal 0.766036 -0.642797 0
    outer loop
      vertex -8.513 0.444 16.5
      vertex -10.881 -2.378 16.5
      vertex -8.513 0.444 0
    endloop
  endfacet
  facet normal 0.882968 -0.469433 0
    outer loop
      vertex -8.513 0.444 16.5
      vertex -8.513 0.444 0
      vertex -6.783 3.698 0
    endloop
  endfacet
  facet normal 0.882968 -0.469433 0
    outer loop
      vertex -6.783 3.698 16.5
      vertex -8.513 0.444 16.5
      vertex -6.783 3.698 0
    endloop
  endfacet
  facet normal 0.961216 -0.275797 0
    outer loop
      vertex -6.783 3.698 16.5
      vertex -6.783 3.698 0
      vertex -5.767 7.239 0
    endloop
  endfacet
  facet normal 0.961216 -0.275797 0
    outer loop
      vertex -5.767 7.239 16.5
      vertex -6.783 3.698 16.5
      vertex -5.767 7.239 0
    endloop
  endfacet
  facet normal 0.997584 -0.0694727 0
    outer loop
      vertex -5.767 7.239 16.5
      vertex -5.767 7.239 0
      vertex -5.511 10.915 0
    endloop
  endfacet
  facet normal 0.997584 -0.0694727 0
    outer loop
      vertex -5.511 10.915 16.5
      vertex -5.767 7.239 16.5
      vertex -5.511 10.915 0
    endloop
  endfacet
  facet normal 0.990262 0.139217 0
    outer loop
      vertex -5.511 10.915 0
      vertex -6.024 14.564 0
      vertex -6.024 14.564 16.5
    endloop
  endfacet
  facet normal 0.990262 0.139217 0
    outer loop
      vertex -5.511 10.915 16.5
      vertex -5.511 10.915 0
      vertex -6.024 14.564 16.5
    endloop
  endfacet
  facet normal 0.939729 0.341921 0
    outer loop
      vertex -6.024 14.564 0
      vertex -6.64 16.257 0
      vertex -6.64 16.257 16.5
    endloop
  endfacet
  facet normal 0.939729 0.341921 0
    outer loop
      vertex -6.024 14.564 16.5
      vertex -6.024 14.564 0
      vertex -6.64 16.257 16.5
    endloop
  endfacet
  facet normal -0.371391 0.928477 0
    outer loop
      vertex -6.65 16.253 0
      vertex -6.65 16.253 16.5
      vertex -6.64 16.257 0
    endloop
  endfacet
  facet normal -0.371391 0.928477 0
    outer loop
      vertex -6.64 16.257 0
      vertex -6.65 16.253 16.5
      vertex -6.64 16.257 16.5
    endloop
  endfacet
  facet normal 0.939693 0.342019 0
    outer loop
      vertex -6.65 16.253 0
      vertex -18.079 47.654 0
      vertex -18.079 47.654 16.5
    endloop
  endfacet
  facet normal 0.939693 0.342019 0
    outer loop
      vertex -6.65 16.253 16.5
      vertex -6.65 16.253 0
      vertex -18.079 47.654 16.5
    endloop
  endfacet
  facet normal 0.340136 -0.940376 0
    outer loop
      vertex -18.079 47.654 16.5
      vertex -18.079 47.654 0
      vertex -18.032 47.671 0
    endloop
  endfacet
  facet normal 0.340136 -0.940376 0
    outer loop
      vertex -18.032 47.671 16.5
      vertex -18.079 47.654 16.5
      vertex -18.032 47.671 0
    endloop
  endfacet
  facet normal 0.909636 0.415407 0
    outer loop
      vertex -18.032 47.671 0
      vertex -18.227 48.098 0
      vertex -18.227 48.098 16.5
    endloop
  endfacet
  facet normal 0.909636 0.415407 0
    outer loop
      vertex -18.032 47.671 16.5
      vertex -18.032 47.671 0
      vertex -18.227 48.098 16.5
    endloop
  endfacet
  facet normal 0.989856 0.142077 0
    outer loop
      vertex -18.227 48.098 0
      vertex -18.5 50 0
      vertex -18.5 50 16.5
    endloop
  endfacet
  facet normal 0.989856 0.142077 0
    outer loop
      vertex -18.227 48.098 16.5
      vertex -18.227 48.098 0
      vertex -18.5 50 16.5
    endloop
  endfacet
  facet normal 0.989856 -0.142077 0
    outer loop
      vertex -18.5 50 16.5
      vertex -18.5 50 0
      vertex -18.227 51.902 0
    endloop
  endfacet
  facet normal 0.989856 -0.142077 0
    outer loop
      vertex -18.227 51.902 16.5
      vertex -18.5 50 16.5
      vertex -18.227 51.902 0
    endloop
  endfacet
  facet normal 0.909401 -0.41592 0
    outer loop
      vertex -18.227 51.902 16.5
      vertex -18.227 51.902 0
      vertex -17.428 53.649 0
    endloop
  endfacet
  facet normal 0.909401 -0.41592 0
    outer loop
      vertex -17.428 53.649 16.5
      vertex -18.227 51.902 16.5
      vertex -17.428 53.649 0
    endloop
  endfacet
  facet normal 0.755792 -0.654812 0
    outer loop
      vertex -17.428 53.649 16.5
      vertex -17.428 53.649 0
      vertex -16.17 55.101 0
    endloop
  endfacet
  facet normal 0.755792 -0.654812 0
    outer loop
      vertex -16.17 55.101 16.5
      vertex -17.428 53.649 16.5
      vertex -16.17 55.101 0
    endloop
  endfacet
  facet normal 0.54081 -0.841145 0
    outer loop
      vertex -16.17 55.101 16.5
      vertex -16.17 55.101 0
      vertex -14.554 56.14 0
    endloop
  endfacet
  facet normal 0.54081 -0.841145 0
    outer loop
      vertex -14.554 56.14 16.5
      vertex -16.17 55.101 16.5
      vertex -14.554 56.14 0
    endloop
  endfacet
  facet normal 0.281659 -0.959515 0
    outer loop
      vertex -14.554 56.14 16.5
      vertex -14.554 56.14 0
      vertex -12.711 56.681 0
    endloop
  endfacet
  facet normal 0.281659 -0.959515 0
    outer loop
      vertex -12.711 56.681 16.5
      vertex -14.554 56.14 16.5
      vertex -12.711 56.681 0
    endloop
  endfacet
  facet normal 0 -1 0
    outer loop
      vertex -12.711 56.681 16.5
      vertex -12.711 56.681 0
      vertex -10.789 56.681 0
    endloop
  endfacet
  facet normal 0 -1 0
    outer loop
      vertex -10.789 56.681 16.5
      vertex -12.711 56.681 16.5
      vertex -10.789 56.681 0
    endloop
  endfacet
  facet normal -0.281659 -0.959515 0
    outer loop
      vertex -10.789 56.681 16.5
      vertex -10.789 56.681 0
      vertex -8.946 56.14 0
    endloop
  endfacet
  facet normal -0.281659 -0.959515 0
    outer loop
      vertex -8.946 56.14 16.5
      vertex -10.789 56.681 16.5
      vertex -8.946 56.14 0
    endloop
  endfacet
  facet normal -0.54081 -0.841145 0
    outer loop
      vertex -8.946 56.14 16.5
      vertex -8.946 56.14 0
      vertex -7.33 55.101 0
    endloop
  endfacet
  facet normal -0.54081 -0.841145 0
    outer loop
      vertex -7.33 55.101 16.5
      vertex -8.946 56.14 16.5
      vertex -7.33 55.101 0
    endloop
  endfacet
  facet normal -0.755792 -0.654812 0
    outer loop
      vertex -7.33 55.101 0
      vertex -6.072 53.649 0
      vertex -7.33 55.101 16.5
    endloop
  endfacet
  facet normal -0.755792 -0.654812 0
    outer loop
      vertex -7.33 55.101 16.5
      vertex -6.072 53.649 0
      vertex -6.072 53.649 16.5
    endloop
  endfacet
  facet normal -0.909401 -0.41592 0
    outer loop
      vertex -6.072 53.649 0
      vertex -5.273 51.902 0
      vertex -6.072 53.649 16.5
    endloop
  endfacet
  facet normal -0.909401 -0.41592 0
    outer loop
      vertex -6.072 53.649 16.5
      vertex -5.273 51.902 0
      vertex -5.273 51.902 16.5
    endloop
  endfacet
  facet normal -0.989856 -0.142077 0
    outer loop
      vertex -5.273 51.902 0
      vertex -5 50 0
      vertex -5.273 51.902 16.5
    endloop
  endfacet
  facet normal -0.989856 -0.142077 0
    outer loop
      vertex -5.273 51.902 16.5
      vertex -5 50 0
      vertex -5 50 16.5
    endloop
  endfacet
  facet normal -0.988936 0.14834 0
    outer loop
      vertex -5.006 49.96 0
      vertex -5.006 49.96 16.5
      vertex -5 50 0
    endloop
  endfacet
  facet normal -0.988936 0.14834 0
    outer loop
      vertex -5 50 0
      vertex -5.006 49.96 16.5
      vertex -5 50 16.5
    endloop
  endfacet
  facet normal 0 -1 0
    outer loop
      vertex -5.006 49.96 16.5
      vertex -5.006 49.96 0
      vertex -5 49.96 0
    endloop
  endfacet
  facet normal 0 -1 0
    outer loop
      vertex -5 49.96 16.5
      vertex -5.006 49.96 16.5
      vertex -5 49.96 0
    endloop
  endfacet
  facet normal -1 0 0
    outer loop
      vertex -5 0 0
      vertex -5 0 16.5
      vertex -5 49.96 0
    endloop
  endfacet
  facet normal -1 0 0
    outer loop
      vertex -5 49.96 0
      vertex -5 0 16.5
      vertex -5 49.96 16.5
    endloop
  endfacet
  facet normal -0.707107 -0.707107 0
    outer loop
      vertex -5 0 16.5
      vertex -5 0 0
      vertex -2.5 -2.5 0
    endloop
  endfacet
  facet normal -0.707107 -0.707107 0
    outer loop
      vertex -2.5 -2.5 16.5
      vertex -5 0 16.5
      vertex -2.5 -2.5 0
    endloop
  endfacet
  facet normal 0.707107 -0.707107 0
    outer loop
      vertex -2.5 -2.5 16.5
      vertex -2.5 -2.5 0
      vertex 0 0 0
    endloop
  endfacet
  facet normal 0.707107 -0.707107 0
    outer loop
      vertex -9.22623e-16 -9.22623e-16 12.4051
      vertex -2.5 -2.5 16.5
      vertex 0 0 8.25
    endloop
  endfacet
  facet normal 0.707107 -0.707107 0
    outer loop
      vertex 0 0 8.25
      vertex -2.5 -2.5 16.5
      vertex 0 0 0
    endloop
  endfacet
  facet normal 0.707107 -0.707107 0
    outer loop
      vertex 0 0 12.4051
      vertex -2.5 -2.5 16.5
      vertex -9.22623e-16 -9.22623e-16 12.4051
    endloop
  endfacet
  facet normal 0.707107 -0.707107 0
    outer loop
      vertex 0 0 16.5
      vertex -2.5 -2.5 16.5
      vertex 0 0 12.4051
    endloop
  endfacet
  facet normal 1 0 0
    outer loop
      vertex 0 9.22623e-16 4.09488
      vertex 0 0 0
      vertex 0 50 0
    endloop
  endfacet
  facet normal 1 0 0
    outer loop
      vertex 0 30 4.09488
      vertex 0 9.22623e-16 4.09488
      vertex 0 50 0
    endloop
  endfacet
  facet normal 1 0 0
    outer loop
      vertex 0 0 16.5
      vertex 0 0 12.4051
      vertex 0 50 16.5
    endloop
  endfacet
  facet normal 1 0 0
    outer loop
      vertex 0 50 16.5
      vertex 0 30 12.4051
      vertex 0 50 0
    endloop
  endfacet
  facet normal 1 0 0
    outer loop
      vertex 0 30 12.4051
      vertex 0 30 4.09488
      vertex 0 50 0
    endloop
  endfacet
  facet normal 1 0 0
    outer loop
      vertex 0 0 8.25
      vertex 0 0 0
      vertex 0 9.22623e-16 4.09488
    endloop
  endfacet
  facet normal 1 0 0
    outer loop
      vertex 0 0 12.4051
      vertex 0 30 12.4051
      vertex 0 50 16.5
    endloop
  endfacet
  facet normal 0.994512 0.104621 0
    outer loop
      vertex 0 50 0
      vertex -0.257 52.443 0
      vertex -0.257 52.443 16.5
    endloop
  endfacet
  facet normal 0.994512 0.104621 0
    outer loop
      vertex 0 50 16.5
      vertex 0 50 0
      vertex -0.257 52.443 16.5
    endloop
  endfacet
  facet normal 0.951058 0.309012 0
    outer loop
      vertex -0.257 52.443 0
      vertex -1.016 54.779 0
      vertex -1.016 54.779 16.5
    endloop
  endfacet
  facet normal 0.951058 0.309012 0
    outer loop
      vertex -0.257 52.443 16.5
      vertex -0.257 52.443 0
      vertex -1.016 54.779 16.5
    endloop
  endfacet
  facet normal 0.86603 0.499993 0
    outer loop
      vertex -1.016 54.779 0
      vertex -2.244 56.906 0
      vertex -2.244 56.906 16.5
    endloop
  endfacet
  facet normal 0.86603 0.499993 0
    outer loop
      vertex -1.016 54.779 16.5
      vertex -1.016 54.779 0
      vertex -2.244 56.906 16.5
    endloop
  endfacet
  facet normal 0.743173 0.6691 0
    outer loop
      vertex -2.244 56.906 0
      vertex -3.888 58.732 0
      vertex -3.888 58.732 16.5
    endloop
  endfacet
  facet normal 0.743173 0.6691 0
    outer loop
      vertex -2.244 56.906 16.5
      vertex -2.244 56.906 0
      vertex -3.888 58.732 16.5
    endloop
  endfacet
  facet normal 0.587881 0.808947 0
    outer loop
      vertex -5.875 60.176 0
      vertex -5.875 60.176 16.5
      vertex -3.888 58.732 0
    endloop
  endfacet
  facet normal 0.587881 0.808947 0
    outer loop
      vertex -3.888 58.732 0
      vertex -5.875 60.176 16.5
      vertex -3.888 58.732 16.5
    endloop
  endfacet
  facet normal 0.406705 0.91356 0
    outer loop
      vertex -8.119 61.175 0
      vertex -8.119 61.175 16.5
      vertex -5.875 60.176 0
    endloop
  endfacet
  facet normal 0.406705 0.91356 0
    outer loop
      vertex -5.875 60.176 0
      vertex -8.119 61.175 16.5
      vertex -5.875 60.176 16.5
    endloop
  endfacet
  facet normal 0.208 0.978129 0
    outer loop
      vertex -10.522 61.686 0
      vertex -10.522 61.686 16.5
      vertex -8.119 61.175 0
    endloop
  endfacet
  facet normal 0.208 0.978129 0
    outer loop
      vertex -8.119 61.175 0
      vertex -10.522 61.686 16.5
      vertex -8.119 61.175 16.5
    endloop
  endfacet
  facet normal 0 1 0
    outer loop
      vertex -12.978 61.686 0
      vertex -12.978 61.686 16.5
      vertex -10.522 61.686 0
    endloop
  endfacet
  facet normal 0 1 0
    outer loop
      vertex -10.522 61.686 0
      vertex -12.978 61.686 16.5
      vertex -10.522 61.686 16.5
    endloop
  endfacet
  facet normal -0.208 0.978129 0
    outer loop
      vertex -15.381 61.175 0
      vertex -15.381 61.175 16.5
      vertex -12.978 61.686 0
    endloop
  endfacet
  facet normal -0.208 0.978129 0
    outer loop
      vertex -12.978 61.686 0
      vertex -15.381 61.175 16.5
      vertex -12.978 61.686 16.5
    endloop
  endfacet
  facet normal -0.406705 0.91356 0
    outer loop
      vertex -17.625 60.176 0
      vertex -17.625 60.176 16.5
      vertex -15.381 61.175 0
    endloop
  endfacet
  facet normal -0.406705 0.91356 0
    outer loop
      vertex -15.381 61.175 0
      vertex -17.625 60.176 16.5
      vertex -15.381 61.175 16.5
    endloop
  endfacet
  facet normal -0.587881 0.808947 0
    outer loop
      vertex -19.612 58.732 0
      vertex -19.612 58.732 16.5
      vertex -17.625 60.176 0
    endloop
  endfacet
  facet normal -0.587881 0.808947 0
    outer loop
      vertex -17.625 60.176 0
      vertex -19.612 58.732 16.5
      vertex -17.625 60.176 16.5
    endloop
  endfacet
  facet normal -0.743173 0.6691 0
    outer loop
      vertex -21.256 56.906 0
      vertex -21.256 56.906 16.5
      vertex -19.612 58.732 0
    endloop
  endfacet
  facet normal -0.743173 0.6691 0
    outer loop
      vertex -19.612 58.732 0
      vertex -21.256 56.906 16.5
      vertex -19.612 58.732 16.5
    endloop
  endfacet
  facet normal -0.86603 0.499993 0
    outer loop
      vertex -22.484 54.779 0
      vertex -22.484 54.779 16.5
      vertex -21.256 56.906 0
    endloop
  endfacet
  facet normal -0.86603 0.499993 0
    outer loop
      vertex -21.256 56.906 0
      vertex -22.484 54.779 16.5
      vertex -21.256 56.906 16.5
    endloop
  endfacet
  facet normal -0.951058 0.309012 0
    outer loop
      vertex -23.243 52.443 0
      vertex -23.243 52.443 16.5
      vertex -22.484 54.779 0
    endloop
  endfacet
  facet normal -0.951058 0.309012 0
    outer loop
      vertex -22.484 54.779 0
      vertex -23.243 52.443 16.5
      vertex -22.484 54.779 16.5
    endloop
  endfacet
  facet normal -0.82297 -1.2614e-16 0.568085
    outer loop
      vertex -9.22623e-16 -9.22623e-16 12.4051
      vertex 0.908333 -1.21481e-15 13.721
      vertex 0 0 12.4051
    endloop
  endfacet
  facet normal -0.82297 -1.2614e-16 0.568085
    outer loop
      vertex 0 0 12.4051
      vertex 0.908333 -1.21481e-15 13.721
      vertex 0.908333 30 13.721
    endloop
  endfacet
  facet normal -0.82297 -1.2614e-16 0.568085
    outer loop
      vertex 0 0 12.4051
      vertex 0.908333 30 13.721
      vertex 0 30 12.4051
    endloop
  endfacet
  facet normal 0 -1 -2.22045e-16
    outer loop
      vertex 4.44933 -8.95284e-16 12.282
      vertex 5.90133 -1.0365e-15 12.918
      vertex 0.908333 -1.21481e-15 13.721
    endloop
  endfacet
  facet normal 0 -1 -2.22045e-16
    outer loop
      vertex 0.908333 -1.21481e-15 13.721
      vertex -9.22623e-16 -9.22623e-16 12.4051
      vertex 0 0 8.25
    endloop
  endfacet
  facet normal 0 -1 -2.22045e-16
    outer loop
      vertex 0 9.22623e-16 4.09488
      vertex 0.908333 -1.21481e-15 13.721
      vertex 0 0 8.25
    endloop
  endfacet
  facet normal 0 -1 -2.22045e-16
    outer loop
      vertex 0 9.22623e-16 4.09488
      vertex 0.908333 1.21481e-15 2.779
      vertex 0.908333 -1.21481e-15 13.721
    endloop
  endfacet
  facet normal 0 -1 -2.22045e-16
    outer loop
      vertex 0.908333 1.21481e-15 2.779
      vertex 2.39633 1.50768e-15 1.46
      vertex 0.908333 -1.21481e-15 13.721
    endloop
  endfacet
  facet normal 0 -1 -2.22045e-16
    outer loop
      vertex 2.52833 3.47278e-16 6.686
      vertex 2.26733 0 8.25
      vertex 0.908333 -1.21481e-15 13.721
    endloop
  endfacet
  facet normal 0 -1 -2.22045e-16
    outer loop
      vertex 11.5043 -3.88578e-16 10
      vertex 15.1203 -3.88578e-16 10
      vertex 11.3183 -5.08926e-16 10.542
    endloop
  endfacet
  facet normal 0 -1 -2.22045e-16
    outer loop
      vertex 11.5043 3.88578e-16 6.5
      vertex 11.3183 5.08926e-16 5.958
      vertex 14.3883 8.51319e-16 4.416
    endloop
  endfacet
  facet normal 0 -1 -2.22045e-16
    outer loop
      vertex 11.3183 5.08926e-16 5.958
      vertex 10.3453 7.86704e-16 4.707
      vertex 13.2583 1.21481e-15 2.779
    endloop
  endfacet
  facet normal 0 -1 -2.22045e-16
    outer loop
      vertex 14.3883 8.51319e-16 4.416
      vertex 15.0933 4.38316e-16 6.276
      vertex 11.5043 3.88578e-16 6.5
    endloop
  endfacet
  facet normal 0 -1 -2.22045e-16
    outer loop
      vertex 13.2583 1.21481e-15 2.779
      vertex 14.3883 8.51319e-16 4.416
      vertex 11.3183 5.08926e-16 5.958
    endloop
  endfacet
  facet normal 0 -1 -2.22045e-16
    outer loop
      vertex 11.7703 1.50768e-15 1.46
      vertex 13.2583 1.21481e-15 2.779
      vertex 10.3453 7.86704e-16 4.707
    endloop
  endfacet
  facet normal 0 -1 -2.22045e-16
    outer loop
      vertex 7.48133 1.06559e-15 3.451
      vertex 5.90133 1.0365e-15 3.582
      vertex 8.07733 1.81855e-15 0.06
    endloop
  endfacet
  facet normal 0 -1 -2.22045e-16
    outer loop
      vertex 10.0083 1.71285e-15 0.536
      vertex 11.7703 1.50768e-15 1.46
      vertex 9.01733 9.79217e-16 3.84
    endloop
  endfacet
  facet normal 0 -1 -2.22045e-16
    outer loop
      vertex 8.07733 1.81855e-15 0.06
      vertex 10.0083 1.71285e-15 0.536
      vertex 7.48133 1.06559e-15 3.451
    endloop
  endfacet
  facet normal 0 -1 -2.22045e-16
    outer loop
      vertex 6.08933 1.81855e-15 0.06
      vertex 8.07733 1.81855e-15 0.06
      vertex 5.90133 1.0365e-15 3.582
    endloop
  endfacet
  facet normal 0 -1 -2.22045e-16
    outer loop
      vertex 4.15833 1.71285e-15 0.536
      vertex 6.08933 1.81855e-15 0.06
      vertex 4.44933 8.95284e-16 4.218
    endloop
  endfacet
  facet normal 0 -1 -2.22045e-16
    outer loop
      vertex 4.15833 1.71285e-15 0.536
      vertex 4.44933 8.95284e-16 4.218
      vertex 3.28333 6.56808e-16 5.292
    endloop
  endfacet
  facet normal 0 -1 -2.22045e-16
    outer loop
      vertex 2.39633 1.50768e-15 1.46
      vertex 2.52833 3.47278e-16 6.686
      vertex 0.908333 -1.21481e-15 13.721
    endloop
  endfacet
  facet normal 0 -1 -2.22045e-16
    outer loop
      vertex 2.39633 1.50768e-15 1.46
      vertex 4.15833 1.71285e-15 0.536
      vertex 2.52833 3.47278e-16 6.686
    endloop
  endfacet
  facet normal 0 -1 -2.22045e-16
    outer loop
      vertex 2.26733 0 8.25
      vertex 2.52833 -3.47278e-16 9.814
      vertex 0.908333 -1.21481e-15 13.721
    endloop
  endfacet
  facet normal 0 -1 -2.22045e-16
    outer loop
      vertex 3.28333 6.56808e-16 5.292
      vertex 2.52833 3.47278e-16 6.686
      vertex 4.15833 1.71285e-15 0.536
    endloop
  endfacet
  facet normal 0 -1 -2.22045e-16
    outer loop
      vertex 9.01733 9.79217e-16 3.84
      vertex 7.48133 1.06559e-15 3.451
      vertex 10.0083 1.71285e-15 0.536
    endloop
  endfacet
  facet normal 0 -1 -2.22045e-16
    outer loop
      vertex 5.90133 1.0365e-15 3.582
      vertex 4.44933 8.95284e-16 4.218
      vertex 6.08933 1.81855e-15 0.06
    endloop
  endfacet
  facet normal 0 -1 -2.22045e-16
    outer loop
      vertex 5.90133 -1.0365e-15 12.918
      vertex 7.48133 -1.06559e-15 13.049
      vertex 0.908333 -1.21481e-15 13.721
    endloop
  endfacet
  facet normal 0 -1 -2.22045e-16
    outer loop
      vertex 7.48133 -1.06559e-15 13.049
      vertex 13.2583 -1.21481e-15 13.721
      vertex 0.908333 -1.21481e-15 13.721
    endloop
  endfacet
  facet normal 0 -1 -2.22045e-16
    outer loop
      vertex 9.01733 -9.79217e-16 12.66
      vertex 14.3883 -8.51319e-16 12.084
      vertex 7.48133 -1.06559e-15 13.049
    endloop
  endfacet
  facet normal 0 -1 -2.22045e-16
    outer loop
      vertex 10.3453 -7.86704e-16 11.793
      vertex 15.1203 -3.88578e-16 10
      vertex 9.01733 -9.79217e-16 12.66
    endloop
  endfacet
  facet normal 0 -1 -2.22045e-16
    outer loop
      vertex 11.3183 -5.08926e-16 10.542
      vertex 15.1203 -3.88578e-16 10
      vertex 10.3453 -7.86704e-16 11.793
    endloop
  endfacet
  facet normal 0 -1 -2.22045e-16
    outer loop
      vertex 15.1203 -3.88578e-16 10
      vertex 15.0933 -4.38316e-16 10.224
      vertex 9.01733 -9.79217e-16 12.66
    endloop
  endfacet
  facet normal 0 -1 -2.22045e-16
    outer loop
      vertex 15.0933 -4.38316e-16 10.224
      vertex 14.3883 -8.51319e-16 12.084
      vertex 9.01733 -9.79217e-16 12.66
    endloop
  endfacet
  facet normal 0 -1 -2.22045e-16
    outer loop
      vertex 14.3883 -8.51319e-16 12.084
      vertex 13.2583 -1.21481e-15 13.721
      vertex 7.48133 -1.06559e-15 13.049
    endloop
  endfacet
  facet normal 0 -1 -2.22045e-16
    outer loop
      vertex 13.2583 -1.21481e-15 13.721
      vertex 11.7703 -1.50768e-15 15.04
      vertex 0.908333 -1.21481e-15 13.721
    endloop
  endfacet
  facet normal 0 -1 -2.22045e-16
    outer loop
      vertex 11.7703 -1.50768e-15 15.04
      vertex 10.0083 -1.71285e-15 15.964
      vertex 0.908333 -1.21481e-15 13.721
    endloop
  endfacet
  facet normal 0 -1 -2.22045e-16
    outer loop
      vertex 10.0083 -1.71285e-15 15.964
      vertex 8.07733 -1.81855e-15 16.44
      vertex 0.908333 -1.21481e-15 13.721
    endloop
  endfacet
  facet normal 0 -1 -2.22045e-16
    outer loop
      vertex 8.07733 -1.81855e-15 16.44
      vertex 6.08933 -1.81855e-15 16.44
      vertex 0.908333 -1.21481e-15 13.721
    endloop
  endfacet
  facet normal 0 -1 -2.22045e-16
    outer loop
      vertex 6.08933 -1.81855e-15 16.44
      vertex 4.15833 -1.71285e-15 15.964
      vertex 0.908333 -1.21481e-15 13.721
    endloop
  endfacet
  facet normal 0 -1 -2.22045e-16
    outer loop
      vertex 4.15833 -1.71285e-15 15.964
      vertex 2.39633 -1.50768e-15 15.04
      vertex 0.908333 -1.21481e-15 13.721
    endloop
  endfacet
  facet normal 0 -1 -2.22045e-16
    outer loop
      vertex 15.1203 3.88578e-16 6.5
      vertex 11.5043 3.88578e-16 6.5
      vertex 15.0933 4.38316e-16 6.276
    endloop
  endfacet
  facet normal 0 -1 -2.22045e-16
    outer loop
      vertex 10.3453 7.86704e-16 4.707
      vertex 9.01733 9.79217e-16 3.84
      vertex 11.7703 1.50768e-15 1.46
    endloop
  endfacet
  facet normal 0 -1 -2.22045e-16
    outer loop
      vertex 2.52833 -3.47278e-16 9.814
      vertex 3.28333 -6.56808e-16 11.208
      vertex 0.908333 -1.21481e-15 13.721
    endloop
  endfacet
  facet normal 0 -1 -2.22045e-16
    outer loop
      vertex 3.28333 -6.56808e-16 11.208
      vertex 4.44933 -8.95284e-16 12.282
      vertex 0.908333 -1.21481e-15 13.721
    endloop
  endfacet
  facet normal -0.82297 1.2614e-16 -0.568085
    outer loop
      vertex 0 9.22623e-16 4.09488
      vertex 0 30 4.09488
      vertex 0.908333 1.21481e-15 2.779
    endloop
  endfacet
  facet normal -0.82297 1.2614e-16 -0.568085
    outer loop
      vertex 0.908333 1.21481e-15 2.779
      vertex 0 30 4.09488
      vertex 0.908333 30 2.779
    endloop
  endfacet
  facet normal 0 1 2.22045e-16
    outer loop
      vertex 0 30 12.4051
      vertex 0.908333 30 13.721
      vertex 0 30 4.09488
    endloop
  endfacet
  facet normal 0 1 2.22045e-16
    outer loop
      vertex 0 30 4.09488
      vertex 0.908333 30 13.721
      vertex 2.39633 30 15.04
    endloop
  endfacet
  facet normal 0 1 2.22045e-16
    outer loop
      vertex 0 30 4.09488
      vertex 2.39633 30 15.04
      vertex 4.15833 30 15.964
    endloop
  endfacet
  facet normal 0 1 2.22045e-16
    outer loop
      vertex 3.28333 30 11.208
      vertex 4.15833 30 15.964
      vertex 6.08933 30 16.44
    endloop
  endfacet
  facet normal 0 1 2.22045e-16
    outer loop
      vertex 4.44933 30 12.282
      vertex 6.08933 30 16.44
      vertex 8.07733 30 16.44
    endloop
  endfacet
  facet normal 0 1 2.22045e-16
    outer loop
      vertex 7.48133 30 13.049
      vertex 8.07733 30 16.44
      vertex 10.0083 30 15.964
    endloop
  endfacet
  facet normal 0 1 2.22045e-16
    outer loop
      vertex 9.01733 30 12.66
      vertex 10.0083 30 15.964
      vertex 11.7703 30 15.04
    endloop
  endfacet
  facet normal 0 1 2.22045e-16
    outer loop
      vertex 10.3453 30 11.793
      vertex 11.7703 30 15.04
      vertex 13.2583 30 13.721
    endloop
  endfacet
  facet normal 0 1 2.22045e-16
    outer loop
      vertex 11.3183 30 10.542
      vertex 13.2583 30 13.721
      vertex 14.3883 30 12.084
    endloop
  endfacet
  facet normal 0 1 2.22045e-16
    outer loop
      vertex 11.5043 30 10
      vertex 14.3883 30 12.084
      vertex 15.0933 30 10.224
    endloop
  endfacet
  facet normal 0 1 2.22045e-16
    outer loop
      vertex 11.3183 30 10.542
      vertex 14.3883 30 12.084
      vertex 11.5043 30 10
    endloop
  endfacet
  facet normal 0 1 2.22045e-16
    outer loop
      vertex 10.3453 30 11.793
      vertex 13.2583 30 13.721
      vertex 11.3183 30 10.542
    endloop
  endfacet
  facet normal 0 1 2.22045e-16
    outer loop
      vertex 3.28333 30 5.292
      vertex 0 30 4.09488
      vertex 2.52833 30 6.686
    endloop
  endfacet
  facet normal 0 1 2.22045e-16
    outer loop
      vertex 9.01733 30 12.66
      vertex 11.7703 30 15.04
      vertex 10.3453 30 11.793
    endloop
  endfacet
  facet normal 0 1 2.22045e-16
    outer loop
      vertex 7.48133 30 13.049
      vertex 10.0083 30 15.964
      vertex 9.01733 30 12.66
    endloop
  endfacet
  facet normal 0 1 2.22045e-16
    outer loop
      vertex 5.90133 30 12.918
      vertex 8.07733 30 16.44
      vertex 7.48133 30 13.049
    endloop
  endfacet
  facet normal 0 1 2.22045e-16
    outer loop
      vertex 4.44933 30 12.282
      vertex 8.07733 30 16.44
      vertex 5.90133 30 12.918
    endloop
  endfacet
  facet normal 0 1 2.22045e-16
    outer loop
      vertex 3.28333 30 11.208
      vertex 6.08933 30 16.44
      vertex 4.44933 30 12.282
    endloop
  endfacet
  facet normal 0 1 2.22045e-16
    outer loop
      vertex 2.52833 30 9.814
      vertex 4.15833 30 15.964
      vertex 3.28333 30 11.208
    endloop
  endfacet
  facet normal 0 1 2.22045e-16
    outer loop
      vertex 2.26733 30 8.25
      vertex 0 30 4.09488
      vertex 2.52833 30 9.814
    endloop
  endfacet
  facet normal 0 1 2.22045e-16
    outer loop
      vertex 0 30 4.09488
      vertex 4.15833 30 15.964
      vertex 2.52833 30 9.814
    endloop
  endfacet
  facet normal 0 1 2.22045e-16
    outer loop
      vertex 2.52833 30 6.686
      vertex 0 30 4.09488
      vertex 2.26733 30 8.25
    endloop
  endfacet
  facet normal 0 1 2.22045e-16
    outer loop
      vertex 0 30 4.09488
      vertex 3.28333 30 5.292
      vertex 4.44933 30 4.218
    endloop
  endfacet
  facet normal 0 1 2.22045e-16
    outer loop
      vertex 4.44933 30 4.218
      vertex 5.90133 30 3.582
      vertex 0 30 4.09488
    endloop
  endfacet
  facet normal 0 1 2.22045e-16
    outer loop
      vertex 5.90133 30 3.582
      vertex 13.2583 30 2.779
      vertex 0 30 4.09488
    endloop
  endfacet
  facet normal 0 1 2.22045e-16
    outer loop
      vertex 15.1203 30 6.5
      vertex 10.3453 30 4.707
      vertex 11.3183 30 5.958
    endloop
  endfacet
  facet normal 0 1 2.22045e-16
    outer loop
      vertex 15.1203 30 6.5
      vertex 11.3183 30 5.958
      vertex 11.5043 30 6.5
    endloop
  endfacet
  facet normal 0 1 2.22045e-16
    outer loop
      vertex 10.3453 30 4.707
      vertex 15.1203 30 6.5
      vertex 9.01733 30 3.84
    endloop
  endfacet
  facet normal 0 1 2.22045e-16
    outer loop
      vertex 9.01733 30 3.84
      vertex 15.1203 30 6.5
      vertex 15.0933 30 6.276
    endloop
  endfacet
  facet normal 0 1 2.22045e-16
    outer loop
      vertex 9.01733 30 3.84
      vertex 15.0933 30 6.276
      vertex 14.3883 30 4.416
    endloop
  endfacet
  facet normal 0 1 2.22045e-16
    outer loop
      vertex 9.01733 30 3.84
      vertex 14.3883 30 4.416
      vertex 7.48133 30 3.451
    endloop
  endfacet
  facet normal 0 1 2.22045e-16
    outer loop
      vertex 7.48133 30 3.451
      vertex 14.3883 30 4.416
      vertex 13.2583 30 2.779
    endloop
  endfacet
  facet normal 0 1 2.22045e-16
    outer loop
      vertex 7.48133 30 3.451
      vertex 13.2583 30 2.779
      vertex 5.90133 30 3.582
    endloop
  endfacet
  facet normal 0 1 2.22045e-16
    outer loop
      vertex 0 30 4.09488
      vertex 13.2583 30 2.779
      vertex 11.7703 30 1.46
    endloop
  endfacet
  facet normal 0 1 2.22045e-16
    outer loop
      vertex 0 30 4.09488
      vertex 11.7703 30 1.46
      vertex 10.0083 30 0.536
    endloop
  endfacet
  facet normal 0 1 2.22045e-16
    outer loop
      vertex 0 30 4.09488
      vertex 10.0083 30 0.536
      vertex 8.07733 30 0.06
    endloop
  endfacet
  facet normal 0 1 2.22045e-16
    outer loop
      vertex 0 30 4.09488
      vertex 8.07733 30 0.06
      vertex 6.08933 30 0.06
    endloop
  endfacet
  facet normal 0 1 2.22045e-16
    outer loop
      vertex 0 30 4.09488
      vertex 6.08933 30 0.06
      vertex 4.15833 30 0.536
    endloop
  endfacet
  facet normal 0 1 2.22045e-16
    outer loop
      vertex 0 30 4.09488
      vertex 4.15833 30 0.536
      vertex 2.39633 30 1.46
    endloop
  endfacet
  facet normal 0 1 2.22045e-16
    outer loop
      vertex 0 30 4.09488
      vertex 2.39633 30 1.46
      vertex 0.908333 30 2.779
    endloop
  endfacet
  facet normal 0 1 2.22045e-16
    outer loop
      vertex 11.5043 30 10
      vertex 15.0933 30 10.224
      vertex 15.1203 30 10
    endloop
  endfacet
  facet normal -0.663333 -1.66161e-16 0.748324
    outer loop
      vertex 0.908333 30 13.721
      vertex 0.908333 -1.21481e-15 13.721
      vertex 2.39633 -1.50768e-15 15.04
    endloop
  endfacet
  facet normal -0.663333 -1.66161e-16 0.748324
    outer loop
      vertex 2.39633 30 15.04
      vertex 0.908333 30 13.721
      vertex 2.39633 -1.50768e-15 15.04
    endloop
  endfacet
  facet normal -0.46442 -1.96646e-16 0.885615
    outer loop
      vertex 2.39633 30 15.04
      vertex 2.39633 -1.50768e-15 15.04
      vertex 4.15833 -1.71285e-15 15.964
    endloop
  endfacet
  facet normal -0.46442 -1.96646e-16 0.885615
    outer loop
      vertex 4.15833 30 15.964
      vertex 2.39633 30 15.04
      vertex 4.15833 -1.71285e-15 15.964
    endloop
  endfacet
  facet normal -0.23934 -2.15591e-16 0.970936
    outer loop
      vertex 4.15833 30 15.964
      vertex 4.15833 -1.71285e-15 15.964
      vertex 6.08933 -1.81855e-15 16.44
    endloop
  endfacet
  facet normal -0.23934 -2.15591e-16 0.970936
    outer loop
      vertex 6.08933 30 16.44
      vertex 4.15833 30 15.964
      vertex 6.08933 -1.81855e-15 16.44
    endloop
  endfacet
  facet normal 0 -2.22045e-16 1
    outer loop
      vertex 6.08933 30 16.44
      vertex 6.08933 -1.81855e-15 16.44
      vertex 8.07733 -1.81855e-15 16.44
    endloop
  endfacet
  facet normal 0 -2.22045e-16 1
    outer loop
      vertex 8.07733 30 16.44
      vertex 6.08933 30 16.44
      vertex 8.07733 -1.81855e-15 16.44
    endloop
  endfacet
  facet normal 0.23934 -2.15591e-16 0.970936
    outer loop
      vertex 8.07733 30 16.44
      vertex 8.07733 -1.81855e-15 16.44
      vertex 10.0083 -1.71285e-15 15.964
    endloop
  endfacet
  facet normal 0.23934 -2.15591e-16 0.970936
    outer loop
      vertex 10.0083 30 15.964
      vertex 8.07733 30 16.44
      vertex 10.0083 -1.71285e-15 15.964
    endloop
  endfacet
  facet normal 0.46442 -1.96646e-16 0.885615
    outer loop
      vertex 10.0083 30 15.964
      vertex 10.0083 -1.71285e-15 15.964
      vertex 11.7703 -1.50768e-15 15.04
    endloop
  endfacet
  facet normal 0.46442 -1.96646e-16 0.885615
    outer loop
      vertex 11.7703 30 15.04
      vertex 10.0083 30 15.964
      vertex 11.7703 -1.50768e-15 15.04
    endloop
  endfacet
  facet normal 0.663333 -1.66161e-16 0.748324
    outer loop
      vertex 11.7703 30 15.04
      vertex 11.7703 -1.50768e-15 15.04
      vertex 13.2583 -1.21481e-15 13.721
    endloop
  endfacet
  facet normal 0.663333 -1.66161e-16 0.748324
    outer loop
      vertex 13.2583 30 13.721
      vertex 11.7703 30 15.04
      vertex 13.2583 -1.21481e-15 13.721
    endloop
  endfacet
  facet normal 0.82297 -1.2614e-16 0.568085
    outer loop
      vertex 13.2583 30 13.721
      vertex 13.2583 -1.21481e-15 13.721
      vertex 14.3883 -8.51319e-16 12.084
    endloop
  endfacet
  facet normal 0.82297 -1.2614e-16 0.568085
    outer loop
      vertex 14.3883 30 12.084
      vertex 13.2583 30 13.721
      vertex 14.3883 -8.51319e-16 12.084
    endloop
  endfacet
  facet normal 0.935084 -7.86986e-17 0.354427
    outer loop
      vertex 14.3883 30 12.084
      vertex 14.3883 -8.51319e-16 12.084
      vertex 15.0933 -4.38316e-16 10.224
    endloop
  endfacet
  facet normal 0.935084 -7.86986e-17 0.354427
    outer loop
      vertex 15.0933 30 10.224
      vertex 14.3883 30 12.084
      vertex 15.0933 -4.38316e-16 10.224
    endloop
  endfacet
  facet normal 0.992814 -2.6572e-17 0.11967
    outer loop
      vertex 15.0933 30 10.224
      vertex 15.0933 -4.38316e-16 10.224
      vertex 15.1203 -3.88578e-16 10
    endloop
  endfacet
  facet normal 0.992814 -2.6572e-17 0.11967
    outer loop
      vertex 15.1203 30 10
      vertex 15.0933 30 10.224
      vertex 15.1203 -3.88578e-16 10
    endloop
  endfacet
  facet normal 0 2.22045e-16 -1
    outer loop
      vertex 11.5043 -3.88578e-16 10
      vertex 11.5043 30 10
      vertex 15.1203 -3.88578e-16 10
    endloop
  endfacet
  facet normal 0 2.22045e-16 -1
    outer loop
      vertex 15.1203 -3.88578e-16 10
      vertex 11.5043 30 10
      vertex 15.1203 30 10
    endloop
  endfacet
  facet normal -0.945854 7.20739e-17 -0.324592
    outer loop
      vertex 11.3183 -5.08926e-16 10.542
      vertex 11.3183 30 10.542
      vertex 11.5043 -3.88578e-16 10
    endloop
  endfacet
  facet normal -0.945854 7.20739e-17 -0.324592
    outer loop
      vertex 11.5043 -3.88578e-16 10
      vertex 11.3183 30 10.542
      vertex 11.5043 30 10
    endloop
  endfacet
  facet normal -0.789352 1.36322e-16 -0.613941
    outer loop
      vertex 10.3453 -7.86704e-16 11.793
      vertex 10.3453 30 11.793
      vertex 11.3183 -5.08926e-16 10.542
    endloop
  endfacet
  facet normal -0.789352 1.36322e-16 -0.613941
    outer loop
      vertex 11.3183 -5.08926e-16 10.542
      vertex 10.3453 30 11.793
      vertex 11.3183 30 10.542
    endloop
  endfacet
  facet normal -0.546672 1.85928e-16 -0.837347
    outer loop
      vertex 9.01733 -9.79217e-16 12.66
      vertex 9.01733 30 12.66
      vertex 10.3453 -7.86704e-16 11.793
    endloop
  endfacet
  facet normal -0.546672 1.85928e-16 -0.837347
    outer loop
      vertex 10.3453 -7.86704e-16 11.793
      vertex 9.01733 30 12.66
      vertex 10.3453 30 11.793
    endloop
  endfacet
  facet normal -0.245504 2.15249e-16 -0.969395
    outer loop
      vertex 7.48133 -1.06559e-15 13.049
      vertex 7.48133 30 13.049
      vertex 9.01733 -9.79217e-16 12.66
    endloop
  endfacet
  facet normal -0.245504 2.15249e-16 -0.969395
    outer loop
      vertex 9.01733 -9.79217e-16 12.66
      vertex 7.48133 30 13.049
      vertex 9.01733 30 12.66
    endloop
  endfacet
  facet normal 0.0826279 2.21285e-16 -0.99658
    outer loop
      vertex 5.90133 -1.0365e-15 12.918
      vertex 5.90133 30 12.918
      vertex 7.48133 -1.06559e-15 13.049
    endloop
  endfacet
  facet normal 0.0826279 2.21285e-16 -0.99658
    outer loop
      vertex 7.48133 -1.06559e-15 13.049
      vertex 5.90133 30 12.918
      vertex 7.48133 30 13.049
    endloop
  endfacet
  facet normal 0.401216 2.03389e-16 -0.915984
    outer loop
      vertex 4.44933 -8.95284e-16 12.282
      vertex 4.44933 30 12.282
      vertex 5.90133 -1.0365e-15 12.918
    endloop
  endfacet
  facet normal 0.401216 2.03389e-16 -0.915984
    outer loop
      vertex 5.90133 -1.0365e-15 12.918
      vertex 4.44933 30 12.282
      vertex 5.90133 30 12.918
    endloop
  endfacet
  facet normal 0.677494 1.6332e-16 -0.735529
    outer loop
      vertex 3.28333 -6.56808e-16 11.208
      vertex 3.28333 30 11.208
      vertex 4.44933 -8.95284e-16 12.282
    endloop
  endfacet
  facet normal 0.677494 1.6332e-16 -0.735529
    outer loop
      vertex 4.44933 -8.95284e-16 12.282
      vertex 3.28333 30 11.208
      vertex 4.44933 30 12.282
    endloop
  endfacet
  facet normal 0.879314 1.05747e-16 -0.476243
    outer loop
      vertex 3.28333 -6.56808e-16 11.208
      vertex 2.52833 -3.47278e-16 9.814
      vertex 2.52833 30 9.814
    endloop
  endfacet
  facet normal 0.879314 1.05747e-16 -0.476243
    outer loop
      vertex 3.28333 30 11.208
      vertex 3.28333 -6.56808e-16 11.208
      vertex 2.52833 30 9.814
    endloop
  endfacet
  facet normal 0.98636 3.65493e-17 -0.164604
    outer loop
      vertex 2.52833 -3.47278e-16 9.814
      vertex 2.26733 0 8.25
      vertex 2.26733 30 8.25
    endloop
  endfacet
  facet normal 0.98636 3.65493e-17 -0.164604
    outer loop
      vertex 2.52833 30 9.814
      vertex 2.52833 -3.47278e-16 9.814
      vertex 2.26733 30 8.25
    endloop
  endfacet
  facet normal 0.98636 -3.65493e-17 0.164604
    outer loop
      vertex 2.26733 30 8.25
      vertex 2.26733 0 8.25
      vertex 2.52833 3.47278e-16 6.686
    endloop
  endfacet
  facet normal 0.98636 -3.65493e-17 0.164604
    outer loop
      vertex 2.52833 30 6.686
      vertex 2.26733 30 8.25
      vertex 2.52833 3.47278e-16 6.686
    endloop
  endfacet
  facet normal 0.879314 -1.05747e-16 0.476243
    outer loop
      vertex 2.52833 30 6.686
      vertex 2.52833 3.47278e-16 6.686
      vertex 3.28333 6.56808e-16 5.292
    endloop
  endfacet
  facet normal 0.879314 -1.05747e-16 0.476243
    outer loop
      vertex 3.28333 30 5.292
      vertex 2.52833 30 6.686
      vertex 3.28333 6.56808e-16 5.292
    endloop
  endfacet
  facet normal 0.677494 -1.6332e-16 0.735529
    outer loop
      vertex 3.28333 30 5.292
      vertex 3.28333 6.56808e-16 5.292
      vertex 4.44933 8.95284e-16 4.218
    endloop
  endfacet
  facet normal 0.677494 -1.6332e-16 0.735529
    outer loop
      vertex 4.44933 30 4.218
      vertex 3.28333 30 5.292
      vertex 4.44933 8.95284e-16 4.218
    endloop
  endfacet
  facet normal 0.401216 -2.03389e-16 0.915984
    outer loop
      vertex 4.44933 30 4.218
      vertex 4.44933 8.95284e-16 4.218
      vertex 5.90133 1.0365e-15 3.582
    endloop
  endfacet
  facet normal 0.401216 -2.03389e-16 0.915984
    outer loop
      vertex 5.90133 30 3.582
      vertex 4.44933 30 4.218
      vertex 5.90133 1.0365e-15 3.582
    endloop
  endfacet
  facet normal 0.0826279 -2.21285e-16 0.99658
    outer loop
      vertex 5.90133 30 3.582
      vertex 5.90133 1.0365e-15 3.582
      vertex 7.48133 1.06559e-15 3.451
    endloop
  endfacet
  facet normal 0.0826279 -2.21285e-16 0.99658
    outer loop
      vertex 7.48133 30 3.451
      vertex 5.90133 30 3.582
      vertex 7.48133 1.06559e-15 3.451
    endloop
  endfacet
  facet normal -0.245504 -2.15249e-16 0.969395
    outer loop
      vertex 7.48133 30 3.451
      vertex 7.48133 1.06559e-15 3.451
      vertex 9.01733 9.79217e-16 3.84
    endloop
  endfacet
  facet normal -0.245504 -2.15249e-16 0.969395
    outer loop
      vertex 9.01733 30 3.84
      vertex 7.48133 30 3.451
      vertex 9.01733 9.79217e-16 3.84
    endloop
  endfacet
  facet normal -0.546672 -1.85928e-16 0.837347
    outer loop
      vertex 9.01733 30 3.84
      vertex 9.01733 9.79217e-16 3.84
      vertex 10.3453 7.86704e-16 4.707
    endloop
  endfacet
  facet normal -0.546672 -1.85928e-16 0.837347
    outer loop
      vertex 10.3453 30 4.707
      vertex 9.01733 30 3.84
      vertex 10.3453 7.86704e-16 4.707
    endloop
  endfacet
  facet normal -0.789352 -1.36322e-16 0.613941
    outer loop
      vertex 10.3453 7.86704e-16 4.707
      vertex 11.3183 5.08926e-16 5.958
      vertex 10.3453 30 4.707
    endloop
  endfacet
  facet normal -0.789352 -1.36322e-16 0.613941
    outer loop
      vertex 10.3453 30 4.707
      vertex 11.3183 5.08926e-16 5.958
      vertex 11.3183 30 5.958
    endloop
  endfacet
  facet normal -0.945854 -7.20739e-17 0.324592
    outer loop
      vertex 11.3183 5.08926e-16 5.958
      vertex 11.5043 3.88578e-16 6.5
      vertex 11.3183 30 5.958
    endloop
  endfacet
  facet normal -0.945854 -7.20739e-17 0.324592
    outer loop
      vertex 11.3183 30 5.958
      vertex 11.5043 3.88578e-16 6.5
      vertex 11.5043 30 6.5
    endloop
  endfacet
  facet normal 0 -2.22045e-16 1
    outer loop
      vertex 11.5043 30 6.5
      vertex 11.5043 3.88578e-16 6.5
      vertex 15.1203 3.88578e-16 6.5
    endloop
  endfacet
  facet normal 0 -2.22045e-16 1
    outer loop
      vertex 15.1203 30 6.5
      vertex 11.5043 30 6.5
      vertex 15.1203 3.88578e-16 6.5
    endloop
  endfacet
  facet normal 0.992814 2.6572e-17 -0.11967
    outer loop
      vertex 15.1203 3.88578e-16 6.5
      vertex 15.0933 4.38316e-16 6.276
      vertex 15.0933 30 6.276
    endloop
  endfacet
  facet normal 0.992814 2.6572e-17 -0.11967
    outer loop
      vertex 15.1203 30 6.5
      vertex 15.1203 3.88578e-16 6.5
      vertex 15.0933 30 6.276
    endloop
  endfacet
  facet normal 0.935084 7.86986e-17 -0.354427
    outer loop
      vertex 15.0933 4.38316e-16 6.276
      vertex 14.3883 8.51319e-16 4.416
      vertex 14.3883 30 4.416
    endloop
  endfacet
  facet normal 0.935084 7.86986e-17 -0.354427
    outer loop
      vertex 15.0933 30 6.276
      vertex 15.0933 4.38316e-16 6.276
      vertex 14.3883 30 4.416
    endloop
  endfacet
  facet normal 0.82297 1.2614e-16 -0.568085
    outer loop
      vertex 14.3883 8.51319e-16 4.416
      vertex 13.2583 1.21481e-15 2.779
      vertex 13.2583 30 2.779
    endloop
  endfacet
  facet normal 0.82297 1.2614e-16 -0.568085
    outer loop
      vertex 14.3883 30 4.416
      vertex 14.3883 8.51319e-16 4.416
      vertex 13.2583 30 2.779
    endloop
  endfacet
  facet normal 0.663333 1.66161e-16 -0.748324
    outer loop
      vertex 11.7703 1.50768e-15 1.46
      vertex 11.7703 30 1.46
      vertex 13.2583 1.21481e-15 2.779
    endloop
  endfacet
  facet normal 0.663333 1.66161e-16 -0.748324
    outer loop
      vertex 13.2583 1.21481e-15 2.779
      vertex 11.7703 30 1.46
      vertex 13.2583 30 2.779
    endloop
  endfacet
  facet normal 0.46442 1.96646e-16 -0.885615
    outer loop
      vertex 10.0083 1.71285e-15 0.536
      vertex 10.0083 30 0.536
      vertex 11.7703 1.50768e-15 1.46
    endloop
  endfacet
  facet normal 0.46442 1.96646e-16 -0.885615
    outer loop
      vertex 11.7703 1.50768e-15 1.46
      vertex 10.0083 30 0.536
      vertex 11.7703 30 1.46
    endloop
  endfacet
  facet normal 0.23934 2.15591e-16 -0.970936
    outer loop
      vertex 8.07733 1.81855e-15 0.06
      vertex 8.07733 30 0.06
      vertex 10.0083 1.71285e-15 0.536
    endloop
  endfacet
  facet normal 0.23934 2.15591e-16 -0.970936
    outer loop
      vertex 10.0083 1.71285e-15 0.536
      vertex 8.07733 30 0.06
      vertex 10.0083 30 0.536
    endloop
  endfacet
  facet normal 0 2.22045e-16 -1
    outer loop
      vertex 6.08933 1.81855e-15 0.06
      vertex 6.08933 30 0.06
      vertex 8.07733 1.81855e-15 0.06
    endloop
  endfacet
  facet normal 0 2.22045e-16 -1
    outer loop
      vertex 8.07733 1.81855e-15 0.06
      vertex 6.08933 30 0.06
      vertex 8.07733 30 0.06
    endloop
  endfacet
  facet normal -0.23934 2.15591e-16 -0.970936
    outer loop
      vertex 4.15833 1.71285e-15 0.536
      vertex 4.15833 30 0.536
      vertex 6.08933 1.81855e-15 0.06
    endloop
  endfacet
  facet normal -0.23934 2.15591e-16 -0.970936
    outer loop
      vertex 6.08933 1.81855e-15 0.06
      vertex 4.15833 30 0.536
      vertex 6.08933 30 0.06
    endloop
  endfacet
  facet normal -0.46442 1.96646e-16 -0.885615
    outer loop
      vertex 2.39633 1.50768e-15 1.46
      vertex 2.39633 30 1.46
      vertex 4.15833 1.71285e-15 0.536
    endloop
  endfacet
  facet normal -0.46442 1.96646e-16 -0.885615
    outer loop
      vertex 4.15833 1.71285e-15 0.536
      vertex 2.39633 30 1.46
      vertex 4.15833 30 0.536
    endloop
  endfacet
  facet normal -0.663333 1.66161e-16 -0.748324
    outer loop
      vertex 0.908333 1.21481e-15 2.779
      vertex 0.908333 30 2.779
      vertex 2.39633 1.50768e-15 1.46
    endloop
  endfacet
  facet normal -0.663333 1.66161e-16 -0.748324
    outer loop
      vertex 2.39633 1.50768e-15 1.46
      vertex 0.908333 30 2.779
      vertex 2.39633 30 1.46
    endloop
  endfacet
endsolid OpenSCAD_Model
