solid OpenSCAD_Model
  facet normal 0 0 -1
    outer loop
      vertex -9.09636 -0.989289 0
      vertex -9.09636 0.989289 0
      vertex -8.67103 -2.92161 0
    endloop
  endfacet
  facet normal 0 0 -1
    outer loop
      vertex -8.67103 -2.92161 0
      vertex -9.09636 0.989289 0
      vertex -8.67103 2.92161 0
    endloop
  endfacet
  facet normal 0 0 -1
    outer loop
      vertex -8.67103 -2.92161 0
      vertex -8.67103 2.92161 0
      vertex -7.84024 4.71732 0
    endloop
  endfacet
  facet normal 0 0 -1
    outer loop
      vertex -8.67103 -2.92161 0
      vertex -7.84024 4.71732 0
      vertex -6.64286 6.29245 0
    endloop
  endfacet
  facet normal 0 0 -1
    outer loop
      vertex -8.67103 -2.92161 0
      vertex -6.64286 6.29245 0
      vertex -5.13486 7.57335 0
    endloop
  endfacet
  facet normal 0 0 -1
    outer loop
      vertex -8.67103 -2.92161 0
      vertex -5.13486 7.57335 0
      vertex -3.38676 8.50014 0
    endloop
  endfacet
  facet normal 0 0 -1
    outer loop
      vertex -8.67103 -2.92161 0
      vertex -3.38676 8.50014 0
      vertex -1.4803 9.02946 0
    endloop
  endfacet
  facet normal 0 0 -1
    outer loop
      vertex -8.67103 -2.92161 0
      vertex -1.4803 9.02946 0
      vertex 0.495371 9.13658 0
    endloop
  endfacet
  facet normal 0 0 -1
    outer loop
      vertex -8.67103 -2.92161 0
      vertex 0.495371 9.13658 0
      vertex 2.44788 8.81648 0
    endloop
  endfacet
  facet normal 0 0 -1
    outer loop
      vertex -8.67103 -2.92161 0
      vertex 2.44788 8.81648 0
      vertex 4.28594 8.08413 0
    endloop
  endfacet
  facet normal 0 0 -1
    outer loop
      vertex -8.67103 -2.92161 0
      vertex 4.28594 8.08413 0
      vertex 5.92359 6.97378 0
    endloop
  endfacet
  facet normal 0 0 -1
    outer loop
      vertex -8.67103 -2.92161 0
      vertex 5.92359 6.97378 0
      vertex 7.28425 5.53734 0
    endloop
  endfacet
  facet normal 0 0 -1
    outer loop
      vertex -8.67103 -2.92161 0
      vertex 7.28425 5.53734 0
      vertex 8.30431 3.84198 0
    endloop
  endfacet
  facet normal 0 0 -1
    outer loop
      vertex -8.67103 -2.92161 0
      vertex 8.30431 3.84198 0
      vertex 8.93608 1.96698 0
    endloop
  endfacet
  facet normal 0 0 -1
    outer loop
      vertex -8.67103 -2.92161 0
      vertex 8.93608 1.96698 0
      vertex 9.15 0 0
    endloop
  endfacet
  facet normal 0 0 -1
    outer loop
      vertex -8.67103 -2.92161 0
      vertex 9.15 0 0
      vertex 8.93608 -1.96698 0
    endloop
  endfacet
  facet normal 0 0 -1
    outer loop
      vertex -8.67103 -2.92161 0
      vertex 8.93608 -1.96698 0
      vertex 8.30431 -3.84198 0
    endloop
  endfacet
  facet normal 0 0 -1
    outer loop
      vertex -8.67103 -2.92161 0
      vertex 8.30431 -3.84198 0
      vertex 7.28425 -5.53734 0
    endloop
  endfacet
  facet normal 0 0 -1
    outer loop
      vertex -8.67103 -2.92161 0
      vertex 7.28425 -5.53734 0
      vertex 5.92359 -6.97378 0
    endloop
  endfacet
  facet normal 0 0 -1
    outer loop
      vertex -8.67103 -2.92161 0
      vertex 5.92359 -6.97378 0
      vertex 4.28594 -8.08413 0
    endloop
  endfacet
  facet normal 0 0 -1
    outer loop
      vertex -8.67103 -2.92161 0
      vertex 4.28594 -8.08413 0
      vertex 2.44788 -8.81648 0
    endloop
  endfacet
  facet normal 0 0 -1
    outer loop
      vertex -8.67103 -2.92161 0
      vertex 2.44788 -8.81648 0
      vertex 0.495371 -9.13658 0
    endloop
  endfacet
  facet normal 0 0 -1
    outer loop
      vertex -8.67103 -2.92161 0
      vertex 0.495371 -9.13658 0
      vertex -1.4803 -9.02946 0
    endloop
  endfacet
  facet normal 0 0 -1
    outer loop
      vertex -8.67103 -2.92161 0
      vertex -1.4803 -9.02946 0
      vertex -3.38676 -8.50014 0
    endloop
  endfacet
  facet normal 0 0 -1
    outer loop
      vertex -8.67103 -2.92161 0
      vertex -3.38676 -8.50014 0
      vertex -5.13486 -7.57335 0
    endloop
  endfacet
  facet normal 0 0 -1
    outer loop
      vertex -8.67103 -2.92161 0
      vertex -5.13486 -7.57335 0
      vertex -6.64286 -6.29245 0
    endloop
  endfacet
  facet normal 0 0 -1
    outer loop
      vertex -8.67103 -2.92161 0
      vertex -6.64286 -6.29245 0
      vertex -7.84024 -4.71732 0
    endloop
  endfacet
  facet normal -1 0 0
    outer loop
      vertex -9.09636 -0.989289 0
      vertex -9.09636 -0.989289 15
      vertex -9.09636 0.989289 0
    endloop
  endfacet
  facet normal -1 0 0
    outer loop
      vertex -9.09636 0.989289 0
      vertex -9.09636 -0.989289 15
      vertex -9.09636 0.989289 15
    endloop
  endfacet
  facet normal -0.976621 -0.21497 0
    outer loop
      vertex -9.09636 -0.989289 0
      vertex -8.67103 -2.92161 0
      vertex -9.09636 -0.989289 15
    endloop
  endfacet
  facet normal -0.976621 -0.21497 0
    outer loop
      vertex -9.09636 -0.989289 15
      vertex -8.67103 -2.92161 0
      vertex -8.67103 -2.92161 15
    endloop
  endfacet
  facet normal -0.907575 -0.419889 0
    outer loop
      vertex -8.67103 -2.92161 0
      vertex -7.84024 -4.71732 0
      vertex -8.67103 -2.92161 15
    endloop
  endfacet
  facet normal -0.907575 -0.419889 0
    outer loop
      vertex -8.67103 -2.92161 15
      vertex -7.84024 -4.71732 0
      vertex -7.84024 -4.71732 15
    endloop
  endfacet
  facet normal -0.796093 -0.605174 0
    outer loop
      vertex -7.84024 -4.71732 0
      vertex -6.64286 -6.29245 0
      vertex -7.84024 -4.71732 15
    endloop
  endfacet
  facet normal -0.796093 -0.605174 0
    outer loop
      vertex -7.84024 -4.71732 15
      vertex -6.64286 -6.29245 0
      vertex -6.64286 -6.29245 15
    endloop
  endfacet
  facet normal -0.647386 -0.762162 0
    outer loop
      vertex -6.64286 -6.29245 15
      vertex -6.64286 -6.29245 0
      vertex -5.13486 -7.57335 0
    endloop
  endfacet
  facet normal -0.647386 -0.762162 0
    outer loop
      vertex -5.13486 -7.57335 15
      vertex -6.64286 -6.29245 15
      vertex -5.13486 -7.57335 0
    endloop
  endfacet
  facet normal -0.468408 -0.883512 0
    outer loop
      vertex -5.13486 -7.57335 15
      vertex -5.13486 -7.57335 0
      vertex -3.38676 -8.50014 0
    endloop
  endfacet
  facet normal -0.468408 -0.883512 0
    outer loop
      vertex -3.38676 -8.50014 15
      vertex -5.13486 -7.57335 15
      vertex -3.38676 -8.50014 0
    endloop
  endfacet
  facet normal -0.267528 -0.96355 0
    outer loop
      vertex -3.38676 -8.50014 15
      vertex -3.38676 -8.50014 0
      vertex -1.4803 -9.02946 0
    endloop
  endfacet
  facet normal -0.267528 -0.96355 0
    outer loop
      vertex -1.4803 -9.02946 15
      vertex -3.38676 -8.50014 15
      vertex -1.4803 -9.02946 0
    endloop
  endfacet
  facet normal -0.0541389 -0.998533 0
    outer loop
      vertex -1.4803 -9.02946 15
      vertex -1.4803 -9.02946 0
      vertex 0.495371 -9.13658 0
    endloop
  endfacet
  facet normal -0.0541389 -0.998533 0
    outer loop
      vertex 0.495371 -9.13658 15
      vertex -1.4803 -9.02946 15
      vertex 0.495371 -9.13658 0
    endloop
  endfacet
  facet normal 0.161782 -0.986826 0
    outer loop
      vertex 0.495371 -9.13658 15
      vertex 0.495371 -9.13658 0
      vertex 2.44788 -8.81648 0
    endloop
  endfacet
  facet normal 0.161782 -0.986826 0
    outer loop
      vertex 2.44788 -8.81648 15
      vertex 0.495371 -9.13658 15
      vertex 2.44788 -8.81648 0
    endloop
  endfacet
  facet normal 0.370138 -0.928977 0
    outer loop
      vertex 2.44788 -8.81648 15
      vertex 2.44788 -8.81648 0
      vertex 4.28594 -8.08413 0
    endloop
  endfacet
  facet normal 0.370138 -0.928977 0
    outer loop
      vertex 4.28594 -8.08413 15
      vertex 2.44788 -8.81648 15
      vertex 4.28594 -8.08413 0
    endloop
  endfacet
  facet normal 0.561187 -0.827689 0
    outer loop
      vertex 4.28594 -8.08413 15
      vertex 4.28594 -8.08413 0
      vertex 5.92359 -6.97378 0
    endloop
  endfacet
  facet normal 0.561187 -0.827689 0
    outer loop
      vertex 5.92359 -6.97378 15
      vertex 4.28594 -8.08413 15
      vertex 5.92359 -6.97378 0
    endloop
  endfacet
  facet normal 0.725996 -0.687699 0
    outer loop
      vertex 5.92359 -6.97378 15
      vertex 5.92359 -6.97378 0
      vertex 7.28425 -5.53734 0
    endloop
  endfacet
  facet normal 0.725996 -0.687699 0
    outer loop
      vertex 7.28425 -5.53734 15
      vertex 5.92359 -6.97378 15
      vertex 7.28425 -5.53734 0
    endloop
  endfacet
  facet normal 0.856857 -0.515554 0
    outer loop
      vertex 7.28425 -5.53734 15
      vertex 7.28425 -5.53734 0
      vertex 8.30431 -3.84198 0
    endloop
  endfacet
  facet normal 0.856857 -0.515554 0
    outer loop
      vertex 8.30431 -3.84198 15
      vertex 7.28425 -5.53734 15
      vertex 8.30431 -3.84198 0
    endloop
  endfacet
  facet normal 0.947653 -0.319302 0
    outer loop
      vertex 8.30431 -3.84198 15
      vertex 8.30431 -3.84198 0
      vertex 8.93608 -1.96698 0
    endloop
  endfacet
  facet normal 0.947653 -0.319302 0
    outer loop
      vertex 8.93608 -1.96698 15
      vertex 8.30431 -3.84198 15
      vertex 8.93608 -1.96698 0
    endloop
  endfacet
  facet normal 0.994138 -0.108119 0
    outer loop
      vertex 8.93608 -1.96698 15
      vertex 8.93608 -1.96698 0
      vertex 9.15 0 0
    endloop
  endfacet
  facet normal 0.994138 -0.108119 0
    outer loop
      vertex 9.15 0 15
      vertex 8.93608 -1.96698 15
      vertex 9.15 0 0
    endloop
  endfacet
  facet normal 0.994138 0.108119 0
    outer loop
      vertex 9.15 0 0
      vertex 8.93608 1.96698 0
      vertex 8.93608 1.96698 15
    endloop
  endfacet
  facet normal 0.994138 0.108119 0
    outer loop
      vertex 9.15 0 15
      vertex 9.15 0 0
      vertex 8.93608 1.96698 15
    endloop
  endfacet
  facet normal 0.947653 0.319302 0
    outer loop
      vertex 8.93608 1.96698 0
      vertex 8.30431 3.84198 0
      vertex 8.30431 3.84198 15
    endloop
  endfacet
  facet normal 0.947653 0.319302 0
    outer loop
      vertex 8.93608 1.96698 15
      vertex 8.93608 1.96698 0
      vertex 8.30431 3.84198 15
    endloop
  endfacet
  facet normal 0.856857 0.515554 0
    outer loop
      vertex 8.30431 3.84198 0
      vertex 7.28425 5.53734 0
      vertex 7.28425 5.53734 15
    endloop
  endfacet
  facet normal 0.856857 0.515554 0
    outer loop
      vertex 8.30431 3.84198 15
      vertex 8.30431 3.84198 0
      vertex 7.28425 5.53734 15
    endloop
  endfacet
  facet normal 0.725996 0.687699 0
    outer loop
      vertex 7.28425 5.53734 0
      vertex 5.92359 6.97378 0
      vertex 5.92359 6.97378 15
    endloop
  endfacet
  facet normal 0.725996 0.687699 0
    outer loop
      vertex 7.28425 5.53734 15
      vertex 7.28425 5.53734 0
      vertex 5.92359 6.97378 15
    endloop
  endfacet
  facet normal 0.561187 0.827689 0
    outer loop
      vertex 4.28594 8.08413 0
      vertex 4.28594 8.08413 15
      vertex 5.92359 6.97378 0
    endloop
  endfacet
  facet normal 0.561187 0.827689 0
    outer loop
      vertex 5.92359 6.97378 0
      vertex 4.28594 8.08413 15
      vertex 5.92359 6.97378 15
    endloop
  endfacet
  facet normal 0.370138 0.928977 0
    outer loop
      vertex 2.44788 8.81648 0
      vertex 2.44788 8.81648 15
      vertex 4.28594 8.08413 0
    endloop
  endfacet
  facet normal 0.370138 0.928977 0
    outer loop
      vertex 4.28594 8.08413 0
      vertex 2.44788 8.81648 15
      vertex 4.28594 8.08413 15
    endloop
  endfacet
  facet normal 0.161782 0.986826 0
    outer loop
      vertex 0.495371 9.13658 0
      vertex 0.495371 9.13658 15
      vertex 2.44788 8.81648 0
    endloop
  endfacet
  facet normal 0.161782 0.986826 0
    outer loop
      vertex 2.44788 8.81648 0
      vertex 0.495371 9.13658 15
      vertex 2.44788 8.81648 15
    endloop
  endfacet
  facet normal -0.0541389 0.998533 0
    outer loop
      vertex -1.4803 9.02946 0
      vertex -1.4803 9.02946 15
      vertex 0.495371 9.13658 0
    endloop
  endfacet
  facet normal -0.0541389 0.998533 0
    outer loop
      vertex 0.495371 9.13658 0
      vertex -1.4803 9.02946 15
      vertex 0.495371 9.13658 15
    endloop
  endfacet
  facet normal -0.267528 0.96355 0
    outer loop
      vertex -3.38676 8.50014 0
      vertex -3.38676 8.50014 15
      vertex -1.4803 9.02946 0
    endloop
  endfacet
  facet normal -0.267528 0.96355 0
    outer loop
      vertex -1.4803 9.02946 0
      vertex -3.38676 8.50014 15
      vertex -1.4803 9.02946 15
    endloop
  endfacet
  facet normal -0.468408 0.883512 0
    outer loop
      vertex -5.13486 7.57335 0
      vertex -5.13486 7.57335 15
      vertex -3.38676 8.50014 0
    endloop
  endfacet
  facet normal -0.468408 0.883512 0
    outer loop
      vertex -3.38676 8.50014 0
      vertex -5.13486 7.57335 15
      vertex -3.38676 8.50014 15
    endloop
  endfacet
  facet normal -0.647386 0.762162 0
    outer loop
      vertex -6.64286 6.29245 0
      vertex -6.64286 6.29245 15
      vertex -5.13486 7.57335 0
    endloop
  endfacet
  facet normal -0.647386 0.762162 0
    outer loop
      vertex -5.13486 7.57335 0
      vertex -6.64286 6.29245 15
      vertex -5.13486 7.57335 15
    endloop
  endfacet
  facet normal -0.796093 0.605174 0
    outer loop
      vertex -7.84024 4.71732 0
      vertex -7.84024 4.71732 15
      vertex -6.64286 6.29245 0
    endloop
  endfacet
  facet normal -0.796093 0.605174 0
    outer loop
      vertex -6.64286 6.29245 0
      vertex -7.84024 4.71732 15
      vertex -6.64286 6.29245 15
    endloop
  endfacet
  facet normal -0.907575 0.419889 0
    outer loop
      vertex -8.67103 2.92161 0
      vertex -8.67103 2.92161 15
      vertex -7.84024 4.71732 0
    endloop
  endfacet
  facet normal -0.907575 0.419889 0
    outer loop
      vertex -7.84024 4.71732 0
      vertex -8.67103 2.92161 15
      vertex -7.84024 4.71732 15
    endloop
  endfacet
  facet normal -0.976621 0.21497 0
    outer loop
      vertex -9.09636 0.989289 0
      vertex -9.09636 0.989289 15
      vertex -8.67103 2.92161 0
    endloop
  endfacet
  facet normal -0.976621 0.21497 0
    outer loop
      vertex -8.67103 2.92161 0
      vertex -9.09636 0.989289 15
      vertex -8.67103 2.92161 15
    endloop
  endfacet
  facet normal 0 0 1
    outer loop
      vertex -9.09636 0.989289 15
      vertex -9.09636 -0.989289 15
      vertex -8.67103 -2.92161 15
    endloop
  endfacet
  facet normal 0 0 1
    outer loop
      vertex -6.64286 -6.29245 15
      vertex -9.09636 0.989289 15
      vertex -7.84024 -4.71732 15
    endloop
  endfacet
  facet normal 0 0 1
    outer loop
      vertex -7.84024 -4.71732 15
      vertex -9.09636 0.989289 15
      vertex -8.67103 -2.92161 15
    endloop
  endfacet
  facet normal 0 0 1
    outer loop
      vertex -5.13486 -7.57335 15
      vertex -9.09636 0.989289 15
      vertex -6.64286 -6.29245 15
    endloop
  endfacet
  facet normal 0 0 1
    outer loop
      vertex -7.20577 -2.85296 15
      vertex -9.09636 0.989289 15
      vertex -5.13486 -7.57335 15
    endloop
  endfacet
  facet normal 0 0 1
    outer loop
      vertex -7.68889 0.971333 15
      vertex -7.20577 2.85296 15
      vertex -9.09636 0.989289 15
    endloop
  endfacet
  facet normal 0 0 1
    outer loop
      vertex 4.15266 6.54354 15
      vertex 5.64951 5.30524 15
      vertex 5.92359 6.97378 15
    endloop
  endfacet
  facet normal 0 0 1
    outer loop
      vertex -5.13486 7.57335 15
      vertex -9.09636 0.989289 15
      vertex -3.38676 8.50014 15
    endloop
  endfacet
  facet normal 0 0 1
    outer loop
      vertex -6.64286 6.29245 15
      vertex -9.09636 0.989289 15
      vertex -5.13486 7.57335 15
    endloop
  endfacet
  facet normal 0 0 1
    outer loop
      vertex -7.84024 4.71732 15
      vertex -9.09636 0.989289 15
      vertex -6.64286 6.29245 15
    endloop
  endfacet
  facet normal 0 0 1
    outer loop
      vertex -8.67103 2.92161 15
      vertex -9.09636 0.989289 15
      vertex -7.84024 4.71732 15
    endloop
  endfacet
  facet normal 0 0 1
    outer loop
      vertex 7.75 0 15
      vertex 7.50652 -1.92735 15
      vertex 8.93608 -1.96698 15
    endloop
  endfacet
  facet normal 0 0 1
    outer loop
      vertex 2.39488 7.37069 15
      vertex 4.15266 6.54354 15
      vertex 4.28594 8.08413 15
    endloop
  endfacet
  facet normal 0 0 1
    outer loop
      vertex 7.50652 1.92735 15
      vertex 7.75 0 15
      vertex 9.15 0 15
    endloop
  endfacet
  facet normal 0 0 1
    outer loop
      vertex 5.64951 5.30524 15
      vertex 6.28174 4.43505 15
      vertex 7.28425 5.53734 15
    endloop
  endfacet
  facet normal 0 0 1
    outer loop
      vertex -6.32293 4.45884 15
      vertex -9.09636 0.989289 15
      vertex -6.99754 3.23174 15
    endloop
  endfacet
  facet normal 0 0 1
    outer loop
      vertex 4.46362 1.76878 15
      vertex 6.99146 3.22823 15
      vertex 3.76362 2.98122 15
    endloop
  endfacet
  facet normal 0 0 1
    outer loop
      vertex -6.26988 4.55534 15
      vertex -9.09636 0.989289 15
      vertex -6.32293 4.45884 15
    endloop
  endfacet
  facet normal 0 0 1
    outer loop
      vertex -4.94004 5.97148 15
      vertex -3.29979 7.01241 15
      vertex -1.4803 9.02946 15
    endloop
  endfacet
  facet normal 0 0 1
    outer loop
      vertex -3.38676 8.50014 15
      vertex -9.09636 0.989289 15
      vertex -6.26988 4.55534 15
    endloop
  endfacet
  facet normal 0 0 1
    outer loop
      vertex -3.38676 8.50014 15
      vertex -4.94004 5.97148 15
      vertex -1.4803 9.02946 15
    endloop
  endfacet
  facet normal 0 0 1
    outer loop
      vertex -6.26988 4.55534 15
      vertex -4.94004 5.97148 15
      vertex -3.38676 8.50014 15
    endloop
  endfacet
  facet normal 0 0 1
    outer loop
      vertex -1.4803 9.02946 15
      vertex -3.29979 7.01241 15
      vertex 0.495371 9.13658 15
    endloop
  endfacet
  facet normal 0 0 1
    outer loop
      vertex -3.29979 7.01241 15
      vertex -1.4522 7.61273 15
      vertex 0.495371 9.13658 15
    endloop
  endfacet
  facet normal 0 0 1
    outer loop
      vertex 0.495371 9.13658 15
      vertex 0.486627 7.73471 15
      vertex 2.44788 8.81648 15
    endloop
  endfacet
  facet normal 0 0 1
    outer loop
      vertex -7.20577 2.85296 15
      vertex -6.99754 3.23174 15
      vertex -9.09636 0.989289 15
    endloop
  endfacet
  facet normal 0 0 1
    outer loop
      vertex 2.44788 8.81648 15
      vertex 2.39488 7.37069 15
      vertex 4.28594 8.08413 15
    endloop
  endfacet
  facet normal 0 0 1
    outer loop
      vertex 4.28594 8.08413 15
      vertex 4.15266 6.54354 15
      vertex 5.92359 6.97378 15
    endloop
  endfacet
  facet normal 0 0 1
    outer loop
      vertex 5.92359 6.97378 15
      vertex 5.64951 5.30524 15
      vertex 7.28425 5.53734 15
    endloop
  endfacet
  facet normal 0 0 1
    outer loop
      vertex 7.28425 5.53734 15
      vertex 6.28174 4.43505 15
      vertex 8.30431 3.84198 15
    endloop
  endfacet
  facet normal 0 0 1
    outer loop
      vertex -6.99754 3.23174 15
      vertex -4.46362 1.76878 15
      vertex -3.76362 2.98122 15
    endloop
  endfacet
  facet normal 0 0 1
    outer loop
      vertex 4.15266 -6.54354 15
      vertex 2.39488 -7.37069 15
      vertex 4.28594 -8.08413 15
    endloop
  endfacet
  facet normal 0 0 1
    outer loop
      vertex -3.76362 2.98122 15
      vertex -6.32293 4.45884 15
      vertex -6.99754 3.23174 15
    endloop
  endfacet
  facet normal 0 0 1
    outer loop
      vertex 8.30431 3.84198 15
      vertex 6.99146 3.22823 15
      vertex 8.93608 1.96698 15
    endloop
  endfacet
  facet normal 0 0 1
    outer loop
      vertex 8.30431 3.84198 15
      vertex 3.76362 2.98122 15
      vertex 6.99146 3.22823 15
    endloop
  endfacet
  facet normal 0 0 1
    outer loop
      vertex 7.50652 1.92735 15
      vertex 9.15 0 15
      vertex 8.93608 1.96698 15
    endloop
  endfacet
  facet normal 0 0 1
    outer loop
      vertex 9.15 0 15
      vertex 7.75 0 15
      vertex 8.93608 -1.96698 15
    endloop
  endfacet
  facet normal 0 0 1
    outer loop
      vertex 0.486627 7.73471 15
      vertex 2.39488 7.37069 15
      vertex 2.44788 8.81648 15
    endloop
  endfacet
  facet normal 0 0 1
    outer loop
      vertex 8.93608 -1.96698 15
      vertex 7.50652 -1.92735 15
      vertex 8.30431 -3.84198 15
    endloop
  endfacet
  facet normal 0 0 1
    outer loop
      vertex -1.4522 7.61273 15
      vertex 0.486627 7.73471 15
      vertex 0.495371 9.13658 15
    endloop
  endfacet
  facet normal 0 0 1
    outer loop
      vertex 8.30431 -3.84198 15
      vertex 6.79138 -3.73359 15
      vertex 7.28425 -5.53734 15
    endloop
  endfacet
  facet normal 0 0 1
    outer loop
      vertex 7.28425 -5.53734 15
      vertex 5.64951 -5.30524 15
      vertex 5.92359 -6.97378 15
    endloop
  endfacet
  facet normal 0 0 1
    outer loop
      vertex 6.28174 4.43505 15
      vertex 3.76362 2.98122 15
      vertex 8.30431 3.84198 15
    endloop
  endfacet
  facet normal 0 0 1
    outer loop
      vertex 5.92359 -6.97378 15
      vertex 4.15266 -6.54354 15
      vertex 4.28594 -8.08413 15
    endloop
  endfacet
  facet normal 0 0 1
    outer loop
      vertex 6.99146 3.22823 15
      vertex 7.50652 1.92735 15
      vertex 8.93608 1.96698 15
    endloop
  endfacet
  facet normal 0 0 1
    outer loop
      vertex 4.28594 -8.08413 15
      vertex 2.39488 -7.37069 15
      vertex 2.44788 -8.81648 15
    endloop
  endfacet
  facet normal 0 0 1
    outer loop
      vertex 2.44788 -8.81648 15
      vertex 0.7 -7.694 15
      vertex 0.495371 -9.13658 15
    endloop
  endfacet
  facet normal 0 0 1
    outer loop
      vertex -1.4522 -7.61273 15
      vertex -3.29979 -7.01241 15
      vertex -1.4803 -9.02946 15
    endloop
  endfacet
  facet normal 0 0 1
    outer loop
      vertex 0.7 -7.694 15
      vertex -0.7 -7.66005 15
      vertex 0.495371 -9.13658 15
    endloop
  endfacet
  facet normal 0 0 1
    outer loop
      vertex 0.495371 -9.13658 15
      vertex -1.4522 -7.61273 15
      vertex -1.4803 -9.02946 15
    endloop
  endfacet
  facet normal 0 0 1
    outer loop
      vertex -1.4803 -9.02946 15
      vertex -3.29979 -7.01241 15
      vertex -3.38676 -8.50014 15
    endloop
  endfacet
  facet normal 0 0 1
    outer loop
      vertex -3.38676 -8.50014 15
      vertex -4.94004 -5.97148 15
      vertex -5.13486 -7.57335 15
    endloop
  endfacet
  facet normal 0 0 1
    outer loop
      vertex 7.50652 -1.92735 15
      vertex 6.79138 -3.73359 15
      vertex 8.30431 -3.84198 15
    endloop
  endfacet
  facet normal 0 0 1
    outer loop
      vertex -4.94004 -5.97148 15
      vertex -6.26988 -4.55534 15
      vertex -5.13486 -7.57335 15
    endloop
  endfacet
  facet normal 0 0 1
    outer loop
      vertex -6.26988 -4.55534 15
      vertex -7.20577 -2.85296 15
      vertex -5.13486 -7.57335 15
    endloop
  endfacet
  facet normal 0 0 1
    outer loop
      vertex 6.79138 -3.73359 15
      vertex 5.64951 -5.30524 15
      vertex 7.28425 -5.53734 15
    endloop
  endfacet
  facet normal 0 0 1
    outer loop
      vertex -7.20577 -2.85296 15
      vertex -7.68889 -0.971333 15
      vertex -9.09636 0.989289 15
    endloop
  endfacet
  facet normal 0 0 1
    outer loop
      vertex 5.64951 -5.30524 15
      vertex 4.15266 -6.54354 15
      vertex 5.92359 -6.97378 15
    endloop
  endfacet
  facet normal 0 0 1
    outer loop
      vertex 0.7 -7.694 15
      vertex 0.7 -4.75 15
      vertex -0.7 -4.75 15
    endloop
  endfacet
  facet normal 0 0 1
    outer loop
      vertex 2.39488 -7.37069 15
      vertex 0.7 -7.694 15
      vertex 2.44788 -8.81648 15
    endloop
  endfacet
  facet normal 0 0 1
    outer loop
      vertex -0.7 -4.75 15
      vertex -0.7 -7.66005 15
      vertex 0.7 -7.694 15
    endloop
  endfacet
  facet normal 0 0 1
    outer loop
      vertex -0.7 -7.66005 15
      vertex -1.4522 -7.61273 15
      vertex 0.495371 -9.13658 15
    endloop
  endfacet
  facet normal 0 0 1
    outer loop
      vertex -3.29979 -7.01241 15
      vertex -4.94004 -5.97148 15
      vertex -3.38676 -8.50014 15
    endloop
  endfacet
  facet normal 0 0 1
    outer loop
      vertex -7.68889 -0.971333 15
      vertex -7.68889 0.971333 15
      vertex -9.09636 0.989289 15
    endloop
  endfacet
  facet normal 1 0 0
    outer loop
      vertex -7.68889 0.971333 1.4
      vertex -7.68889 0.971333 15
      vertex -7.68889 -0.971333 15
    endloop
  endfacet
  facet normal 1 0 0
    outer loop
      vertex -7.68889 -0.971333 1.4
      vertex -7.68889 0.971333 1.4
      vertex -7.68889 -0.971333 15
    endloop
  endfacet
  facet normal 0.968583 0.24869 0
    outer loop
      vertex -7.68889 -0.971333 15
      vertex -7.20577 -2.85296 15
      vertex -7.20577 -2.85296 1.4
    endloop
  endfacet
  facet normal 0.968583 0.24869 0
    outer loop
      vertex -7.68889 -0.971333 1.4
      vertex -7.68889 -0.971333 15
      vertex -7.20577 -2.85296 1.4
    endloop
  endfacet
  facet normal 0.876307 0.481754 0
    outer loop
      vertex -7.20577 -2.85296 15
      vertex -6.26988 -4.55534 15
      vertex -6.26988 -4.55534 1.4
    endloop
  endfacet
  facet normal 0.876307 0.481754 0
    outer loop
      vertex -7.20577 -2.85296 1.4
      vertex -7.20577 -2.85296 15
      vertex -6.26988 -4.55534 1.4
    endloop
  endfacet
  facet normal 0.728969 0.684547 0
    outer loop
      vertex -6.26988 -4.55534 15
      vertex -4.94004 -5.97148 15
      vertex -4.94004 -5.97148 1.4
    endloop
  endfacet
  facet normal 0.728969 0.684547 0
    outer loop
      vertex -6.26988 -4.55534 1.4
      vertex -6.26988 -4.55534 15
      vertex -4.94004 -5.97148 1.4
    endloop
  endfacet
  facet normal 0.535827 0.844328 0
    outer loop
      vertex -3.29979 -7.01241 15
      vertex -3.29979 -7.01241 1.4
      vertex -4.94004 -5.97148 15
    endloop
  endfacet
  facet normal 0.535827 0.844328 0
    outer loop
      vertex -4.94004 -5.97148 15
      vertex -3.29979 -7.01241 1.4
      vertex -4.94004 -5.97148 1.4
    endloop
  endfacet
  facet normal 0.309017 0.951057 0
    outer loop
      vertex -1.4522 -7.61273 15
      vertex -1.4522 -7.61273 1.4
      vertex -3.29979 -7.01241 15
    endloop
  endfacet
  facet normal 0.309017 0.951057 0
    outer loop
      vertex -3.29979 -7.01241 15
      vertex -1.4522 -7.61273 1.4
      vertex -3.29979 -7.01241 1.4
    endloop
  endfacet
  facet normal 0.0627905 0.998027 0
    outer loop
      vertex -0.7 -7.66005 15
      vertex -0.7 -7.66005 1.4
      vertex -1.4522 -7.61273 15
    endloop
  endfacet
  facet normal 0.0627905 0.998027 0
    outer loop
      vertex -1.4522 -7.61273 15
      vertex -0.7 -7.66005 1.4
      vertex -1.4522 -7.61273 1.4
    endloop
  endfacet
  facet normal -1 0 0
    outer loop
      vertex -0.7 -0.404145 4.4
      vertex -0.7 -0.404145 1.4
      vertex -0.7 -4.75 4.4
    endloop
  endfacet
  facet normal -1 0 0
    outer loop
      vertex -0.7 -7.66005 1.4
      vertex -0.7 -7.66005 15
      vertex -0.7 -4.75 4.4
    endloop
  endfacet
  facet normal -1 0 0
    outer loop
      vertex -0.7 -7.66005 1.4
      vertex -0.7 -4.75 4.4
      vertex -0.7 -0.404145 1.4
    endloop
  endfacet
  facet normal -1 0 0
    outer loop
      vertex -0.7 -4.75 4.4
      vertex -0.7 -7.66005 15
      vertex -0.7 -4.75 15
    endloop
  endfacet
  facet normal 0 1 0
    outer loop
      vertex -0.7 -4.75 4.4
      vertex -0.7 -4.75 15
      vertex 0.7 -4.75 4.4
    endloop
  endfacet
  facet normal 0 1 0
    outer loop
      vertex 0.7 -4.75 4.4
      vertex -0.7 -4.75 15
      vertex 0.7 -4.75 15
    endloop
  endfacet
  facet normal 1 0 0
    outer loop
      vertex 0.7 -4.75 4.4
      vertex 0.7 -7.694 1.4
      vertex 0.7 -0.404145 1.4
    endloop
  endfacet
  facet normal 1 0 0
    outer loop
      vertex 0.7 -4.75 4.4
      vertex 0.7 -4.75 15
      vertex 0.7 -7.694 15
    endloop
  endfacet
  facet normal 1 0 0
    outer loop
      vertex 0.7 -7.694 15
      vertex 0.7 -7.694 1.4
      vertex 0.7 -4.75 4.4
    endloop
  endfacet
  facet normal 1 0 0
    outer loop
      vertex 0.7 -0.404145 4.4
      vertex 0.7 -4.75 4.4
      vertex 0.7 -0.404145 1.4
    endloop
  endfacet
  facet normal -0.187381 0.982287 0
    outer loop
      vertex 2.39488 -7.37069 15
      vertex 2.39488 -7.37069 1.4
      vertex 0.7 -7.694 15
    endloop
  endfacet
  facet normal -0.187381 0.982287 0
    outer loop
      vertex 0.7 -7.694 15
      vertex 2.39488 -7.37069 1.4
      vertex 0.7 -7.694 1.4
    endloop
  endfacet
  facet normal -0.425779 0.904827 0
    outer loop
      vertex 4.15266 -6.54354 15
      vertex 4.15266 -6.54354 1.4
      vertex 2.39488 -7.37069 15
    endloop
  endfacet
  facet normal -0.425779 0.904827 0
    outer loop
      vertex 2.39488 -7.37069 15
      vertex 4.15266 -6.54354 1.4
      vertex 2.39488 -7.37069 1.4
    endloop
  endfacet
  facet normal -0.637424 0.770513 0
    outer loop
      vertex 5.64951 -5.30524 15
      vertex 5.64951 -5.30524 1.4
      vertex 4.15266 -6.54354 15
    endloop
  endfacet
  facet normal -0.637424 0.770513 0
    outer loop
      vertex 4.15266 -6.54354 15
      vertex 5.64951 -5.30524 1.4
      vertex 4.15266 -6.54354 1.4
    endloop
  endfacet
  facet normal -0.809017 0.587785 0
    outer loop
      vertex 6.79138 -3.73359 15
      vertex 6.79138 -3.73359 1.4
      vertex 5.64951 -5.30524 15
    endloop
  endfacet
  facet normal -0.809017 0.587785 0
    outer loop
      vertex 5.64951 -5.30524 15
      vertex 6.79138 -3.73359 1.4
      vertex 5.64951 -5.30524 1.4
    endloop
  endfacet
  facet normal -0.929777 0.368124 0
    outer loop
      vertex 7.50652 -1.92735 15
      vertex 7.50652 -1.92735 1.4
      vertex 6.79138 -3.73359 15
    endloop
  endfacet
  facet normal -0.929777 0.368124 0
    outer loop
      vertex 6.79138 -3.73359 15
      vertex 7.50652 -1.92735 1.4
      vertex 6.79138 -3.73359 1.4
    endloop
  endfacet
  facet normal -0.992115 0.125333 0
    outer loop
      vertex 7.75 0 15
      vertex 7.75 0 1.4
      vertex 7.50652 -1.92735 15
    endloop
  endfacet
  facet normal -0.992115 0.125333 0
    outer loop
      vertex 7.50652 -1.92735 15
      vertex 7.75 0 1.4
      vertex 7.50652 -1.92735 1.4
    endloop
  endfacet
  facet normal -0.992115 -0.125333 0
    outer loop
      vertex 7.75 0 15
      vertex 7.50652 1.92735 15
      vertex 7.75 0 1.4
    endloop
  endfacet
  facet normal -0.992115 -0.125333 0
    outer loop
      vertex 7.75 0 1.4
      vertex 7.50652 1.92735 15
      vertex 7.50652 1.92735 1.4
    endloop
  endfacet
  facet normal -0.929777 -0.368124 0
    outer loop
      vertex 7.50652 1.92735 15
      vertex 6.99146 3.22823 15
      vertex 7.50652 1.92735 1.4
    endloop
  endfacet
  facet normal -0.929777 -0.368124 0
    outer loop
      vertex 7.50652 1.92735 1.4
      vertex 6.99146 3.22823 15
      vertex 6.99146 3.22823 1.4
    endloop
  endfacet
  facet normal 0.5 -0.866025 0
    outer loop
      vertex 0.7 -0.404145 4.4
      vertex 0.7 -0.404145 1.4
      vertex 6.99146 3.22823 1.4
    endloop
  endfacet
  facet normal 0.5 -0.866025 0
    outer loop
      vertex 4.46362 1.76878 4.4
      vertex 0.7 -0.404145 4.4
      vertex 6.99146 3.22823 1.4
    endloop
  endfacet
  facet normal 0.5 -0.866025 0
    outer loop
      vertex 6.99146 3.22823 15
      vertex 4.46362 1.76878 4.4
      vertex 6.99146 3.22823 1.4
    endloop
  endfacet
  facet normal 0.5 -0.866025 0
    outer loop
      vertex 4.46362 1.76878 15
      vertex 4.46362 1.76878 4.4
      vertex 6.99146 3.22823 15
    endloop
  endfacet
  facet normal -0.866025 -0.5 0
    outer loop
      vertex 3.76362 2.98122 4.4
      vertex 4.46362 1.76878 4.4
      vertex 3.76362 2.98122 15
    endloop
  endfacet
  facet normal -0.866025 -0.5 0
    outer loop
      vertex 3.76362 2.98122 15
      vertex 4.46362 1.76878 4.4
      vertex 4.46362 1.76878 15
    endloop
  endfacet
  facet normal -0.5 0.866025 0
    outer loop
      vertex 1.31386e-16 0.80829 1.4
      vertex 1.31386e-16 0.80829 4.4
      vertex 6.28174 4.43505 1.4
    endloop
  endfacet
  facet normal -0.5 0.866025 0
    outer loop
      vertex 6.28174 4.43505 1.4
      vertex 1.31386e-16 0.80829 4.4
      vertex 3.76362 2.98122 4.4
    endloop
  endfacet
  facet normal -0.5 0.866025 0
    outer loop
      vertex 6.28174 4.43505 1.4
      vertex 3.76362 2.98122 4.4
      vertex 3.76362 2.98122 15
    endloop
  endfacet
  facet normal -0.5 0.866025 0
    outer loop
      vertex 6.28174 4.43505 1.4
      vertex 3.76362 2.98122 15
      vertex 6.28174 4.43505 15
    endloop
  endfacet
  facet normal -0.809017 -0.587785 0
    outer loop
      vertex 6.28174 4.43505 15
      vertex 5.64951 5.30524 15
      vertex 6.28174 4.43505 1.4
    endloop
  endfacet
  facet normal -0.809017 -0.587785 0
    outer loop
      vertex 6.28174 4.43505 1.4
      vertex 5.64951 5.30524 15
      vertex 5.64951 5.30524 1.4
    endloop
  endfacet
  facet normal -0.637424 -0.770513 0
    outer loop
      vertex 5.64951 5.30524 1.4
      vertex 5.64951 5.30524 15
      vertex 4.15266 6.54354 15
    endloop
  endfacet
  facet normal -0.637424 -0.770513 0
    outer loop
      vertex 4.15266 6.54354 1.4
      vertex 5.64951 5.30524 1.4
      vertex 4.15266 6.54354 15
    endloop
  endfacet
  facet normal -0.425779 -0.904827 0
    outer loop
      vertex 4.15266 6.54354 1.4
      vertex 4.15266 6.54354 15
      vertex 2.39488 7.37069 15
    endloop
  endfacet
  facet normal -0.425779 -0.904827 0
    outer loop
      vertex 2.39488 7.37069 1.4
      vertex 4.15266 6.54354 1.4
      vertex 2.39488 7.37069 15
    endloop
  endfacet
  facet normal -0.187381 -0.982287 0
    outer loop
      vertex 2.39488 7.37069 1.4
      vertex 2.39488 7.37069 15
      vertex 0.486627 7.73471 15
    endloop
  endfacet
  facet normal -0.187381 -0.982287 0
    outer loop
      vertex 0.486627 7.73471 1.4
      vertex 2.39488 7.37069 1.4
      vertex 0.486627 7.73471 15
    endloop
  endfacet
  facet normal 0.0627905 -0.998027 0
    outer loop
      vertex 0.486627 7.73471 1.4
      vertex 0.486627 7.73471 15
      vertex -1.4522 7.61273 15
    endloop
  endfacet
  facet normal 0.0627905 -0.998027 0
    outer loop
      vertex -1.4522 7.61273 1.4
      vertex 0.486627 7.73471 1.4
      vertex -1.4522 7.61273 15
    endloop
  endfacet
  facet normal 0.309017 -0.951057 0
    outer loop
      vertex -1.4522 7.61273 1.4
      vertex -1.4522 7.61273 15
      vertex -3.29979 7.01241 15
    endloop
  endfacet
  facet normal 0.309017 -0.951057 0
    outer loop
      vertex -3.29979 7.01241 1.4
      vertex -1.4522 7.61273 1.4
      vertex -3.29979 7.01241 15
    endloop
  endfacet
  facet normal 0.535827 -0.844328 0
    outer loop
      vertex -3.29979 7.01241 1.4
      vertex -3.29979 7.01241 15
      vertex -4.94004 5.97148 15
    endloop
  endfacet
  facet normal 0.535827 -0.844328 0
    outer loop
      vertex -4.94004 5.97148 1.4
      vertex -3.29979 7.01241 1.4
      vertex -4.94004 5.97148 15
    endloop
  endfacet
  facet normal 0.728969 -0.684547 0
    outer loop
      vertex -4.94004 5.97148 1.4
      vertex -4.94004 5.97148 15
      vertex -6.26988 4.55534 15
    endloop
  endfacet
  facet normal 0.728969 -0.684547 0
    outer loop
      vertex -6.26988 4.55534 1.4
      vertex -4.94004 5.97148 1.4
      vertex -6.26988 4.55534 15
    endloop
  endfacet
  facet normal 0.876307 -0.481754 0
    outer loop
      vertex -6.26988 4.55534 1.4
      vertex -6.26988 4.55534 15
      vertex -6.32293 4.45884 15
    endloop
  endfacet
  facet normal 0.876307 -0.481754 0
    outer loop
      vertex -6.32293 4.45884 1.4
      vertex -6.26988 4.55534 1.4
      vertex -6.32293 4.45884 15
    endloop
  endfacet
  facet normal 0.5 0.866025 0
    outer loop
      vertex 1.31386e-16 0.80829 4.4
      vertex 1.31386e-16 0.80829 1.4
      vertex -3.76362 2.98122 4.4
    endloop
  endfacet
  facet normal 0.5 0.866025 0
    outer loop
      vertex -6.32293 4.45884 1.4
      vertex -6.32293 4.45884 15
      vertex -3.76362 2.98122 4.4
    endloop
  endfacet
  facet normal 0.5 0.866025 0
    outer loop
      vertex -6.32293 4.45884 1.4
      vertex -3.76362 2.98122 4.4
      vertex 1.31386e-16 0.80829 1.4
    endloop
  endfacet
  facet normal 0.5 0.866025 0
    outer loop
      vertex -3.76362 2.98122 4.4
      vertex -6.32293 4.45884 15
      vertex -3.76362 2.98122 15
    endloop
  endfacet
  facet normal 0.866025 -0.5 0
    outer loop
      vertex -4.46362 1.76878 15
      vertex -4.46362 1.76878 4.4
      vertex -3.76362 2.98122 4.4
    endloop
  endfacet
  facet normal 0.866025 -0.5 0
    outer loop
      vertex -3.76362 2.98122 15
      vertex -4.46362 1.76878 15
      vertex -3.76362 2.98122 4.4
    endloop
  endfacet
  facet normal -0.5 -0.866025 0
    outer loop
      vertex -4.46362 1.76878 4.4
      vertex -6.99754 3.23174 1.4
      vertex -0.7 -0.404145 1.4
    endloop
  endfacet
  facet normal -0.5 -0.866025 0
    outer loop
      vertex -4.46362 1.76878 4.4
      vertex -4.46362 1.76878 15
      vertex -6.99754 3.23174 15
    endloop
  endfacet
  facet normal -0.5 -0.866025 0
    outer loop
      vertex -6.99754 3.23174 15
      vertex -6.99754 3.23174 1.4
      vertex -4.46362 1.76878 4.4
    endloop
  endfacet
  facet normal -0.5 -0.866025 0
    outer loop
      vertex -0.7 -0.404145 4.4
      vertex -4.46362 1.76878 4.4
      vertex -0.7 -0.404145 1.4
    endloop
  endfacet
  facet normal 0.876307 -0.481754 0
    outer loop
      vertex -6.99754 3.23174 1.4
      vertex -6.99754 3.23174 15
      vertex -7.20577 2.85296 15
    endloop
  endfacet
  facet normal 0.876307 -0.481754 0
    outer loop
      vertex -7.20577 2.85296 1.4
      vertex -6.99754 3.23174 1.4
      vertex -7.20577 2.85296 15
    endloop
  endfacet
  facet normal 0.968583 -0.24869 0
    outer loop
      vertex -7.20577 2.85296 1.4
      vertex -7.20577 2.85296 15
      vertex -7.68889 0.971333 15
    endloop
  endfacet
  facet normal 0.968583 -0.24869 0
    outer loop
      vertex -7.68889 0.971333 1.4
      vertex -7.20577 2.85296 1.4
      vertex -7.68889 0.971333 15
    endloop
  endfacet
  facet normal 0 0 1
    outer loop
      vertex -7.20577 -2.85296 1.4
      vertex -6.26988 -4.55534 1.4
      vertex -4.94004 -5.97148 1.4
    endloop
  endfacet
  facet normal 0 0 1
    outer loop
      vertex -1.4522 -7.61273 1.4
      vertex -7.20577 -2.85296 1.4
      vertex -3.29979 -7.01241 1.4
    endloop
  endfacet
  facet normal 0 0 1
    outer loop
      vertex -3.29979 -7.01241 1.4
      vertex -7.20577 -2.85296 1.4
      vertex -4.94004 -5.97148 1.4
    endloop
  endfacet
  facet normal 0 0 1
    outer loop
      vertex -0.7 -7.66005 1.4
      vertex -7.20577 -2.85296 1.4
      vertex -1.4522 -7.61273 1.4
    endloop
  endfacet
  facet normal 0 0 1
    outer loop
      vertex -0.7 -0.404145 1.4
      vertex -7.20577 -2.85296 1.4
      vertex -0.7 -7.66005 1.4
    endloop
  endfacet
  facet normal 0 0 1
    outer loop
      vertex -6.99754 3.23174 1.4
      vertex -7.20577 -2.85296 1.4
      vertex -0.7 -0.404145 1.4
    endloop
  endfacet
  facet normal 0 0 1
    outer loop
      vertex -7.20577 2.85296 1.4
      vertex -7.20577 -2.85296 1.4
      vertex -6.99754 3.23174 1.4
    endloop
  endfacet
  facet normal 0 0 1
    outer loop
      vertex -7.68889 0.971333 1.4
      vertex -7.20577 -2.85296 1.4
      vertex -7.20577 2.85296 1.4
    endloop
  endfacet
  facet normal 0 0 1
    outer loop
      vertex -7.68889 -0.971333 1.4
      vertex -7.20577 -2.85296 1.4
      vertex -7.68889 0.971333 1.4
    endloop
  endfacet
  facet normal 0 0 1
    outer loop
      vertex -3.76362 2.98122 4.4
      vertex -4.46362 1.76878 4.4
      vertex -0.7 -0.404145 4.4
    endloop
  endfacet
  facet normal 0 0 1
    outer loop
      vertex 0.7 -0.404145 4.4
      vertex -3.76362 2.98122 4.4
      vertex -0.7 -0.404145 4.4
    endloop
  endfacet
  facet normal 0 0 1
    outer loop
      vertex -0.7 -4.75 4.4
      vertex 0.7 -4.75 4.4
      vertex -0.7 -0.404145 4.4
    endloop
  endfacet
  facet normal 0 0 1
    outer loop
      vertex 0.7 -4.75 4.4
      vertex 0.7 -0.404145 4.4
      vertex -0.7 -0.404145 4.4
    endloop
  endfacet
  facet normal 0 0 1
    outer loop
      vertex 0.7 -0.404145 4.4
      vertex 1.31386e-16 0.80829 4.4
      vertex -3.76362 2.98122 4.4
    endloop
  endfacet
  facet normal 0 0 1
    outer loop
      vertex 0.7 -0.404145 4.4
      vertex 4.46362 1.76878 4.4
      vertex 1.31386e-16 0.80829 4.4
    endloop
  endfacet
  facet normal 0 0 1
    outer loop
      vertex 3.76362 2.98122 4.4
      vertex 1.31386e-16 0.80829 4.4
      vertex 4.46362 1.76878 4.4
    endloop
  endfacet
  facet normal 0 0 1
    outer loop
      vertex 2.39488 -7.37069 1.4
      vertex 4.15266 -6.54354 1.4
      vertex 5.64951 -5.30524 1.4
    endloop
  endfacet
  facet normal 0 0 1
    outer loop
      vertex 7.50652 -1.92735 1.4
      vertex 2.39488 -7.37069 1.4
      vertex 6.79138 -3.73359 1.4
    endloop
  endfacet
  facet normal 0 0 1
    outer loop
      vertex 6.79138 -3.73359 1.4
      vertex 2.39488 -7.37069 1.4
      vertex 5.64951 -5.30524 1.4
    endloop
  endfacet
  facet normal 0 0 1
    outer loop
      vertex 7.75 0 1.4
      vertex 2.39488 -7.37069 1.4
      vertex 7.50652 -1.92735 1.4
    endloop
  endfacet
  facet normal 0 0 1
    outer loop
      vertex 7.50652 1.92735 1.4
      vertex 2.39488 -7.37069 1.4
      vertex 7.75 0 1.4
    endloop
  endfacet
  facet normal 0 0 1
    outer loop
      vertex 6.99146 3.22823 1.4
      vertex 2.39488 -7.37069 1.4
      vertex 7.50652 1.92735 1.4
    endloop
  endfacet
  facet normal 0 0 1
    outer loop
      vertex 0.7 -0.404145 1.4
      vertex 2.39488 -7.37069 1.4
      vertex 6.99146 3.22823 1.4
    endloop
  endfacet
  facet normal 0 0 1
    outer loop
      vertex 0.7 -7.694 1.4
      vertex 2.39488 -7.37069 1.4
      vertex 0.7 -0.404145 1.4
    endloop
  endfacet
  facet normal 0 0 1
    outer loop
      vertex 1.31386e-16 0.80829 1.4
      vertex 6.28174 4.43505 1.4
      vertex 5.64951 5.30524 1.4
    endloop
  endfacet
  facet normal 0 0 1
    outer loop
      vertex 2.39488 7.37069 1.4
      vertex 1.31386e-16 0.80829 1.4
      vertex 4.15266 6.54354 1.4
    endloop
  endfacet
  facet normal 0 0 1
    outer loop
      vertex 4.15266 6.54354 1.4
      vertex 1.31386e-16 0.80829 1.4
      vertex 5.64951 5.30524 1.4
    endloop
  endfacet
  facet normal 0 0 1
    outer loop
      vertex 0.486627 7.73471 1.4
      vertex 1.31386e-16 0.80829 1.4
      vertex 2.39488 7.37069 1.4
    endloop
  endfacet
  facet normal 0 0 1
    outer loop
      vertex -1.4522 7.61273 1.4
      vertex 1.31386e-16 0.80829 1.4
      vertex 0.486627 7.73471 1.4
    endloop
  endfacet
  facet normal 0 0 1
    outer loop
      vertex -3.29979 7.01241 1.4
      vertex 1.31386e-16 0.80829 1.4
      vertex -1.4522 7.61273 1.4
    endloop
  endfacet
  facet normal 0 0 1
    outer loop
      vertex -4.94004 5.97148 1.4
      vertex 1.31386e-16 0.80829 1.4
      vertex -3.29979 7.01241 1.4
    endloop
  endfacet
  facet normal 0 0 1
    outer loop
      vertex -6.26988 4.55534 1.4
      vertex 1.31386e-16 0.80829 1.4
      vertex -4.94004 5.97148 1.4
    endloop
  endfacet
  facet normal 0 0 1
    outer loop
      vertex -6.32293 4.45884 1.4
      vertex 1.31386e-16 0.80829 1.4
      vertex -6.26988 4.55534 1.4
    endloop
  endfacet
endsolid OpenSCAD_Model
