solid drawer2-update
facet normal -1.0 4.0775322222434225e-16 1.5272575525042273e-16
  outer loop
    vertex 5.287437154777308e-14 104.00000000000001 39.998576512455614
    vertex -8.81239525796218e-15 43.0 38.400000000000006
    vertex 4.547195953108485e-14 43.0 39.998576512455614
  endloop
endfacet
facet normal -1.0 4.0775322222434225e-16 1.5272575525042273e-16
  outer loop
    vertex -1.973976537783528e-14 32.99999999999999 27.40000000000009
    vertex 0.0 0.0 0.0
    vertex -4.3004488858855435e-14 -1.4387790421114955e-15 27.40000000000009
  endloop
endfacet
facet normal -1.0 4.0775322222434225e-16 1.5272575525042273e-16
  outer loop
    vertex 0.0 0.0 0.0
    vertex -1.973976537783528e-14 32.99999999999999 27.40000000000009
    vertex 0.0 114.00000000000001 0.0
  endloop
endfacet
facet normal -1.0 4.0775322222434225e-16 1.5272575525042273e-16
  outer loop
    vertex 0.0 114.00000000000001 0.0
    vertex -1.973976537783528e-14 32.99999999999999 27.40000000000009
    vertex 0.0 33.0 38.4
  endloop
endfacet
facet normal -1.0 4.0775322222434225e-16 1.5272575525042273e-16
  outer loop
    vertex 0.0 114.00000000000001 0.0
    vertex 0.0 33.0 38.4
    vertex -8.81239525796218e-15 43.0 38.400000000000006
  endloop
endfacet
facet normal -1.0 4.0775322222434225e-16 1.5272575525042273e-16
  outer loop
    vertex 0.0 114.00000000000001 0.0
    vertex -8.81239525796218e-15 43.0 38.400000000000006
    vertex 0.0 104.00000000000001 38.4
  endloop
endfacet
facet normal -1.0 4.0775322222434225e-16 1.5272575525042273e-16
  outer loop
    vertex 0.0 104.00000000000001 38.4
    vertex -8.81239525796218e-15 43.0 38.400000000000006
    vertex 5.287437154777308e-14 104.00000000000001 39.998576512455614
  endloop
endfacet
facet normal -1.0 4.0775322222434225e-16 1.5272575525042273e-16
  outer loop
    vertex 0.0 114.00000000000001 0.0
    vertex 0.0 104.00000000000001 38.4
    vertex 0.0 114.00000000000001 38.4
  endloop
endfacet
facet normal 2.5542193618374328e-17 -1.0 -1.4529321008880283e-17
  outer loop
    vertex 21.59857651245552 -4.346161705498289e-16 19.999999999999993
    vertex -4.3004488858855435e-14 -1.4387790421114955e-15 27.40000000000009
    vertex 0.0 0.0 0.0
  endloop
endfacet
facet normal 2.5542193618374328e-17 -1.0 -1.4529321008880283e-17
  outer loop
    vertex -4.3004488858855435e-14 -1.4387790421114955e-15 27.40000000000009
    vertex 21.59857651245552 -4.346161705498289e-16 19.999999999999993
    vertex 3.9999999999998628 -2.908249599400689e-15 31.4
  endloop
endfacet
facet normal 2.5542193618374328e-17 -1.0 -1.4529321008880283e-17
  outer loop
    vertex 3.9999999999998628 -2.908249599400689e-15 31.4
    vertex 21.59857651245552 -4.346161705498289e-16 19.999999999999993
    vertex 5.599999999999856 -2.006541077607526e-15 35.99857651245566
  endloop
endfacet
facet normal 2.5542193618374328e-17 -1.0 -1.4529321008880283e-17
  outer loop
    vertex 3.9999999999998628 -2.908249599400689e-15 31.4
    vertex 5.599999999999856 -2.006541077607526e-15 35.99857651245566
    vertex 3.9999999999998628 -2.4246477659937222e-15 35.99857651245566
  endloop
endfacet
facet normal 2.5542193618374328e-17 -1.0 -1.4529321008880283e-17
  outer loop
    vertex 114.8 0.0 0.0
    vertex 93.19999999999999 1.433097234506301e-15 20.000000000000004
    vertex 0.0 0.0 0.0
  endloop
endfacet
facet normal 2.5542193618374328e-17 -1.0 -1.4529321008880283e-17
  outer loop
    vertex 93.19999999999999 1.433097234506301e-15 20.000000000000004
    vertex 114.8 0.0 0.0
    vertex 114.8 0.0 40.00000000000001
  endloop
endfacet
facet normal 2.5542193618374328e-17 -1.0 -1.4529321008880283e-17
  outer loop
    vertex 0.0 0.0 0.0
    vertex 93.19999999999999 1.433097234506301e-15 20.000000000000004
    vertex 21.59857651245552 -4.346161705498289e-16 19.999999999999993
  endloop
endfacet
facet normal 2.5542193618374328e-17 -1.0 -1.4529321008880283e-17
  outer loop
    vertex 93.19999999999999 1.433097234506301e-15 20.000000000000004
    vertex 114.8 0.0 40.00000000000001
    vertex 113.19999999999997 3.172462292866384e-15 40.00000000000001
  endloop
endfacet
facet normal 0.7071067811865476 -6.182622379421434e-16 0.7071067811865475
  outer loop
    vertex 21.59857651245552 -4.346161705498289e-16 19.999999999999993
    vertex 5.599999999999865 1.6000000000000083 35.99857651245565
    vertex 5.599999999999856 -2.006541077607526e-15 35.99857651245566
  endloop
endfacet
facet normal 0.7071067811865476 -6.182622379421434e-16 0.7071067811865475
  outer loop
    vertex 5.599999999999865 1.6000000000000083 35.99857651245565
    vertex 21.59857651245552 -4.346161705498289e-16 19.999999999999993
    vertex 21.59857651245552 1.5999999999999996 19.999999999999993
  endloop
endfacet
facet normal -0.7071067811865183 -2.8453587925460266e-17 0.7071067811865768
  outer loop
    vertex 1.5999999999999996 1.6000000000000076 26.737258300203177
    vertex 5.599999999999967 34.6 30.737258300202928
    vertex 1.5999999999999106 34.6 26.73725830020332
  endloop
endfacet
facet normal -0.7071067811865183 -2.8453587925460266e-17 0.7071067811865768
  outer loop
    vertex 5.599999999999967 34.6 30.737258300202928
    vertex 1.5999999999999996 1.6000000000000076 26.737258300203177
    vertex 5.599999999999865 1.6000000000000132 30.737258300203045
  endloop
endfacet
facet normal 1.0 -2.694938958283332e-16 -3.7684876007965526e-16
  outer loop
    vertex 1.5999999999999996 112.39999999999998 1.5999999999999979
    vertex 1.5999999999999996 1.6000000000000076 26.737258300203177
    vertex 1.5999999999999996 1.5999999999999963 1.5999999999999979
  endloop
endfacet
facet normal 1.0 -2.694938958283332e-16 -3.7684876007965526e-16
  outer loop
    vertex 1.5999999999999996 1.6000000000000076 26.737258300203177
    vertex 1.5999999999999996 112.39999999999998 1.5999999999999979
    vertex 1.5999999999999106 34.6 26.73725830020332
  endloop
endfacet
facet normal 1.0 -2.694938958283332e-16 -3.7684876007965526e-16
  outer loop
    vertex 1.5999999999999106 34.6 26.73725830020332
    vertex 1.5999999999999996 112.39999999999998 1.5999999999999979
    vertex 1.5999999999999996 34.6 39.99857651245552
  endloop
endfacet
facet normal 1.0 -2.694938958283332e-16 -3.7684876007965526e-16
  outer loop
    vertex 1.5999999999999996 34.6 39.99857651245552
    vertex 1.5999999999999996 112.39999999999998 1.5999999999999979
    vertex 1.5999999999999854 43.0 39.99857651245553
  endloop
endfacet
facet normal 1.0 -2.694938958283332e-16 -3.7684876007965526e-16
  outer loop
    vertex 1.5999999999999854 43.0 39.99857651245553
    vertex 1.5999999999999996 112.39999999999998 1.5999999999999979
    vertex 1.5999999999999932 104.00000000000001 39.99857651245552
  endloop
endfacet
facet normal 1.0 -2.694938958283332e-16 -3.7684876007965526e-16
  outer loop
    vertex 1.5999999999999932 104.00000000000001 39.99857651245552
    vertex 1.5999999999999996 112.39999999999998 1.5999999999999979
    vertex 1.599999999999998 104.00000000000001 45.4
  endloop
endfacet
facet normal 1.0 -2.694938958283332e-16 -3.7684876007965526e-16
  outer loop
    vertex 1.599999999999998 104.00000000000001 45.4
    vertex 1.5999999999999996 112.39999999999998 1.5999999999999979
    vertex 1.599999999999998 112.39999999999998 39.99857651245552
  endloop
endfacet
facet normal 1.0 -2.694938958283332e-16 -3.7684876007965526e-16
  outer loop
    vertex 1.599999999999998 104.00000000000001 45.4
    vertex 1.599999999999998 112.39999999999998 39.99857651245552
    vertex 1.599999999999998 114.00000000000001 45.39999999999998
  endloop
endfacet
facet normal 1.0 -2.694938958283332e-16 -3.7684876007965526e-16
  outer loop
    vertex 1.599999999999998 114.00000000000001 45.39999999999998
    vertex 1.599999999999998 112.39999999999998 39.99857651245552
    vertex 1.5999999999999968 114.00000000000001 40.00000000000001
  endloop
endfacet
facet normal 1.0 -2.694938958283332e-16 -3.7684876007965526e-16
  outer loop
    vertex 1.5999999999999996 34.6 39.99857651245552
    vertex 1.5999999999999996 33.0 45.4
    vertex 1.5999999999999996 33.0 39.99857651245552
  endloop
endfacet
facet normal 1.0 -2.694938958283332e-16 -3.7684876007965526e-16
  outer loop
    vertex 1.5999999999999996 33.0 45.4
    vertex 1.5999999999999996 34.6 39.99857651245552
    vertex 1.599999999999991 43.0 45.400000000000006
  endloop
endfacet
facet normal 1.0 -2.694938958283332e-16 -3.7684876007965526e-16
  outer loop
    vertex 1.599999999999991 43.0 45.400000000000006
    vertex 1.5999999999999996 34.6 39.99857651245552
    vertex 1.5999999999999854 43.0 39.99857651245553
  endloop
endfacet
facet normal 1.0 -2.5236512295885618e-15 4.325249304733539e-15
  outer loop
    vertex 5.599999999999865 1.6000000000000132 30.737258300203045
    vertex 5.599999999999851 33.000000000000014 35.99857651245566
    vertex 5.599999999999865 1.6000000000000083 35.99857651245565
  endloop
endfacet
facet normal 1.0 -2.5236512295885618e-15 4.325249304733539e-15
  outer loop
    vertex 5.599999999999851 33.000000000000014 35.99857651245566
    vertex 5.599999999999865 1.6000000000000132 30.737258300203045
    vertex 5.599999999999967 34.6 30.737258300202928
  endloop
endfacet
facet normal 1.0 -2.5236512295885618e-15 4.325249304733539e-15
  outer loop
    vertex 5.599999999999851 33.000000000000014 35.99857651245566
    vertex 5.599999999999967 34.6 30.737258300202928
    vertex 5.6 34.6 35.99857651245552
  endloop
endfacet
facet normal -1.0 -6.409014733063402e-17 -4.59919467727094e-16
  outer loop
    vertex 3.9999999999998628 -2.4246477659937222e-15 35.99857651245566
    vertex 3.9999999999998628 33.0 31.4
    vertex 3.9999999999998628 -2.908249599400689e-15 31.4
  endloop
endfacet
facet normal -1.0 -6.409014733063402e-17 -4.59919467727094e-16
  outer loop
    vertex 3.9999999999998628 33.0 31.4
    vertex 3.9999999999998628 -2.4246477659937222e-15 35.99857651245566
    vertex 3.999999999999859 33.000000000000014 35.99857651245566
  endloop
endfacet
facet normal 8.150002302564578e-17 1.0 -3.508101811597401e-16
  outer loop
    vertex 1.5999999999999996 1.6000000000000076 26.737258300203177
    vertex 56.59999999999999 1.5999999999999974 1.6000000000000034
    vertex 1.5999999999999996 1.5999999999999963 1.5999999999999979
  endloop
endfacet
facet normal 8.150002302564578e-17 1.0 -3.508101811597401e-16
  outer loop
    vertex 56.59999999999999 1.5999999999999974 1.6000000000000034
    vertex 1.5999999999999996 1.6000000000000076 26.737258300203177
    vertex 21.59857651245552 1.5999999999999996 19.999999999999993
  endloop
endfacet
facet normal 8.150002302564578e-17 1.0 -3.508101811597401e-16
  outer loop
    vertex 56.59999999999999 1.5999999999999974 1.6000000000000034
    vertex 21.59857651245552 1.5999999999999996 19.999999999999993
    vertex 56.59999999999999 1.5999999999999974 19.99999999999998
  endloop
endfacet
facet normal 8.150002302564578e-17 1.0 -3.508101811597401e-16
  outer loop
    vertex 21.59857651245552 1.5999999999999996 19.999999999999993
    vertex 1.5999999999999996 1.6000000000000076 26.737258300203177
    vertex 5.599999999999865 1.6000000000000132 30.737258300203045
  endloop
endfacet
facet normal 8.150002302564578e-17 1.0 -3.508101811597401e-16
  outer loop
    vertex 21.59857651245552 1.5999999999999996 19.999999999999993
    vertex 5.599999999999865 1.6000000000000132 30.737258300203045
    vertex 5.599999999999865 1.6000000000000083 35.99857651245565
  endloop
endfacet
facet normal -0.7071067811865464 -1.7702397785883103e-15 0.7071067811865488
  outer loop
    vertex 3.9999999999998628 -2.908249599400689e-15 31.4
    vertex -1.973976537783528e-14 32.99999999999999 27.40000000000009
    vertex -4.3004488858855435e-14 -1.4387790421114955e-15 27.40000000000009
  endloop
endfacet
facet normal -0.7071067811865464 -1.7702397785883103e-15 0.7071067811865488
  outer loop
    vertex -1.973976537783528e-14 32.99999999999999 27.40000000000009
    vertex 3.9999999999998628 -2.908249599400689e-15 31.4
    vertex 3.9999999999998628 33.0 31.4
  endloop
endfacet
facet normal 2.452144767432955e-15 1.1279865930191585e-15 1.0
  outer loop
    vertex 1.599999999999998 104.00000000000001 45.4
    vertex -3.0 114.00000000000001 45.4
    vertex -3.0 104.00000000000001 45.4
  endloop
endfacet
facet normal 2.452144767432955e-15 1.1279865930191585e-15 1.0
  outer loop
    vertex -3.0 114.00000000000001 45.4
    vertex 1.599999999999998 104.00000000000001 45.4
    vertex 1.599999999999998 114.00000000000001 45.39999999999998
  endloop
endfacet
facet normal 0.0 -1.0 0.0
  outer loop
    vertex 1.599999999999998 104.00000000000001 45.4
    vertex 5.287437154777308e-14 104.00000000000001 39.998576512455614
    vertex 1.5999999999999932 104.00000000000001 39.99857651245552
  endloop
endfacet
facet normal 0.0 -1.0 0.0
  outer loop
    vertex 5.287437154777308e-14 104.00000000000001 39.998576512455614
    vertex 1.599999999999998 104.00000000000001 45.4
    vertex -3.000000000000001 104.00000000000001 41.400000000000006
  endloop
endfacet
facet normal 0.0 -1.0 0.0
  outer loop
    vertex -3.000000000000001 104.00000000000001 41.400000000000006
    vertex 1.599999999999998 104.00000000000001 45.4
    vertex -3.0 104.00000000000001 45.4
  endloop
endfacet
facet normal 0.0 -1.0 0.0
  outer loop
    vertex -3.000000000000001 104.00000000000001 41.400000000000006
    vertex 0.0 104.00000000000001 38.4
    vertex 5.287437154777308e-14 104.00000000000001 39.998576512455614
  endloop
endfacet
facet normal -1.0 0.0 0.0
  outer loop
    vertex 52.399999999999984 125.0 3.999999999999998
    vertex 52.399999999999984 114.00000000000001 0.0
    vertex 52.399999999999984 114.00000000000001 3.999999999999998
  endloop
endfacet
facet normal -1.0 0.0 0.0
  outer loop
    vertex 52.399999999999984 114.00000000000001 0.0
    vertex 52.399999999999984 125.0 3.999999999999998
    vertex 52.399999999999984 125.0 0.0
  endloop
endfacet
facet normal 0.0 0.0 1.0
  outer loop
    vertex 62.4 114.00000000000001 3.999999999999998
    vertex 52.399999999999984 125.0 3.999999999999998
    vertex 52.399999999999984 114.00000000000001 3.999999999999998
  endloop
endfacet
facet normal 0.0 0.0 1.0
  outer loop
    vertex 52.399999999999984 125.0 3.999999999999998
    vertex 62.4 114.00000000000001 3.999999999999998
    vertex 62.4 125.0 3.999999999999998
  endloop
endfacet
facet normal -6.37536341500042e-06 -5.861684575317583e-08 0.9999999999796758
  outer loop
    vertex 114.8 0.0 40.00000000000001
    vertex 113.19999999999997 1.5999999999999996 40.00000000000001
    vertex 113.19999999999997 3.172462292866384e-15 40.00000000000001
  endloop
endfacet
facet normal -6.37536341500042e-06 -5.861684575317583e-08 0.9999999999796758
  outer loop
    vertex 113.19999999999997 1.5999999999999996 40.00000000000001
    vertex 114.8 0.0 40.00000000000001
    vertex 113.19999999999997 112.39999999999998 40.00000000000001
  endloop
endfacet
facet normal -6.37536341500042e-06 -5.861684575317583e-08 0.9999999999796758
  outer loop
    vertex 1.599999999999998 112.39999999999998 39.99857651245552
    vertex 114.8 114.00000000000001 40.00000000000001
    vertex 1.5999999999999968 114.00000000000001 40.00000000000001
  endloop
endfacet
facet normal -6.37536341500042e-06 -5.861684575317583e-08 0.9999999999796758
  outer loop
    vertex 114.8 114.00000000000001 40.00000000000001
    vertex 1.599999999999998 112.39999999999998 39.99857651245552
    vertex 113.19999999999997 112.39999999999998 40.00000000000001
  endloop
endfacet
facet normal -6.37536341500042e-06 -5.861684575317583e-08 0.9999999999796758
  outer loop
    vertex 114.8 114.00000000000001 40.00000000000001
    vertex 113.19999999999997 112.39999999999998 40.00000000000001
    vertex 114.8 0.0 40.00000000000001
  endloop
endfacet
facet normal 0.0 0.0 1.0
  outer loop
    vertex 117.79999999999997 103.99999999999983 32.599999999999994
    vertex 114.8 113.99999999999997 32.599999999999994
    vertex 114.8 103.99999999999983 32.599999999999994
  endloop
endfacet
facet normal 0.0 0.0 1.0
  outer loop
    vertex 114.8 113.99999999999997 32.599999999999994
    vertex 117.79999999999997 103.99999999999983 32.599999999999994
    vertex 117.79999999999997 113.99999999999997 32.599999999999994
  endloop
endfacet
facet normal 0.0 -1.0 0.0
  outer loop
    vertex 117.79999999999997 103.99999999999983 28.599999999999994
    vertex 114.8 103.99999999999983 32.599999999999994
    vertex 114.8 103.99999999999983 25.599999999999998
  endloop
endfacet
facet normal 0.0 -1.0 0.0
  outer loop
    vertex 114.8 103.99999999999983 32.599999999999994
    vertex 117.79999999999997 103.99999999999983 28.599999999999994
    vertex 117.79999999999997 103.99999999999983 32.599999999999994
  endloop
endfacet
facet normal 0.7071067811865501 7.913756645655773e-18 -0.7071067811865449
  outer loop
    vertex 114.8 113.99999999999997 25.599999999999998
    vertex 117.79999999999997 103.99999999999983 28.599999999999994
    vertex 114.8 103.99999999999983 25.599999999999998
  endloop
endfacet
facet normal 0.7071067811865501 7.913756645655773e-18 -0.7071067811865449
  outer loop
    vertex 117.79999999999997 103.99999999999983 28.599999999999994
    vertex 114.8 113.99999999999997 25.599999999999998
    vertex 117.79999999999997 113.99999999999997 28.599999999999994
  endloop
endfacet
facet normal -0.7071067811865481 0.0 -0.707106781186547
  outer loop
    vertex -3.000000000000001 114.00000000000001 41.400000000000006
    vertex 0.0 104.00000000000001 38.4
    vertex -3.000000000000001 104.00000000000001 41.400000000000006
  endloop
endfacet
facet normal -0.7071067811865481 0.0 -0.707106781186547
  outer loop
    vertex 0.0 104.00000000000001 38.4
    vertex -3.000000000000001 114.00000000000001 41.400000000000006
    vertex 0.0 114.00000000000001 38.4
  endloop
endfacet
facet normal 1.0 0.0 0.0
  outer loop
    vertex 114.8 114.00000000000001 0.0
    vertex 114.8 0.0 40.00000000000001
    vertex 114.8 0.0 0.0
  endloop
endfacet
facet normal 1.0 0.0 0.0
  outer loop
    vertex 114.8 0.0 40.00000000000001
    vertex 114.8 114.00000000000001 0.0
    vertex 114.8 64.99999999999999 25.599999999999998
  endloop
endfacet
facet normal 1.0 0.0 0.0
  outer loop
    vertex 114.8 64.99999999999999 25.599999999999998
    vertex 114.8 114.00000000000001 0.0
    vertex 114.8 74.99999999999994 25.599999999999998
  endloop
endfacet
facet normal 1.0 0.0 0.0
  outer loop
    vertex 114.8 74.99999999999994 25.599999999999998
    vertex 114.8 114.00000000000001 0.0
    vertex 114.8 74.99999999999994 32.599999999999994
  endloop
endfacet
facet normal 1.0 0.0 0.0
  outer loop
    vertex 114.8 74.99999999999994 32.599999999999994
    vertex 114.8 114.00000000000001 0.0
    vertex 114.8 103.99999999999983 25.599999999999998
  endloop
endfacet
facet normal 1.0 0.0 0.0
  outer loop
    vertex 114.8 103.99999999999983 25.599999999999998
    vertex 114.8 114.00000000000001 0.0
    vertex 114.8 113.99999999999997 25.599999999999998
  endloop
endfacet
facet normal 1.0 0.0 0.0
  outer loop
    vertex 114.8 0.0 40.00000000000001
    vertex 114.8 64.99999999999999 32.599999999999994
    vertex 114.8 114.00000000000001 40.00000000000001
  endloop
endfacet
facet normal 1.0 0.0 0.0
  outer loop
    vertex 114.8 64.99999999999999 32.599999999999994
    vertex 114.8 0.0 40.00000000000001
    vertex 114.8 64.99999999999999 25.599999999999998
  endloop
endfacet
facet normal 1.0 0.0 0.0
  outer loop
    vertex 114.8 114.00000000000001 40.00000000000001
    vertex 114.8 64.99999999999999 32.599999999999994
    vertex 114.8 74.99999999999994 32.599999999999994
  endloop
endfacet
facet normal 1.0 0.0 0.0
  outer loop
    vertex 114.8 114.00000000000001 40.00000000000001
    vertex 114.8 74.99999999999994 32.599999999999994
    vertex 114.8 103.99999999999983 32.599999999999994
  endloop
endfacet
facet normal 1.0 0.0 0.0
  outer loop
    vertex 114.8 103.99999999999983 32.599999999999994
    vertex 114.8 74.99999999999994 32.599999999999994
    vertex 114.8 103.99999999999983 25.599999999999998
  endloop
endfacet
facet normal 1.0 0.0 0.0
  outer loop
    vertex 114.8 114.00000000000001 40.00000000000001
    vertex 114.8 103.99999999999983 32.599999999999994
    vertex 114.8 113.99999999999997 32.599999999999994
  endloop
endfacet
facet normal -1.0 0.0 0.0
  outer loop
    vertex -3.000000000000003 43.0 45.40000000000003
    vertex -2.9999999999999947 33.0 41.400000000000006
    vertex -2.9999999999999947 33.0 45.40000000000003
  endloop
endfacet
facet normal -1.0 0.0 0.0
  outer loop
    vertex -2.9999999999999947 33.0 41.400000000000006
    vertex -3.000000000000003 43.0 45.40000000000003
    vertex -3.000000000000003 43.0 41.40000000000001
  endloop
endfacet
facet normal -0.7071067811865496 -2.294989427241304e-16 -0.7071067811865456
  outer loop
    vertex -3.000000000000003 43.0 41.40000000000001
    vertex 0.0 33.0 38.4
    vertex -2.9999999999999947 33.0 41.400000000000006
  endloop
endfacet
facet normal -0.7071067811865496 -2.294989427241304e-16 -0.7071067811865456
  outer loop
    vertex 0.0 33.0 38.4
    vertex -3.000000000000003 43.0 41.40000000000001
    vertex -8.81239525796218e-15 43.0 38.400000000000006
  endloop
endfacet
facet normal -2.6992582600822665e-16 1.0 1.842370862761511e-16
  outer loop
    vertex -3.000000000000003 43.0 41.40000000000001
    vertex 4.547195953108485e-14 43.0 39.998576512455614
    vertex -8.81239525796218e-15 43.0 38.400000000000006
  endloop
endfacet
facet normal -2.6992582600822665e-16 1.0 1.842370862761511e-16
  outer loop
    vertex 4.547195953108485e-14 43.0 39.998576512455614
    vertex 1.599999999999991 43.0 45.400000000000006
    vertex 1.5999999999999854 43.0 39.99857651245553
  endloop
endfacet
facet normal -2.6992582600822665e-16 1.0 1.842370862761511e-16
  outer loop
    vertex 1.599999999999991 43.0 45.400000000000006
    vertex 4.547195953108485e-14 43.0 39.998576512455614
    vertex -3.000000000000003 43.0 41.40000000000001
  endloop
endfacet
facet normal -2.6992582600822665e-16 1.0 1.842370862761511e-16
  outer loop
    vertex 1.599999999999991 43.0 45.400000000000006
    vertex -3.000000000000003 43.0 41.40000000000001
    vertex -3.000000000000003 43.0 45.40000000000003
  endloop
endfacet
facet normal 1.0344000771670246e-15 -4.52894358855122e-17 1.0
  outer loop
    vertex 3.9999999999998628 -2.4246477659937222e-15 35.99857651245566
    vertex 5.599999999999851 33.000000000000014 35.99857651245566
    vertex 3.999999999999859 33.000000000000014 35.99857651245566
  endloop
endfacet
facet normal 1.0344000771670246e-15 -4.52894358855122e-17 1.0
  outer loop
    vertex 5.599999999999851 33.000000000000014 35.99857651245566
    vertex 3.9999999999998628 -2.4246477659937222e-15 35.99857651245566
    vertex 5.599999999999856 -2.006541077607526e-15 35.99857651245566
  endloop
endfacet
facet normal 1.0344000771670246e-15 -4.52894358855122e-17 1.0
  outer loop
    vertex 5.599999999999851 33.000000000000014 35.99857651245566
    vertex 5.599999999999856 -2.006541077607526e-15 35.99857651245566
    vertex 5.599999999999865 1.6000000000000083 35.99857651245565
  endloop
endfacet
facet normal -1.0 -2.958781617955654e-33 2.6437185773886546e-16
  outer loop
    vertex -3.0 114.00000000000001 45.4
    vertex -3.000000000000001 104.00000000000001 41.400000000000006
    vertex -3.0 104.00000000000001 45.4
  endloop
endfacet
facet normal -1.0 -2.958781617955654e-33 2.6437185773886546e-16
  outer loop
    vertex -3.000000000000001 104.00000000000001 41.400000000000006
    vertex -3.0 114.00000000000001 45.4
    vertex -3.000000000000001 114.00000000000001 41.400000000000006
  endloop
endfacet
facet normal 0.0 1.0 0.0
  outer loop
    vertex 1.5999999999999996 34.6 39.99857651245552
    vertex 5.599999999999967 34.6 30.737258300202928
    vertex 1.5999999999999106 34.6 26.73725830020332
  endloop
endfacet
facet normal 0.0 1.0 0.0
  outer loop
    vertex 5.599999999999967 34.6 30.737258300202928
    vertex 1.5999999999999996 34.6 39.99857651245552
    vertex 5.6 34.6 35.99857651245552
  endloop
endfacet
facet normal 0.7071067811865478 -2.3882051558107706e-15 0.7071067811865472
  outer loop
    vertex 5.599999999999851 33.000000000000014 35.99857651245566
    vertex 1.5999999999999996 34.6 39.99857651245552
    vertex 1.5999999999999996 33.0 39.99857651245552
  endloop
endfacet
facet normal 0.7071067811865478 -2.3882051558107706e-15 0.7071067811865472
  outer loop
    vertex 1.5999999999999996 34.6 39.99857651245552
    vertex 5.599999999999851 33.000000000000014 35.99857651245566
    vertex 5.6 34.6 35.99857651245552
  endloop
endfacet
facet normal 1.6175600258453049e-15 -1.0 6.14075671711861e-16
  outer loop
    vertex 1.5999999999999996 33.0 39.99857651245552
    vertex 3.999999999999859 33.000000000000014 35.99857651245566
    vertex 5.599999999999851 33.000000000000014 35.99857651245566
  endloop
endfacet
facet normal 1.6175600258453049e-15 -1.0 6.14075671711861e-16
  outer loop
    vertex 3.999999999999859 33.000000000000014 35.99857651245566
    vertex 1.5999999999999996 33.0 39.99857651245552
    vertex 0.0 33.0 38.4
  endloop
endfacet
facet normal 1.6175600258453049e-15 -1.0 6.14075671711861e-16
  outer loop
    vertex 0.0 33.0 38.4
    vertex 1.5999999999999996 33.0 39.99857651245552
    vertex -2.9999999999999947 33.0 41.400000000000006
  endloop
endfacet
facet normal 1.6175600258453049e-15 -1.0 6.14075671711861e-16
  outer loop
    vertex -2.9999999999999947 33.0 41.400000000000006
    vertex 1.5999999999999996 33.0 39.99857651245552
    vertex 1.5999999999999996 33.0 45.4
  endloop
endfacet
facet normal 1.6175600258453049e-15 -1.0 6.14075671711861e-16
  outer loop
    vertex -2.9999999999999947 33.0 41.400000000000006
    vertex 1.5999999999999996 33.0 45.4
    vertex -2.9999999999999947 33.0 45.40000000000003
  endloop
endfacet
facet normal 1.6175600258453049e-15 -1.0 6.14075671711861e-16
  outer loop
    vertex 3.9999999999998628 33.0 31.4
    vertex 0.0 33.0 38.4
    vertex -1.973976537783528e-14 32.99999999999999 27.40000000000009
  endloop
endfacet
facet normal 1.6175600258453049e-15 -1.0 6.14075671711861e-16
  outer loop
    vertex 0.0 33.0 38.4
    vertex 3.9999999999998628 33.0 31.4
    vertex 3.999999999999859 33.000000000000014 35.99857651245566
  endloop
endfacet
facet normal -1.0254423572901445e-16 0.0 1.0
  outer loop
    vertex 56.59999999999999 1.5999999999999974 1.6000000000000034
    vertex 1.5999999999999996 112.39999999999998 1.5999999999999979
    vertex 1.5999999999999996 1.5999999999999963 1.5999999999999979
  endloop
endfacet
facet normal -1.0254423572901445e-16 0.0 1.0
  outer loop
    vertex 1.5999999999999996 112.39999999999998 1.5999999999999979
    vertex 56.59999999999999 1.5999999999999974 1.6000000000000034
    vertex 56.59999999999999 112.39999999999998 1.6000000000000034
  endloop
endfacet
facet normal 3.6395168769832123e-16 1.0 6.485059193197473e-16
  outer loop
    vertex 113.19999999999997 1.5999999999999996 1.5999999999999979
    vertex 93.19999999999999 1.599999999999734 20.000000000000004
    vertex 113.19999999999997 1.5999999999999996 40.00000000000001
  endloop
endfacet
facet normal 3.6395168769832123e-16 1.0 6.485059193197473e-16
  outer loop
    vertex 93.19999999999999 1.599999999999734 20.000000000000004
    vertex 113.19999999999997 1.5999999999999996 1.5999999999999979
    vertex 58.199999999999996 1.5999999999999979 1.6000000000000034
  endloop
endfacet
facet normal 3.6395168769832123e-16 1.0 6.485059193197473e-16
  outer loop
    vertex 93.19999999999999 1.599999999999734 20.000000000000004
    vertex 58.199999999999996 1.5999999999999979 1.6000000000000034
    vertex 58.199999999999996 1.5999999999999979 19.99999999999998
  endloop
endfacet
facet normal -1.0 0.0 0.0
  outer loop
    vertex 56.59999999999999 112.39999999999998 19.99999999999998
    vertex 56.59999999999999 1.5999999999999974 1.6000000000000034
    vertex 56.59999999999999 1.5999999999999974 19.99999999999998
  endloop
endfacet
facet normal -1.0 0.0 0.0
  outer loop
    vertex 56.59999999999999 1.5999999999999974 1.6000000000000034
    vertex 56.59999999999999 112.39999999999998 19.99999999999998
    vertex 56.59999999999999 112.39999999999998 1.6000000000000034
  endloop
endfacet
facet normal 1.0 0.0 0.0
  outer loop
    vertex 58.199999999999996 112.39999999999998 1.6000000000000034
    vertex 58.199999999999996 1.5999999999999979 19.99999999999998
    vertex 58.199999999999996 1.5999999999999979 1.6000000000000034
  endloop
endfacet
facet normal 1.0 0.0 0.0
  outer loop
    vertex 58.199999999999996 1.5999999999999979 19.99999999999998
    vertex 58.199999999999996 112.39999999999998 1.6000000000000034
    vertex 58.199999999999996 112.39999999999998 19.99999999999998
  endloop
endfacet
facet normal -1.5745516912253821e-16 1.0226875729959392e-16 1.0
  outer loop
    vertex 93.19999999999999 1.433097234506301e-15 20.000000000000004
    vertex 21.59857651245552 1.5999999999999996 19.999999999999993
    vertex 21.59857651245552 -4.346161705498289e-16 19.999999999999993
  endloop
endfacet
facet normal -1.5745516912253821e-16 1.0226875729959392e-16 1.0
  outer loop
    vertex 21.59857651245552 1.5999999999999996 19.999999999999993
    vertex 93.19999999999999 1.433097234506301e-15 20.000000000000004
    vertex 56.59999999999999 1.5999999999999974 19.99999999999998
  endloop
endfacet
facet normal -1.5745516912253821e-16 1.0226875729959392e-16 1.0
  outer loop
    vertex 56.59999999999999 1.5999999999999974 19.99999999999998
    vertex 93.19999999999999 1.433097234506301e-15 20.000000000000004
    vertex 58.199999999999996 1.5999999999999979 19.99999999999998
  endloop
endfacet
facet normal -1.5745516912253821e-16 1.0226875729959392e-16 1.0
  outer loop
    vertex 56.59999999999999 1.5999999999999974 19.99999999999998
    vertex 58.199999999999996 1.5999999999999979 19.99999999999998
    vertex 56.59999999999999 112.39999999999998 19.99999999999998
  endloop
endfacet
facet normal -1.5745516912253821e-16 1.0226875729959392e-16 1.0
  outer loop
    vertex 58.199999999999996 1.5999999999999979 19.99999999999998
    vertex 93.19999999999999 1.433097234506301e-15 20.000000000000004
    vertex 93.19999999999999 1.599999999999734 20.000000000000004
  endloop
endfacet
facet normal -1.5745516912253821e-16 1.0226875729959392e-16 1.0
  outer loop
    vertex 58.199999999999996 112.39999999999998 19.99999999999998
    vertex 56.59999999999999 112.39999999999998 19.99999999999998
    vertex 58.199999999999996 1.5999999999999979 19.99999999999998
  endloop
endfacet
facet normal 2.8788085791376923e-16 1.0 3.7879410155627563e-16
  outer loop
    vertex 62.4 114.00000000000001 3.999999999999998
    vertex 114.8 114.00000000000001 0.0
    vertex 62.4 114.00000000000001 0.0
  endloop
endfacet
facet normal 2.8788085791376923e-16 1.0 3.7879410155627563e-16
  outer loop
    vertex 114.8 114.00000000000001 0.0
    vertex 62.4 114.00000000000001 3.999999999999998
    vertex 114.8 113.99999999999997 25.599999999999998
  endloop
endfacet
facet normal 2.8788085791376923e-16 1.0 3.7879410155627563e-16
  outer loop
    vertex -3.000000000000001 114.00000000000001 41.400000000000006
    vertex 1.5999999999999968 114.00000000000001 40.00000000000001
    vertex 0.0 114.00000000000001 38.4
  endloop
endfacet
facet normal 2.8788085791376923e-16 1.0 3.7879410155627563e-16
  outer loop
    vertex 1.5999999999999968 114.00000000000001 40.00000000000001
    vertex -3.000000000000001 114.00000000000001 41.400000000000006
    vertex 1.599999999999998 114.00000000000001 45.39999999999998
  endloop
endfacet
facet normal 2.8788085791376923e-16 1.0 3.7879410155627563e-16
  outer loop
    vertex 1.599999999999998 114.00000000000001 45.39999999999998
    vertex -3.000000000000001 114.00000000000001 41.400000000000006
    vertex -3.0 114.00000000000001 45.4
  endloop
endfacet
facet normal 2.8788085791376923e-16 1.0 3.7879410155627563e-16
  outer loop
    vertex 0.0 114.00000000000001 38.4
    vertex 52.399999999999984 114.00000000000001 0.0
    vertex 0.0 114.00000000000001 0.0
  endloop
endfacet
facet normal 2.8788085791376923e-16 1.0 3.7879410155627563e-16
  outer loop
    vertex 52.399999999999984 114.00000000000001 0.0
    vertex 0.0 114.00000000000001 38.4
    vertex 52.399999999999984 114.00000000000001 3.999999999999998
  endloop
endfacet
facet normal 2.8788085791376923e-16 1.0 3.7879410155627563e-16
  outer loop
    vertex 52.399999999999984 114.00000000000001 3.999999999999998
    vertex 0.0 114.00000000000001 38.4
    vertex 62.4 114.00000000000001 3.999999999999998
  endloop
endfacet
facet normal 2.8788085791376923e-16 1.0 3.7879410155627563e-16
  outer loop
    vertex 62.4 114.00000000000001 3.999999999999998
    vertex 0.0 114.00000000000001 38.4
    vertex 114.8 113.99999999999997 25.599999999999998
  endloop
endfacet
facet normal 2.8788085791376923e-16 1.0 3.7879410155627563e-16
  outer loop
    vertex 114.8 113.99999999999997 25.599999999999998
    vertex 0.0 114.00000000000001 38.4
    vertex 117.79999999999997 113.99999999999997 28.599999999999994
  endloop
endfacet
facet normal 2.8788085791376923e-16 1.0 3.7879410155627563e-16
  outer loop
    vertex 117.79999999999997 113.99999999999997 28.599999999999994
    vertex 0.0 114.00000000000001 38.4
    vertex 114.8 113.99999999999997 32.599999999999994
  endloop
endfacet
facet normal 2.8788085791376923e-16 1.0 3.7879410155627563e-16
  outer loop
    vertex 114.8 113.99999999999997 32.599999999999994
    vertex 0.0 114.00000000000001 38.4
    vertex 114.8 114.00000000000001 40.00000000000001
  endloop
endfacet
facet normal 2.8788085791376923e-16 1.0 3.7879410155627563e-16
  outer loop
    vertex 114.8 114.00000000000001 40.00000000000001
    vertex 0.0 114.00000000000001 38.4
    vertex 1.5999999999999968 114.00000000000001 40.00000000000001
  endloop
endfacet
facet normal 2.8788085791376923e-16 1.0 3.7879410155627563e-16
  outer loop
    vertex 117.79999999999997 113.99999999999997 32.599999999999994
    vertex 117.79999999999997 113.99999999999997 28.599999999999994
    vertex 114.8 113.99999999999997 32.599999999999994
  endloop
endfacet
facet normal -0.7071067811865479 3.0913111897180244e-16 0.7071067811865472
  outer loop
    vertex 113.19999999999997 3.172462292866384e-15 40.00000000000001
    vertex 93.19999999999999 1.599999999999734 20.000000000000004
    vertex 93.19999999999999 1.433097234506301e-15 20.000000000000004
  endloop
endfacet
facet normal -0.7071067811865479 3.0913111897180244e-16 0.7071067811865472
  outer loop
    vertex 93.19999999999999 1.599999999999734 20.000000000000004
    vertex 113.19999999999997 3.172462292866384e-15 40.00000000000001
    vertex 113.19999999999997 1.5999999999999996 40.00000000000001
  endloop
endfacet
facet normal 1.025442357290145e-16 0.0 1.0
  outer loop
    vertex 113.19999999999997 1.5999999999999996 1.5999999999999979
    vertex 58.199999999999996 112.39999999999998 1.6000000000000034
    vertex 58.199999999999996 1.5999999999999979 1.6000000000000034
  endloop
endfacet
facet normal 1.025442357290145e-16 0.0 1.0
  outer loop
    vertex 58.199999999999996 112.39999999999998 1.6000000000000034
    vertex 113.19999999999997 1.5999999999999996 1.5999999999999979
    vertex 113.19999999999997 112.39999999999998 1.5999999999999979
  endloop
endfacet
facet normal 0.0 -1.0 0.0
  outer loop
    vertex 113.19999999999997 112.39999999999998 40.00000000000001
    vertex 58.199999999999996 112.39999999999998 1.6000000000000034
    vertex 113.19999999999997 112.39999999999998 1.5999999999999979
  endloop
endfacet
facet normal 0.0 -1.0 0.0
  outer loop
    vertex 58.199999999999996 112.39999999999998 1.6000000000000034
    vertex 113.19999999999997 112.39999999999998 40.00000000000001
    vertex 58.199999999999996 112.39999999999998 19.99999999999998
  endloop
endfacet
facet normal 0.0 -1.0 0.0
  outer loop
    vertex 58.199999999999996 112.39999999999998 19.99999999999998
    vertex 113.19999999999997 112.39999999999998 40.00000000000001
    vertex 56.59999999999999 112.39999999999998 19.99999999999998
  endloop
endfacet
facet normal 0.0 -1.0 0.0
  outer loop
    vertex 56.59999999999999 112.39999999999998 19.99999999999998
    vertex 113.19999999999997 112.39999999999998 40.00000000000001
    vertex 1.599999999999998 112.39999999999998 39.99857651245552
  endloop
endfacet
facet normal 0.0 -1.0 0.0
  outer loop
    vertex 56.59999999999999 112.39999999999998 1.6000000000000034
    vertex 1.599999999999998 112.39999999999998 39.99857651245552
    vertex 1.5999999999999996 112.39999999999998 1.5999999999999979
  endloop
endfacet
facet normal 0.0 -1.0 0.0
  outer loop
    vertex 1.599999999999998 112.39999999999998 39.99857651245552
    vertex 56.59999999999999 112.39999999999998 1.6000000000000034
    vertex 56.59999999999999 112.39999999999998 19.99999999999998
  endloop
endfacet
facet normal 5.6399329650960054e-14 7.143580185194939e-31 1.0
  outer loop
    vertex 1.5999999999999854 43.0 39.99857651245553
    vertex 5.287437154777308e-14 104.00000000000001 39.998576512455614
    vertex 4.547195953108485e-14 43.0 39.998576512455614
  endloop
endfacet
facet normal 5.6399329650960054e-14 7.143580185194939e-31 1.0
  outer loop
    vertex 5.287437154777308e-14 104.00000000000001 39.998576512455614
    vertex 1.5999999999999854 43.0 39.99857651245553
    vertex 1.5999999999999932 104.00000000000001 39.99857651245552
  endloop
endfacet
facet normal -1.0 0.0 0.0
  outer loop
    vertex 113.19999999999997 112.39999999999998 40.00000000000001
    vertex 113.19999999999997 1.5999999999999996 1.5999999999999979
    vertex 113.19999999999997 1.5999999999999996 40.00000000000001
  endloop
endfacet
facet normal -1.0 0.0 0.0
  outer loop
    vertex 113.19999999999997 1.5999999999999996 1.5999999999999979
    vertex 113.19999999999997 112.39999999999998 40.00000000000001
    vertex 113.19999999999997 112.39999999999998 1.5999999999999979
  endloop
endfacet
facet normal 4.904289534865914e-15 0.0 1.0
  outer loop
    vertex -2.9999999999999947 33.0 45.40000000000003
    vertex 1.599999999999991 43.0 45.400000000000006
    vertex -3.000000000000003 43.0 45.40000000000003
  endloop
endfacet
facet normal 4.904289534865914e-15 0.0 1.0
  outer loop
    vertex 1.599999999999991 43.0 45.400000000000006
    vertex -2.9999999999999947 33.0 45.40000000000003
    vertex 1.5999999999999996 33.0 45.4
  endloop
endfacet
facet normal 0.0 0.0 -1.0
  outer loop
    vertex 62.4 125.0 0.0
    vertex 52.399999999999984 114.00000000000001 0.0
    vertex 52.399999999999984 125.0 0.0
  endloop
endfacet
facet normal 0.0 0.0 -1.0
  outer loop
    vertex 52.399999999999984 114.00000000000001 0.0
    vertex 0.0 0.0 0.0
    vertex 0.0 114.00000000000001 0.0
  endloop
endfacet
facet normal 0.0 0.0 -1.0
  outer loop
    vertex 0.0 0.0 0.0
    vertex 52.399999999999984 114.00000000000001 0.0
    vertex 114.8 0.0 0.0
  endloop
endfacet
facet normal 0.0 0.0 -1.0
  outer loop
    vertex 114.8 0.0 0.0
    vertex 52.399999999999984 114.00000000000001 0.0
    vertex 62.4 114.00000000000001 0.0
  endloop
endfacet
facet normal 0.0 0.0 -1.0
  outer loop
    vertex 62.4 114.00000000000001 0.0
    vertex 52.399999999999984 114.00000000000001 0.0
    vertex 62.4 125.0 0.0
  endloop
endfacet
facet normal 0.0 0.0 -1.0
  outer loop
    vertex 114.8 0.0 0.0
    vertex 62.4 114.00000000000001 0.0
    vertex 114.8 114.00000000000001 0.0
  endloop
endfacet
facet normal 1.0 0.0 0.0
  outer loop
    vertex 62.4 125.0 0.0
    vertex 62.4 114.00000000000001 3.999999999999998
    vertex 62.4 114.00000000000001 0.0
  endloop
endfacet
facet normal 1.0 0.0 0.0
  outer loop
    vertex 62.4 114.00000000000001 3.999999999999998
    vertex 62.4 125.0 0.0
    vertex 62.4 125.0 3.999999999999998
  endloop
endfacet
facet normal 0.0 -1.0 0.0
  outer loop
    vertex 117.79999999999997 64.99999999999999 28.599999999999994
    vertex 114.8 64.99999999999999 32.599999999999994
    vertex 114.8 64.99999999999999 25.599999999999998
  endloop
endfacet
facet normal 0.0 -1.0 0.0
  outer loop
    vertex 114.8 64.99999999999999 32.599999999999994
    vertex 117.79999999999997 64.99999999999999 28.599999999999994
    vertex 117.79999999999997 64.99999999999999 32.599999999999994
  endloop
endfacet
facet normal 0.7071067811865502 0.0 -0.7071067811865448
  outer loop
    vertex 114.8 74.99999999999994 25.599999999999998
    vertex 117.79999999999997 64.99999999999999 28.599999999999994
    vertex 114.8 64.99999999999999 25.599999999999998
  endloop
endfacet
facet normal 0.7071067811865502 0.0 -0.7071067811865448
  outer loop
    vertex 117.79999999999997 64.99999999999999 28.599999999999994
    vertex 114.8 74.99999999999994 25.599999999999998
    vertex 117.79999999999997 74.99999999999994 28.599999999999994
  endloop
endfacet
facet normal 0.0 1.0 0.0
  outer loop
    vertex 52.399999999999984 125.0 3.999999999999998
    vertex 62.4 125.0 0.0
    vertex 52.399999999999984 125.0 0.0
  endloop
endfacet
facet normal 0.0 1.0 0.0
  outer loop
    vertex 62.4 125.0 0.0
    vertex 52.399999999999984 125.0 3.999999999999998
    vertex 62.4 125.0 3.999999999999998
  endloop
endfacet
facet normal 1.0 0.0 0.0
  outer loop
    vertex 117.79999999999997 74.99999999999994 28.599999999999994
    vertex 117.79999999999997 64.99999999999999 32.599999999999994
    vertex 117.79999999999997 64.99999999999999 28.599999999999994
  endloop
endfacet
facet normal 1.0 0.0 0.0
  outer loop
    vertex 117.79999999999997 64.99999999999999 32.599999999999994
    vertex 117.79999999999997 74.99999999999994 28.599999999999994
    vertex 117.79999999999997 74.99999999999994 32.599999999999994
  endloop
endfacet
facet normal 1.0 0.0 0.0
  outer loop
    vertex 117.79999999999997 113.99999999999997 28.599999999999994
    vertex 117.79999999999997 103.99999999999983 32.599999999999994
    vertex 117.79999999999997 103.99999999999983 28.599999999999994
  endloop
endfacet
facet normal 1.0 0.0 0.0
  outer loop
    vertex 117.79999999999997 103.99999999999983 32.599999999999994
    vertex 117.79999999999997 113.99999999999997 28.599999999999994
    vertex 117.79999999999997 113.99999999999997 32.599999999999994
  endloop
endfacet
facet normal 0.0 1.0 0.0
  outer loop
    vertex 114.8 74.99999999999994 32.599999999999994
    vertex 117.79999999999997 74.99999999999994 28.599999999999994
    vertex 114.8 74.99999999999994 25.599999999999998
  endloop
endfacet
facet normal 0.0 1.0 0.0
  outer loop
    vertex 117.79999999999997 74.99999999999994 28.599999999999994
    vertex 114.8 74.99999999999994 32.599999999999994
    vertex 117.79999999999997 74.99999999999994 32.599999999999994
  endloop
endfacet
facet normal 0.0 0.0 1.0
  outer loop
    vertex 117.79999999999997 64.99999999999999 32.599999999999994
    vertex 114.8 74.99999999999994 32.599999999999994
    vertex 114.8 64.99999999999999 32.599999999999994
  endloop
endfacet
facet normal 0.0 0.0 1.0
  outer loop
    vertex 114.8 74.99999999999994 32.599999999999994
    vertex 117.79999999999997 64.99999999999999 32.599999999999994
    vertex 117.79999999999997 74.99999999999994 32.599999999999994
  endloop
endfacet
endsolid drawer2-update
