solid drawer1
facet normal 0.0 -1.0 0.0
  outer loop
    vertex 117.79999999999998 103.99999999999983 28.599999999999994
    vertex 114.8 103.99999999999983 32.599999999999994
    vertex 114.8 103.99999999999983 25.599999999999998
  endloop
endfacet
facet normal 0.0 -1.0 0.0
  outer loop
    vertex 114.8 103.99999999999983 32.599999999999994
    vertex 117.79999999999998 103.99999999999983 28.599999999999994
    vertex 117.79999999999998 103.99999999999983 32.599999999999994
  endloop
endfacet
facet normal 1.0 0.0 0.0
  outer loop
    vertex 114.8 114.00000000000001 0.0
    vertex 114.8 0.0 40.00000000000001
    vertex 114.8 0.0 0.0
  endloop
endfacet
facet normal 1.0 0.0 0.0
  outer loop
    vertex 114.8 0.0 40.00000000000001
    vertex 114.8 114.00000000000001 0.0
    vertex 114.8 64.99999999999999 25.599999999999998
  endloop
endfacet
facet normal 1.0 0.0 0.0
  outer loop
    vertex 114.8 64.99999999999999 25.599999999999998
    vertex 114.8 114.00000000000001 0.0
    vertex 114.8 74.99999999999994 25.599999999999998
  endloop
endfacet
facet normal 1.0 0.0 0.0
  outer loop
    vertex 114.8 74.99999999999994 25.599999999999998
    vertex 114.8 114.00000000000001 0.0
    vertex 114.8 74.99999999999994 32.599999999999994
  endloop
endfacet
facet normal 1.0 0.0 0.0
  outer loop
    vertex 114.8 74.99999999999994 32.599999999999994
    vertex 114.8 114.00000000000001 0.0
    vertex 114.8 103.99999999999983 25.599999999999998
  endloop
endfacet
facet normal 1.0 0.0 0.0
  outer loop
    vertex 114.8 103.99999999999983 25.599999999999998
    vertex 114.8 114.00000000000001 0.0
    vertex 114.8 113.99999999999997 25.599999999999998
  endloop
endfacet
facet normal 1.0 0.0 0.0
  outer loop
    vertex 114.8 0.0 40.00000000000001
    vertex 114.8 64.99999999999999 32.599999999999994
    vertex 114.8 114.00000000000001 40.00000000000001
  endloop
endfacet
facet normal 1.0 0.0 0.0
  outer loop
    vertex 114.8 64.99999999999999 32.599999999999994
    vertex 114.8 0.0 40.00000000000001
    vertex 114.8 64.99999999999999 25.599999999999998
  endloop
endfacet
facet normal 1.0 0.0 0.0
  outer loop
    vertex 114.8 114.00000000000001 40.00000000000001
    vertex 114.8 64.99999999999999 32.599999999999994
    vertex 114.8 74.99999999999994 32.599999999999994
  endloop
endfacet
facet normal 1.0 0.0 0.0
  outer loop
    vertex 114.8 114.00000000000001 40.00000000000001
    vertex 114.8 74.99999999999994 32.599999999999994
    vertex 114.8 103.99999999999983 32.599999999999994
  endloop
endfacet
facet normal 1.0 0.0 0.0
  outer loop
    vertex 114.8 103.99999999999983 32.599999999999994
    vertex 114.8 74.99999999999994 32.599999999999994
    vertex 114.8 103.99999999999983 25.599999999999998
  endloop
endfacet
facet normal 1.0 0.0 0.0
  outer loop
    vertex 114.8 114.00000000000001 40.00000000000001
    vertex 114.8 103.99999999999983 32.599999999999994
    vertex 114.8 113.99999999999997 32.599999999999994
  endloop
endfacet
facet normal -1.0 0.0 0.0
  outer loop
    vertex 113.19999999999999 112.39999999999999 40.00000000000001
    vertex 113.19999999999999 1.5999999999999996 1.5999999999999979
    vertex 113.19999999999999 1.5999999999999996 40.00000000000001
  endloop
endfacet
facet normal -1.0 0.0 0.0
  outer loop
    vertex 113.19999999999999 1.5999999999999996 1.5999999999999979
    vertex 113.19999999999999 112.39999999999999 40.00000000000001
    vertex 113.19999999999999 112.39999999999999 1.5999999999999979
  endloop
endfacet
facet normal 4.904289534865915e-15 0.0 1.0
  outer loop
    vertex 1.5999999999999999 0.0 45.400000000000006
    vertex -2.9999999999999947 10.0 45.40000000000003
    vertex -2.9999999999999947 0.0 45.40000000000003
  endloop
endfacet
facet normal 4.904289534865915e-15 0.0 1.0
  outer loop
    vertex -2.9999999999999947 10.0 45.40000000000003
    vertex 1.5999999999999999 0.0 45.400000000000006
    vertex 1.5999999999999999 10.0 45.400000000000006
  endloop
endfacet
facet normal 0.0 0.0 1.0
  outer loop
    vertex 62.4 114.00000000000001 3.9999999999999982
    vertex 52.39999999999999 125.0 3.9999999999999982
    vertex 52.39999999999999 114.00000000000001 3.9999999999999982
  endloop
endfacet
facet normal 0.0 0.0 1.0
  outer loop
    vertex 52.39999999999999 125.0 3.9999999999999982
    vertex 62.4 114.00000000000001 3.9999999999999982
    vertex 62.4 125.0 3.9999999999999982
  endloop
endfacet
facet normal -1.0 0.0 0.0
  outer loop
    vertex -2.9999999999999947 10.0 45.40000000000003
    vertex -2.9999999999999947 0.0 41.40000000000001
    vertex -2.9999999999999947 0.0 45.40000000000003
  endloop
endfacet
facet normal -1.0 0.0 0.0
  outer loop
    vertex -2.9999999999999947 0.0 41.40000000000001
    vertex -2.9999999999999947 10.0 45.40000000000003
    vertex -2.9999999999999947 10.0 41.40000000000001
  endloop
endfacet
facet normal -8.793155830034276e-17 1.0 2.5414150567470733e-17
  outer loop
    vertex -2.9999999999999947 10.0 41.40000000000001
    vertex 5.428435478904703e-14 10.000000000000002 39.998576512455614
    vertex 0.0 10.0 38.4
  endloop
endfacet
facet normal -8.793155830034276e-17 1.0 2.5414150567470733e-17
  outer loop
    vertex 5.428435478904703e-14 10.000000000000002 39.998576512455614
    vertex 1.5999999999999999 10.0 45.400000000000006
    vertex 1.5999999999999943 10.000000000000002 39.99857651245552
  endloop
endfacet
facet normal -8.793155830034276e-17 1.0 2.5414150567470733e-17
  outer loop
    vertex 1.5999999999999999 10.0 45.400000000000006
    vertex 5.428435478904703e-14 10.000000000000002 39.998576512455614
    vertex -2.9999999999999947 10.0 41.40000000000001
  endloop
endfacet
facet normal -8.793155830034276e-17 1.0 2.5414150567470733e-17
  outer loop
    vertex 1.5999999999999999 10.0 45.400000000000006
    vertex -2.9999999999999947 10.0 41.40000000000001
    vertex -2.9999999999999947 10.0 45.40000000000003
  endloop
endfacet
facet normal 1.0 0.0 0.0
  outer loop
    vertex 62.4 125.0 0.0
    vertex 62.4 114.00000000000001 3.9999999999999982
    vertex 62.4 114.00000000000001 0.0
  endloop
endfacet
facet normal 1.0 0.0 0.0
  outer loop
    vertex 62.4 114.00000000000001 3.9999999999999982
    vertex 62.4 125.0 0.0
    vertex 62.4 125.0 3.9999999999999982
  endloop
endfacet
facet normal 0.0 0.0 -1.0
  outer loop
    vertex 62.4 125.0 0.0
    vertex 52.39999999999999 114.00000000000001 0.0
    vertex 52.39999999999999 125.0 0.0
  endloop
endfacet
facet normal 0.0 0.0 -1.0
  outer loop
    vertex 52.39999999999999 114.00000000000001 0.0
    vertex 0.0 0.0 0.0
    vertex 0.0 114.00000000000001 0.0
  endloop
endfacet
facet normal 0.0 0.0 -1.0
  outer loop
    vertex 0.0 0.0 0.0
    vertex 52.39999999999999 114.00000000000001 0.0
    vertex 114.8 0.0 0.0
  endloop
endfacet
facet normal 0.0 0.0 -1.0
  outer loop
    vertex 114.8 0.0 0.0
    vertex 52.39999999999999 114.00000000000001 0.0
    vertex 62.4 114.00000000000001 0.0
  endloop
endfacet
facet normal 0.0 0.0 -1.0
  outer loop
    vertex 62.4 114.00000000000001 0.0
    vertex 52.39999999999999 114.00000000000001 0.0
    vertex 62.4 125.0 0.0
  endloop
endfacet
facet normal 0.0 0.0 -1.0
  outer loop
    vertex 114.8 0.0 0.0
    vertex 62.4 114.00000000000001 0.0
    vertex 114.8 114.00000000000001 0.0
  endloop
endfacet
facet normal -0.7071067811865481 -1.799379935086916e-30 -0.707106781186547
  outer loop
    vertex -3.000000000000001 114.00000000000001 41.400000000000006
    vertex 0.0 104.00000000000001 38.4
    vertex -3.000000000000001 104.00000000000001 41.400000000000006
  endloop
endfacet
facet normal -0.7071067811865481 -1.799379935086916e-30 -0.707106781186547
  outer loop
    vertex 0.0 104.00000000000001 38.4
    vertex -3.000000000000001 114.00000000000001 41.400000000000006
    vertex 0.0 114.00000000000001 38.4
  endloop
endfacet
facet normal -0.7071067811865502 0.0 -0.7071067811865448
  outer loop
    vertex -2.9999999999999947 10.0 41.40000000000001
    vertex 0.0 0.0 38.4
    vertex -2.9999999999999947 0.0 41.40000000000001
  endloop
endfacet
facet normal -0.7071067811865502 0.0 -0.7071067811865448
  outer loop
    vertex 0.0 0.0 38.4
    vertex -2.9999999999999947 10.0 41.40000000000001
    vertex 0.0 10.0 38.4
  endloop
endfacet
facet normal -1.0 0.0 1.7624790515924342e-16
  outer loop
    vertex -3.0 114.00000000000001 45.400000000000006
    vertex -3.000000000000001 104.00000000000001 41.400000000000006
    vertex -3.0 104.00000000000001 45.400000000000006
  endloop
endfacet
facet normal -1.0 0.0 1.7624790515924342e-16
  outer loop
    vertex -3.000000000000001 104.00000000000001 41.400000000000006
    vertex -3.0 114.00000000000001 45.400000000000006
    vertex -3.000000000000001 114.00000000000001 41.400000000000006
  endloop
endfacet
facet normal 0.7071067811865476 0.0 -0.7071067811865476
  outer loop
    vertex 114.8 113.99999999999997 25.599999999999998
    vertex 117.79999999999998 103.99999999999983 28.599999999999994
    vertex 114.8 103.99999999999983 25.599999999999998
  endloop
endfacet
facet normal 0.7071067811865476 0.0 -0.7071067811865476
  outer loop
    vertex 117.79999999999998 103.99999999999983 28.599999999999994
    vertex 114.8 113.99999999999997 25.599999999999998
    vertex 117.79999999999998 113.99999999999997 28.599999999999994
  endloop
endfacet
facet normal -1.0 0.0 0.0
  outer loop
    vertex 52.39999999999999 125.0 3.9999999999999982
    vertex 52.39999999999999 114.00000000000001 0.0
    vertex 52.39999999999999 114.00000000000001 3.9999999999999982
  endloop
endfacet
facet normal -1.0 0.0 0.0
  outer loop
    vertex 52.39999999999999 114.00000000000001 0.0
    vertex 52.39999999999999 125.0 3.9999999999999982
    vertex 52.39999999999999 125.0 0.0
  endloop
endfacet
facet normal 2.452144767432955e-15 1.1279865930191585e-15 1.0
  outer loop
    vertex 1.5999999999999985 104.00000000000001 45.400000000000006
    vertex -3.0 114.00000000000001 45.400000000000006
    vertex -3.0 104.00000000000001 45.400000000000006
  endloop
endfacet
facet normal 2.452144767432955e-15 1.1279865930191585e-15 1.0
  outer loop
    vertex -3.0 114.00000000000001 45.400000000000006
    vertex 1.5999999999999985 104.00000000000001 45.400000000000006
    vertex 1.5999999999999985 114.00000000000001 45.399999999999984
  endloop
endfacet
facet normal 0.0 1.0 0.0
  outer loop
    vertex 52.39999999999999 125.0 3.9999999999999982
    vertex 62.4 125.0 0.0
    vertex 52.39999999999999 125.0 0.0
  endloop
endfacet
facet normal 0.0 1.0 0.0
  outer loop
    vertex 62.4 125.0 0.0
    vertex 52.39999999999999 125.0 3.9999999999999982
    vertex 62.4 125.0 3.9999999999999982
  endloop
endfacet
facet normal 0.0 0.0 1.0
  outer loop
    vertex 117.79999999999998 64.99999999999999 32.599999999999994
    vertex 114.8 74.99999999999994 32.599999999999994
    vertex 114.8 64.99999999999999 32.599999999999994
  endloop
endfacet
facet normal 0.0 0.0 1.0
  outer loop
    vertex 114.8 74.99999999999994 32.599999999999994
    vertex 117.79999999999998 64.99999999999999 32.599999999999994
    vertex 117.79999999999998 74.99999999999994 32.599999999999994
  endloop
endfacet
facet normal 0.7071067811865476 0.0 -0.7071067811865476
  outer loop
    vertex 114.8 74.99999999999994 25.599999999999998
    vertex 117.79999999999998 64.99999999999999 28.599999999999994
    vertex 114.8 64.99999999999999 25.599999999999998
  endloop
endfacet
facet normal 0.7071067811865476 0.0 -0.7071067811865476
  outer loop
    vertex 117.79999999999998 64.99999999999999 28.599999999999994
    vertex 114.8 74.99999999999994 25.599999999999998
    vertex 117.79999999999998 74.99999999999994 28.599999999999994
  endloop
endfacet
facet normal 0.0 1.0 0.0
  outer loop
    vertex 114.8 74.99999999999994 32.599999999999994
    vertex 117.79999999999998 74.99999999999994 28.599999999999994
    vertex 114.8 74.99999999999994 25.599999999999998
  endloop
endfacet
facet normal 0.0 1.0 0.0
  outer loop
    vertex 117.79999999999998 74.99999999999994 28.599999999999994
    vertex 114.8 74.99999999999994 32.599999999999994
    vertex 117.79999999999998 74.99999999999994 32.599999999999994
  endloop
endfacet
facet normal 0.0 -1.0 0.0
  outer loop
    vertex 1.5999999999999985 104.00000000000001 45.400000000000006
    vertex 5.287437154777308e-14 104.00000000000001 39.998576512455614
    vertex 1.5999999999999932 104.00000000000001 39.99857651245552
  endloop
endfacet
facet normal 0.0 -1.0 0.0
  outer loop
    vertex 5.287437154777308e-14 104.00000000000001 39.998576512455614
    vertex 1.5999999999999985 104.00000000000001 45.400000000000006
    vertex -3.000000000000001 104.00000000000001 41.400000000000006
  endloop
endfacet
facet normal 0.0 -1.0 0.0
  outer loop
    vertex -3.000000000000001 104.00000000000001 41.400000000000006
    vertex 1.5999999999999985 104.00000000000001 45.400000000000006
    vertex -3.0 104.00000000000001 45.400000000000006
  endloop
endfacet
facet normal 0.0 -1.0 0.0
  outer loop
    vertex -3.000000000000001 104.00000000000001 41.400000000000006
    vertex 0.0 104.00000000000001 38.4
    vertex 5.287437154777308e-14 104.00000000000001 39.998576512455614
  endloop
endfacet
facet normal -2.4148200488517875e-19 8.484234862069214e-18 1.0
  outer loop
    vertex 113.19999999999999 1.5999999999999996 1.5999999999999979
    vertex 1.5999999999999999 112.39999999999999 1.5999999999999979
    vertex 1.5999999999999999 1.5999999999999963 1.5999999999999979
  endloop
endfacet
facet normal -2.4148200488517875e-19 8.484234862069214e-18 1.0
  outer loop
    vertex 1.5999999999999999 112.39999999999999 1.5999999999999979
    vertex 113.19999999999999 1.5999999999999996 1.5999999999999979
    vertex 113.19999999999999 112.39999999999999 1.5999999999999979
  endloop
endfacet
facet normal 0.0 0.0 1.0
  outer loop
    vertex 117.79999999999998 103.99999999999983 32.599999999999994
    vertex 114.8 113.99999999999997 32.599999999999994
    vertex 114.8 103.99999999999983 32.599999999999994
  endloop
endfacet
facet normal 0.0 0.0 1.0
  outer loop
    vertex 114.8 113.99999999999997 32.599999999999994
    vertex 117.79999999999998 103.99999999999983 32.599999999999994
    vertex 117.79999999999998 113.99999999999997 32.599999999999994
  endloop
endfacet
facet normal 0.0 -1.0 0.0
  outer loop
    vertex 117.79999999999998 64.99999999999999 28.599999999999994
    vertex 114.8 64.99999999999999 32.599999999999994
    vertex 114.8 64.99999999999999 25.599999999999998
  endloop
endfacet
facet normal 0.0 -1.0 0.0
  outer loop
    vertex 114.8 64.99999999999999 32.599999999999994
    vertex 117.79999999999998 64.99999999999999 28.599999999999994
    vertex 117.79999999999998 64.99999999999999 32.599999999999994
  endloop
endfacet
facet normal 1.0 0.0 0.0
  outer loop
    vertex 117.79999999999998 74.99999999999994 28.599999999999994
    vertex 117.79999999999998 64.99999999999999 32.599999999999994
    vertex 117.79999999999998 64.99999999999999 28.599999999999994
  endloop
endfacet
facet normal 1.0 0.0 0.0
  outer loop
    vertex 117.79999999999998 64.99999999999999 32.599999999999994
    vertex 117.79999999999998 74.99999999999994 28.599999999999994
    vertex 117.79999999999998 74.99999999999994 32.599999999999994
  endloop
endfacet
facet normal 0.0 1.0 0.0
  outer loop
    vertex 114.8 113.99999999999997 32.599999999999994
    vertex 117.79999999999998 113.99999999999997 28.599999999999994
    vertex 114.8 113.99999999999997 25.599999999999998
  endloop
endfacet
facet normal 0.0 1.0 0.0
  outer loop
    vertex 117.79999999999998 113.99999999999997 28.599999999999994
    vertex 114.8 113.99999999999997 32.599999999999994
    vertex 117.79999999999998 113.99999999999997 32.599999999999994
  endloop
endfacet
facet normal 1.0 0.0 0.0
  outer loop
    vertex 117.79999999999998 113.99999999999997 28.599999999999994
    vertex 117.79999999999998 103.99999999999983 32.599999999999994
    vertex 117.79999999999998 103.99999999999983 28.599999999999994
  endloop
endfacet
facet normal 1.0 0.0 0.0
  outer loop
    vertex 117.79999999999998 103.99999999999983 32.599999999999994
    vertex 117.79999999999998 113.99999999999997 28.599999999999994
    vertex 117.79999999999998 113.99999999999997 32.599999999999994
  endloop
endfacet
facet normal 1.0 1.1008216410338034e-17 4.001253825516445e-17
  outer loop
    vertex 1.5999999999999999 112.39999999999999 1.5999999999999979
    vertex 1.5999999999999992 1.5999999999999968 39.99857651245552
    vertex 1.5999999999999999 1.5999999999999963 1.5999999999999979
  endloop
endfacet
facet normal 1.0 1.1008216410338034e-17 4.001253825516445e-17
  outer loop
    vertex 1.5999999999999992 1.5999999999999968 39.99857651245552
    vertex 1.5999999999999999 112.39999999999999 1.5999999999999979
    vertex 1.5999999999999943 10.000000000000002 39.99857651245552
  endloop
endfacet
facet normal 1.0 1.1008216410338034e-17 4.001253825516445e-17
  outer loop
    vertex 1.5999999999999992 1.5999999999999968 39.99857651245552
    vertex 1.5999999999999943 10.000000000000002 39.99857651245552
    vertex 1.5999999999999999 10.0 45.400000000000006
  endloop
endfacet
facet normal 1.0 1.1008216410338034e-17 4.001253825516445e-17
  outer loop
    vertex 1.5999999999999943 10.000000000000002 39.99857651245552
    vertex 1.5999999999999999 112.39999999999999 1.5999999999999979
    vertex 1.5999999999999932 104.00000000000001 39.99857651245552
  endloop
endfacet
facet normal 1.0 1.1008216410338034e-17 4.001253825516445e-17
  outer loop
    vertex 1.5999999999999932 104.00000000000001 39.99857651245552
    vertex 1.5999999999999999 112.39999999999999 1.5999999999999979
    vertex 1.5999999999999985 104.00000000000001 45.400000000000006
  endloop
endfacet
facet normal 1.0 1.1008216410338034e-17 4.001253825516445e-17
  outer loop
    vertex 1.5999999999999985 104.00000000000001 45.400000000000006
    vertex 1.5999999999999999 112.39999999999999 1.5999999999999979
    vertex 1.599999999999998 112.39999999999999 39.99857651245552
  endloop
endfacet
facet normal 1.0 1.1008216410338034e-17 4.001253825516445e-17
  outer loop
    vertex 1.5999999999999985 104.00000000000001 45.400000000000006
    vertex 1.599999999999998 112.39999999999999 39.99857651245552
    vertex 1.5999999999999985 114.00000000000001 45.399999999999984
  endloop
endfacet
facet normal 1.0 1.1008216410338034e-17 4.001253825516445e-17
  outer loop
    vertex 1.5999999999999985 114.00000000000001 45.399999999999984
    vertex 1.599999999999998 112.39999999999999 39.99857651245552
    vertex 1.599999999999997 114.00000000000001 40.00000000000001
  endloop
endfacet
facet normal 1.0 1.1008216410338034e-17 4.001253825516445e-17
  outer loop
    vertex 1.5999999999999992 1.5999999999999968 39.99857651245552
    vertex 1.5999999999999999 0.0 45.400000000000006
    vertex 1.5999999999999992 0.0 39.99857651245552
  endloop
endfacet
facet normal 1.0 1.1008216410338034e-17 4.001253825516445e-17
  outer loop
    vertex 1.5999999999999999 0.0 45.400000000000006
    vertex 1.5999999999999992 1.5999999999999968 39.99857651245552
    vertex 1.5999999999999999 10.0 45.400000000000006
  endloop
endfacet
facet normal -6.375363415000417e-06 -5.86168457531745e-08 0.9999999999796758
  outer loop
    vertex 114.8 0.0 40.00000000000001
    vertex 113.19999999999999 1.5999999999999996 40.00000000000001
    vertex 113.19999999999999 3.1724622928663847e-15 40.00000000000001
  endloop
endfacet
facet normal -6.375363415000417e-06 -5.86168457531745e-08 0.9999999999796758
  outer loop
    vertex 113.19999999999999 1.5999999999999996 40.00000000000001
    vertex 114.8 0.0 40.00000000000001
    vertex 113.19999999999999 112.39999999999999 40.00000000000001
  endloop
endfacet
facet normal -6.375363415000417e-06 -5.86168457531745e-08 0.9999999999796758
  outer loop
    vertex 1.599999999999998 112.39999999999999 39.99857651245552
    vertex 114.8 114.00000000000001 40.00000000000001
    vertex 1.599999999999997 114.00000000000001 40.00000000000001
  endloop
endfacet
facet normal -6.375363415000417e-06 -5.86168457531745e-08 0.9999999999796758
  outer loop
    vertex 114.8 114.00000000000001 40.00000000000001
    vertex 1.599999999999998 112.39999999999999 39.99857651245552
    vertex 113.19999999999999 112.39999999999999 40.00000000000001
  endloop
endfacet
facet normal -6.375363415000417e-06 -5.86168457531745e-08 0.9999999999796758
  outer loop
    vertex 114.8 114.00000000000001 40.00000000000001
    vertex 113.19999999999999 112.39999999999999 40.00000000000001
    vertex 114.8 0.0 40.00000000000001
  endloop
endfacet
facet normal 0.0 -1.0 0.0
  outer loop
    vertex 113.19999999999999 112.39999999999999 40.00000000000001
    vertex 1.5999999999999999 112.39999999999999 1.5999999999999979
    vertex 113.19999999999999 112.39999999999999 1.5999999999999979
  endloop
endfacet
facet normal 0.0 -1.0 0.0
  outer loop
    vertex 1.5999999999999999 112.39999999999999 1.5999999999999979
    vertex 113.19999999999999 112.39999999999999 40.00000000000001
    vertex 1.599999999999998 112.39999999999999 39.99857651245552
  endloop
endfacet
facet normal -1.0 -2.524541422471449e-18 3.1827365079115735e-16
  outer loop
    vertex 0.0 10.0 38.4
    vertex 0.0 0.0 0.0
    vertex 0.0 0.0 38.4
  endloop
endfacet
facet normal -1.0 -2.524541422471449e-18 3.1827365079115735e-16
  outer loop
    vertex 0.0 0.0 0.0
    vertex 0.0 10.0 38.4
    vertex 0.0 114.00000000000001 0.0
  endloop
endfacet
facet normal -1.0 -2.524541422471449e-18 3.1827365079115735e-16
  outer loop
    vertex 0.0 114.00000000000001 0.0
    vertex 0.0 10.0 38.4
    vertex 5.428435478904703e-14 10.000000000000002 39.998576512455614
  endloop
endfacet
facet normal -1.0 -2.524541422471449e-18 3.1827365079115735e-16
  outer loop
    vertex 0.0 114.00000000000001 0.0
    vertex 5.428435478904703e-14 10.000000000000002 39.998576512455614
    vertex 0.0 104.00000000000001 38.4
  endloop
endfacet
facet normal -1.0 -2.524541422471449e-18 3.1827365079115735e-16
  outer loop
    vertex 0.0 104.00000000000001 38.4
    vertex 5.428435478904703e-14 10.000000000000002 39.998576512455614
    vertex 5.287437154777308e-14 104.00000000000001 39.998576512455614
  endloop
endfacet
facet normal -1.0 -2.524541422471449e-18 3.1827365079115735e-16
  outer loop
    vertex 0.0 114.00000000000001 0.0
    vertex 0.0 104.00000000000001 38.4
    vertex 0.0 114.00000000000001 38.4
  endloop
endfacet
facet normal 4.8274110340909683e-14 5.4307728644754316e-31 1.0
  outer loop
    vertex 5.428435478904703e-14 10.000000000000002 39.998576512455614
    vertex 1.5999999999999932 104.00000000000001 39.99857651245552
    vertex 5.287437154777308e-14 104.00000000000001 39.998576512455614
  endloop
endfacet
facet normal 4.8274110340909683e-14 5.4307728644754316e-31 1.0
  outer loop
    vertex 1.5999999999999932 104.00000000000001 39.99857651245552
    vertex 5.428435478904703e-14 10.000000000000002 39.998576512455614
    vertex 1.5999999999999943 10.000000000000002 39.99857651245552
  endloop
endfacet
facet normal 2.1726668650837298e-16 1.0 2.816926755835238e-16
  outer loop
    vertex -3.000000000000001 114.00000000000001 41.400000000000006
    vertex 1.599999999999997 114.00000000000001 40.00000000000001
    vertex 0.0 114.00000000000001 38.4
  endloop
endfacet
facet normal 2.1726668650837298e-16 1.0 2.816926755835238e-16
  outer loop
    vertex 1.599999999999997 114.00000000000001 40.00000000000001
    vertex -3.000000000000001 114.00000000000001 41.400000000000006
    vertex 1.5999999999999985 114.00000000000001 45.399999999999984
  endloop
endfacet
facet normal 2.1726668650837298e-16 1.0 2.816926755835238e-16
  outer loop
    vertex 1.5999999999999985 114.00000000000001 45.399999999999984
    vertex -3.000000000000001 114.00000000000001 41.400000000000006
    vertex -3.0 114.00000000000001 45.400000000000006
  endloop
endfacet
facet normal 2.1726668650837298e-16 1.0 2.816926755835238e-16
  outer loop
    vertex 0.0 114.00000000000001 38.4
    vertex 52.39999999999999 114.00000000000001 0.0
    vertex 0.0 114.00000000000001 0.0
  endloop
endfacet
facet normal 2.1726668650837298e-16 1.0 2.816926755835238e-16
  outer loop
    vertex 52.39999999999999 114.00000000000001 0.0
    vertex 0.0 114.00000000000001 38.4
    vertex 52.39999999999999 114.00000000000001 3.9999999999999982
  endloop
endfacet
facet normal 2.1726668650837298e-16 1.0 2.816926755835238e-16
  outer loop
    vertex 52.39999999999999 114.00000000000001 3.9999999999999982
    vertex 0.0 114.00000000000001 38.4
    vertex 62.4 114.00000000000001 3.9999999999999982
  endloop
endfacet
facet normal 2.1726668650837298e-16 1.0 2.816926755835238e-16
  outer loop
    vertex 62.4 114.00000000000001 3.9999999999999982
    vertex 0.0 114.00000000000001 38.4
    vertex 114.8 113.99999999999997 25.599999999999998
  endloop
endfacet
facet normal 2.1726668650837298e-16 1.0 2.816926755835238e-16
  outer loop
    vertex 114.8 113.99999999999997 25.599999999999998
    vertex 0.0 114.00000000000001 38.4
    vertex 114.8 113.99999999999997 32.599999999999994
  endloop
endfacet
facet normal 2.1726668650837298e-16 1.0 2.816926755835238e-16
  outer loop
    vertex 114.8 113.99999999999997 32.599999999999994
    vertex 0.0 114.00000000000001 38.4
    vertex 114.8 114.00000000000001 40.00000000000001
  endloop
endfacet
facet normal 2.1726668650837298e-16 1.0 2.816926755835238e-16
  outer loop
    vertex 114.8 114.00000000000001 40.00000000000001
    vertex 0.0 114.00000000000001 38.4
    vertex 1.599999999999997 114.00000000000001 40.00000000000001
  endloop
endfacet
facet normal 2.1726668650837298e-16 1.0 2.816926755835238e-16
  outer loop
    vertex 62.4 114.00000000000001 3.9999999999999982
    vertex 114.8 114.00000000000001 0.0
    vertex 62.4 114.00000000000001 0.0
  endloop
endfacet
facet normal 2.1726668650837298e-16 1.0 2.816926755835238e-16
  outer loop
    vertex 114.8 114.00000000000001 0.0
    vertex 62.4 114.00000000000001 3.9999999999999982
    vertex 114.8 113.99999999999997 25.599999999999998
  endloop
endfacet
facet normal 0.7071067811865477 -1.7716266289059588e-30 0.7071067811865474
  outer loop
    vertex 21.59857651245552 1.5999999999999996 19.999999999999993
    vertex 1.5999999999999992 0.0 39.99857651245552
    vertex 21.59857651245552 -4.346161705498289e-16 19.999999999999993
  endloop
endfacet
facet normal 0.7071067811865477 -1.7716266289059588e-30 0.7071067811865474
  outer loop
    vertex 1.5999999999999992 0.0 39.99857651245552
    vertex 21.59857651245552 1.5999999999999996 19.999999999999993
    vertex 1.5999999999999992 1.5999999999999968 39.99857651245552
  endloop
endfacet
facet normal -0.7071067811865475 -2.267359294767329e-28 0.7071067811865477
  outer loop
    vertex 113.19999999999999 3.1724622928663847e-15 40.00000000000001
    vertex 93.19999999999999 1.599999999999734 20.000000000000004
    vertex 93.19999999999999 1.4330972345063015e-15 20.000000000000004
  endloop
endfacet
facet normal -0.7071067811865475 -2.267359294767329e-28 0.7071067811865477
  outer loop
    vertex 93.19999999999999 1.599999999999734 20.000000000000004
    vertex 113.19999999999999 3.1724622928663847e-15 40.00000000000001
    vertex 113.19999999999999 1.5999999999999996 40.00000000000001
  endloop
endfacet
facet normal 1.078389805213762e-17 -1.0 1.8174635891193617e-17
  outer loop
    vertex 114.8 0.0 0.0
    vertex 93.19999999999999 1.4330972345063015e-15 20.000000000000004
    vertex 0.0 0.0 0.0
  endloop
endfacet
facet normal 1.078389805213762e-17 -1.0 1.8174635891193617e-17
  outer loop
    vertex 93.19999999999999 1.4330972345063015e-15 20.000000000000004
    vertex 114.8 0.0 0.0
    vertex 114.8 0.0 40.00000000000001
  endloop
endfacet
facet normal 1.078389805213762e-17 -1.0 1.8174635891193617e-17
  outer loop
    vertex 0.0 0.0 0.0
    vertex 93.19999999999999 1.4330972345063015e-15 20.000000000000004
    vertex 21.59857651245552 -4.346161705498289e-16 19.999999999999993
  endloop
endfacet
facet normal 1.078389805213762e-17 -1.0 1.8174635891193617e-17
  outer loop
    vertex 93.19999999999999 1.4330972345063015e-15 20.000000000000004
    vertex 114.8 0.0 40.00000000000001
    vertex 113.19999999999999 3.1724622928663847e-15 40.00000000000001
  endloop
endfacet
facet normal 1.078389805213762e-17 -1.0 1.8174635891193617e-17
  outer loop
    vertex 21.59857651245552 -4.346161705498289e-16 19.999999999999993
    vertex 0.0 0.0 38.4
    vertex 0.0 0.0 0.0
  endloop
endfacet
facet normal 1.078389805213762e-17 -1.0 1.8174635891193617e-17
  outer loop
    vertex 0.0 0.0 38.4
    vertex 21.59857651245552 -4.346161705498289e-16 19.999999999999993
    vertex 1.5999999999999992 0.0 39.99857651245552
  endloop
endfacet
facet normal 1.078389805213762e-17 -1.0 1.8174635891193617e-17
  outer loop
    vertex 0.0 0.0 38.4
    vertex 1.5999999999999992 0.0 39.99857651245552
    vertex -2.9999999999999947 0.0 41.40000000000001
  endloop
endfacet
facet normal 1.078389805213762e-17 -1.0 1.8174635891193617e-17
  outer loop
    vertex -2.9999999999999947 0.0 41.40000000000001
    vertex 1.5999999999999992 0.0 39.99857651245552
    vertex 1.5999999999999999 0.0 45.400000000000006
  endloop
endfacet
facet normal 1.078389805213762e-17 -1.0 1.8174635891193617e-17
  outer loop
    vertex -2.9999999999999947 0.0 41.40000000000001
    vertex 1.5999999999999999 0.0 45.400000000000006
    vertex -2.9999999999999947 0.0 45.40000000000003
  endloop
endfacet
facet normal -1.5749561551046314e-16 4.406232659145411e-15 1.0
  outer loop
    vertex 93.19999999999999 1.4330972345063015e-15 20.000000000000004
    vertex 21.59857651245552 1.5999999999999996 19.999999999999993
    vertex 21.59857651245552 -4.346161705498289e-16 19.999999999999993
  endloop
endfacet
facet normal -1.5749561551046314e-16 4.406232659145411e-15 1.0
  outer loop
    vertex 21.59857651245552 1.5999999999999996 19.999999999999993
    vertex 93.19999999999999 1.4330972345063015e-15 20.000000000000004
    vertex 93.19999999999999 1.599999999999734 20.000000000000004
  endloop
endfacet
facet normal 6.136706245108635e-16 1.0 2.66227787736657e-16
  outer loop
    vertex 1.5999999999999999 1.5999999999999963 1.5999999999999979
    vertex 21.59857651245552 1.5999999999999996 19.999999999999993
    vertex 113.19999999999999 1.5999999999999996 1.5999999999999979
  endloop
endfacet
facet normal 6.136706245108635e-16 1.0 2.66227787736657e-16
  outer loop
    vertex 21.59857651245552 1.5999999999999996 19.999999999999993
    vertex 1.5999999999999999 1.5999999999999963 1.5999999999999979
    vertex 1.5999999999999992 1.5999999999999968 39.99857651245552
  endloop
endfacet
facet normal 6.136706245108635e-16 1.0 2.66227787736657e-16
  outer loop
    vertex 113.19999999999999 1.5999999999999996 1.5999999999999979
    vertex 93.19999999999999 1.599999999999734 20.000000000000004
    vertex 113.19999999999999 1.5999999999999996 40.00000000000001
  endloop
endfacet
facet normal 6.136706245108635e-16 1.0 2.66227787736657e-16
  outer loop
    vertex 93.19999999999999 1.599999999999734 20.000000000000004
    vertex 113.19999999999999 1.5999999999999996 1.5999999999999979
    vertex 21.59857651245552 1.5999999999999996 19.999999999999993
  endloop
endfacet
endsolid drawer1
